<svg width="962" height="642" viewBox="0 0 962 642" fill="none" xmlns="http://www.w3.org/2000/svg">
<g clip-path="url(#clip0_1_4)">
<path d="M962 0H0V642H962V0Z" fill="white"/>
<circle cx="605" cy="412" r="319" fill="#032FF2" fill-opacity="0.1"/>
<g opacity="0.5">
<path d="M901.002 442.466C909.57 442.466 916.516 435.513 916.516 426.936C916.516 418.359 909.57 411.406 901.002 411.406C892.434 411.406 885.488 418.359 885.488 426.936C885.488 435.513 892.434 442.466 901.002 442.466Z" stroke="#032FF2" stroke-miterlimit="10"/>
<path d="M912.122 416.121L887.339 434.287C888.167 435.823 889.25 437.224 890.529 438.399L914.831 419.902C914.109 418.501 913.191 417.22 912.122 416.121Z" stroke="#032FF2" stroke-miterlimit="10"/>
<path d="M804.895 232.969H793.112V221.175C793.112 219.352 791.638 217.876 789.817 217.876C787.996 217.876 786.522 219.352 786.522 221.175V232.969H774.739C772.919 232.969 771.444 234.445 771.444 236.268C771.444 238.09 772.919 239.567 774.739 239.567H786.522V251.361C786.522 253.184 787.996 254.66 789.817 254.66C791.638 254.66 793.112 253.184 793.112 251.361V239.567H804.895C806.715 239.567 808.19 238.09 808.19 236.268C808.19 234.46 806.715 232.969 804.895 232.969Z" fill="#032FF2"/>
<path d="M337.193 93.9724C339.074 86.0317 334.168 78.0682 326.236 76.1855C318.303 74.3027 310.348 79.2136 308.467 87.1543C306.587 95.095 311.493 103.059 319.425 104.941C327.357 106.824 335.313 101.913 337.193 93.9724Z" fill="#F4F4F4" stroke="#C0C0C0" stroke-miterlimit="10"/>
<path d="M330.176 88.9506H324.443V83.2116C324.443 82.3229 323.721 81.5999 322.833 81.5999C321.945 81.5999 321.223 82.3229 321.223 83.2116V88.9506H315.49C314.602 88.9506 313.88 89.6737 313.88 90.5624C313.88 91.4511 314.602 92.1741 315.49 92.1741H321.223V97.9132C321.223 98.8019 321.945 99.5249 322.833 99.5249C323.721 99.5249 324.443 98.8019 324.443 97.9132V92.1741H330.176C331.064 92.1741 331.787 91.4511 331.787 90.5624C331.771 89.6737 331.064 88.9506 330.176 88.9506Z" fill="#C0C0C0"/>
<path d="M845.341 377.575H789.967C783.527 377.575 778.32 372.348 778.32 365.916V334.313C778.32 327.866 783.542 322.655 789.967 322.655H845.341C851.782 322.655 856.988 327.881 856.988 334.313V365.916C856.988 372.348 851.782 377.575 845.341 377.575Z" stroke="#C0C0C0" stroke-miterlimit="10"/>
<path d="M802.968 322.639C804.232 315.665 810.326 310.363 817.654 310.363C824.982 310.363 831.076 315.665 832.34 322.639H836.824C835.515 313.21 827.435 305.919 817.654 305.919C807.873 305.919 799.793 313.21 798.483 322.639H802.968Z" fill="#C0C0C0"/>
<path d="M817.655 364.876C825.807 364.876 832.416 358.26 832.416 350.099C832.416 341.938 825.807 335.323 817.655 335.323C809.502 335.323 802.893 341.938 802.893 350.099C802.893 358.26 809.502 364.876 817.655 364.876Z" fill="#F4F4F4" stroke="#C0C0C0" stroke-miterlimit="10"/>
<path d="M824.983 348.503H819.25V342.764C819.25 341.875 818.528 341.152 817.64 341.152C816.752 341.152 816.03 341.875 816.03 342.764V348.503H810.297C809.409 348.503 808.687 349.226 808.687 350.114C808.687 351.003 809.409 351.726 810.297 351.726H816.03V357.465C816.03 358.354 816.752 359.077 817.64 359.077C818.528 359.077 819.25 358.354 819.25 357.465V351.726H824.983C825.871 351.726 826.593 351.003 826.593 350.114C826.593 349.226 825.871 348.503 824.983 348.503Z" fill="#C0C0C0"/>
<path d="M270.469 300.813H259.74V290.073C259.74 288.416 258.401 287.061 256.731 287.061C255.06 287.061 253.721 288.401 253.721 290.073V300.813H242.992C241.337 300.813 239.983 302.154 239.983 303.826C239.983 305.483 241.322 306.838 242.992 306.838H253.721V317.578C253.721 319.235 255.06 320.591 256.731 320.591C258.401 320.591 259.74 319.25 259.74 317.578V306.838H270.469C272.124 306.838 273.478 305.498 273.478 303.826C273.463 302.154 272.124 300.813 270.469 300.813Z" fill="#FFE5E5"/>
<path d="M27.964 160.862H20.0942V152.984C20.0942 151.764 19.1011 150.785 17.8973 150.785C16.6784 150.785 15.7004 151.779 15.7004 152.984V160.862H7.83055C6.6117 160.862 5.63361 161.856 5.63361 163.061C5.63361 164.281 6.62675 165.26 7.83055 165.26H15.7004V173.138C15.7004 174.358 16.6935 175.337 17.8973 175.337C19.1161 175.337 20.0942 174.343 20.0942 173.138V165.26H27.964C29.1829 165.26 30.161 164.266 30.161 163.061C30.161 161.856 29.1829 160.862 27.964 160.862Z" fill="#C0C0C0"/>
<path d="M489.169 100.534H481.118V92.4755C481.118 91.2253 480.11 90.2161 478.861 90.2161C477.612 90.2161 476.604 91.2253 476.604 92.4755V100.534H468.554C467.305 100.534 466.296 101.544 466.296 102.794C466.296 104.044 467.305 105.053 468.554 105.053H476.604V113.112C476.604 114.362 477.612 115.371 478.861 115.371C480.11 115.371 481.118 114.362 481.118 113.112V105.053H489.169C490.417 105.053 491.426 104.044 491.426 102.794C491.426 101.544 490.417 100.534 489.169 100.534Z" fill="#032FF2"/>
<path d="M540.647 283.385C540.647 283.385 499.372 252.626 511.981 237.488C524.606 222.35 542.422 244.342 542.422 244.342C542.422 244.342 552.083 227.426 565.46 235.213C585.277 246.722 540.647 283.385 540.647 283.385Z" stroke="#032FF2" stroke-miterlimit="10"/>
<path d="M331.713 247.324C328.237 250.803 322.609 250.803 319.148 247.324L301.257 229.414C297.781 225.934 297.781 220.301 301.257 216.836C304.733 213.357 310.361 213.357 313.821 216.836L331.713 234.746C335.174 238.211 335.174 243.844 331.713 247.324Z" fill="#F4F4F4" stroke="#C0C0C0" stroke-miterlimit="10"/>
<path d="M310.194 238.361L319.463 247.64C322.759 250.939 328.086 250.939 331.381 247.64L332.028 246.993C335.323 243.694 335.323 238.361 332.028 235.063L322.759 225.784L310.194 238.361Z" fill="#C0C0C0"/>
<path d="M303.529 252.43C298.623 252.43 294.636 248.454 294.636 243.528V218.192C294.636 213.282 298.608 209.29 303.529 209.29C308.434 209.29 312.422 213.266 312.422 218.192V243.528C312.422 248.454 308.449 252.43 303.529 252.43Z" fill="#F4F4F4" stroke="#C0C0C0" stroke-miterlimit="10"/>
<path d="M294.65 230.875V244.01C294.65 248.665 298.427 252.446 303.077 252.446H303.995C308.645 252.446 312.421 248.665 312.421 244.01V230.875H294.65Z" fill="#C0C0C0"/>
</g>
<path d="M554.163 537.79C554.548 519.262 558.178 492.94 567.99 455.55C599.172 336.703 683.93 302.626 683.93 302.626C656.404 334.508 641.795 469.507 636.048 537.778H554.163V537.79Z" fill="white" stroke="#262433" stroke-miterlimit="10"/>
<path d="M890.927 526.71C896.147 511.494 894.634 490.796 883.269 463.909C827.191 331.233 721.025 297.297 721.025 297.297L724.039 467.607L890.927 526.71Z" fill="white" stroke="#262433" stroke-miterlimit="10"/>
<path d="M809.12 537.791C809.158 535.197 809.184 532.578 809.184 529.958C809.184 400.326 763.701 295.243 707.597 295.243C651.493 295.243 606.01 400.326 606.01 529.958C606.01 532.578 606.035 535.184 606.074 537.791H809.12Z" fill="#032FF2" stroke="#262433" stroke-miterlimit="10"/>
<path d="M745.331 312C782.747 346.616 809.182 431.155 809.182 529.971C809.182 532.591 809.157 535.197 809.118 537.804H746.473L745.331 312Z" fill="white" stroke="#262433" stroke-miterlimit="10"/>
<path d="M745.331 312C747.948 314.413 750.501 317.084 753.002 319.973L780.246 399.966L763.827 403.523L760.441 537.791H746.46L745.331 312Z" fill="#F4F4F4" stroke="#262433" stroke-miterlimit="10"/>
<path d="M661.843 537.791H606.06C606.021 535.197 605.996 532.578 605.996 529.958C605.996 434.172 630.828 351.804 666.435 315.312L661.843 537.791Z" fill="white" stroke="#262433" stroke-miterlimit="10"/>
<path d="M670.077 311.781V537.791H655.789L652.402 403.523L635.984 399.966L663.882 318.047C665.909 315.813 667.974 313.72 670.077 311.781Z" fill="#F4F4F4" stroke="#262433" stroke-miterlimit="10"/>
<path d="M657.841 356.58C659.482 342.366 663.779 328.203 671.501 316.082C677.709 306.337 686.572 297.567 697.77 293.92C708.044 290.569 719.011 292.226 728.182 297.824C738.443 304.077 745.87 314.22 750.962 324.929C758.068 339.9 760.864 356.734 760.441 373.22C760.39 375.287 763.596 375.287 763.648 373.22C764.058 357.632 761.595 341.826 755.554 327.407C750.59 315.569 743.138 304.398 732.569 296.874C723.346 290.312 711.918 287.423 700.772 289.799C688.766 292.341 678.851 300.546 671.668 310.214C661.714 323.606 656.532 340.144 654.634 356.58C654.403 358.621 657.61 358.608 657.841 356.58Z" fill="#262433"/>
<path d="M759.774 394.008C765.923 394.008 770.908 389.082 770.908 383.004C770.908 376.927 765.923 372 759.774 372C753.625 372 748.641 376.927 748.641 383.004C748.641 389.082 753.625 394.008 759.774 394.008Z" fill="#C0C0C0" stroke="#262433" stroke-miterlimit="10"/>
<path d="M759.774 388.936C763.089 388.936 765.777 386.281 765.777 383.004C765.777 379.728 763.089 377.072 759.774 377.072C756.459 377.072 753.771 379.728 753.771 383.004C753.771 386.281 756.459 388.936 759.774 388.936Z" fill="#F4F4F4" stroke="#262433" stroke-miterlimit="10"/>
<path d="M639.896 396.717C638.421 389.578 638.446 382.028 640.37 374.979C641.73 369.984 644.167 364.682 648.438 361.497C652.107 358.762 656.673 358.493 660.624 360.804C665.203 363.5 668.243 368.495 670.116 373.336C673.104 381.065 673.848 389.732 672.476 397.886C672.142 399.902 675.221 400.775 675.567 398.733C676.927 390.618 676.465 382.105 673.848 374.286C671.873 368.354 668.602 362.486 663.42 358.801C659.097 355.732 653.633 355.09 648.849 357.478C643.564 360.123 640.229 365.67 638.267 371.025C635.176 379.435 635.009 388.859 636.805 397.565C637.215 399.594 640.306 398.733 639.896 396.717Z" fill="#262433"/>
<path d="M635.535 426.391C635.535 426.391 643.937 436.123 657.058 428.008C670.18 419.906 673.707 404.293 674.708 395.279" stroke="#262433" stroke-miterlimit="10"/>
<path d="M634.547 427.598C636.042 427.598 637.254 426.396 637.254 424.914C637.254 423.432 636.042 422.23 634.547 422.23C633.053 422.23 631.841 423.432 631.841 424.914C631.841 426.396 633.053 427.598 634.547 427.598Z" fill="white" stroke="#262433" stroke-miterlimit="10"/>
<path d="M677.761 426.249C677.761 426.249 669.487 436.085 656.263 428.15C643.039 420.214 639.306 404.652 638.177 395.639" stroke="#262433" stroke-miterlimit="10"/>
<path d="M676.016 424.786C676.042 426.262 677.26 427.443 678.761 427.431C680.262 427.418 681.455 426.198 681.442 424.721C681.416 423.245 680.198 422.063 678.697 422.076C677.183 422.089 675.99 423.309 676.016 424.786Z" fill="white" stroke="#262433" stroke-miterlimit="10"/>
<path d="M710.135 281.722C710.135 281.722 724.629 281.453 727.092 275.418C729.554 269.396 728.464 254.604 728.464 254.604C728.464 254.604 736.391 253.641 742.137 248.505C747.884 243.369 748.974 226.395 742.137 221.195C735.301 215.995 723.257 223.66 722.436 225.034C721.628 226.408 710.135 281.722 710.135 281.722Z" fill="#262433"/>
<path d="M745.28 250.573C745.28 258.135 739.11 264.26 731.491 264.26C723.885 264.26 717.716 258.135 717.716 250.573C717.716 243.01 723.885 236.885 731.491 236.885C739.11 236.885 745.28 243.023 745.28 250.573Z" stroke="#262433" stroke-width="2" stroke-miterlimit="10"/>
<path d="M685.238 208.111H702.554C714.06 208.111 723.475 218.845 723.475 231.955V258.816C723.475 259.574 723.436 260.318 723.372 261.063C723.565 261.859 723.667 262.681 723.667 263.528V278.294C723.795 278.923 723.872 279.565 723.872 280.22L724.052 298.954C729.375 300.623 734.57 303.153 739.598 306.44L708.07 336.138L682.327 303.422C686.56 301.149 690.882 299.403 695.295 298.248C695.256 297.888 695.243 297.529 695.243 297.156V282.686H685.238C673.733 282.686 664.318 271.951 664.318 258.842V231.98C664.305 218.845 673.72 208.111 685.238 208.111Z" fill="#F4F4F4" stroke="#262433" stroke-miterlimit="10"/>
<path d="M698.95 240.737C698.95 242.894 697.206 244.64 695.051 244.64C692.896 244.64 691.152 242.894 691.152 240.737C691.152 238.58 692.896 236.834 695.051 236.834C697.206 236.834 698.95 238.58 698.95 240.737Z" fill="#262433"/>
<path d="M673.399 240.172C673.399 242.008 671.912 243.511 670.065 243.511C668.23 243.511 666.73 242.021 666.73 240.172C666.73 238.336 668.217 236.834 670.065 236.834C671.912 236.834 673.399 238.323 673.399 240.172Z" fill="#262433"/>
<path d="M678.632 238.503C678.671 242.432 678.709 246.374 678.748 250.303C678.748 250.868 678.761 251.433 678.761 251.998C678.774 253.025 680.377 253.038 680.364 251.998C680.326 248.069 680.287 244.127 680.249 240.198C680.249 239.633 680.236 239.068 680.236 238.503C680.223 237.476 678.62 237.476 678.632 238.503Z" fill="#262433"/>
<path d="M700.63 230.44C699.104 230.119 697.59 229.785 696.064 229.464C695.846 229.412 695.628 229.374 695.41 229.322C694.999 229.233 694.525 229.438 694.422 229.887C694.332 230.285 694.538 230.786 694.986 230.876C696.513 231.197 698.026 231.531 699.553 231.852C699.771 231.903 699.989 231.942 700.207 231.993C700.617 232.083 701.092 231.878 701.195 231.428C701.284 231.017 701.066 230.529 700.63 230.44Z" fill="#262433"/>
<path d="M672.732 232.956C671.18 232.918 669.628 232.879 668.076 232.841C667.858 232.841 667.627 232.828 667.409 232.828C666.986 232.815 666.588 233.2 666.601 233.637C666.627 234.086 666.948 234.433 667.409 234.446C668.961 234.484 670.513 234.523 672.065 234.561C672.283 234.561 672.514 234.574 672.732 234.574C673.156 234.587 673.553 234.202 673.54 233.765C673.515 233.316 673.181 232.969 672.732 232.956Z" fill="#262433"/>
<path d="M728.233 244.641C728.233 244.641 722.423 252.101 718.678 239.492C716.343 231.646 717.267 230.17 709.058 230.799C700.848 231.428 694.833 223.236 694.281 218.704C693.73 214.171 670.206 245.385 648.875 224.174C627.544 202.949 652.979 177.487 667.473 174.47C681.968 171.453 694.833 182.688 696.744 189.531C696.744 189.531 706.043 175.561 727.656 185.692C749.269 195.823 739.418 218.55 738.867 224.161C738.341 229.798 730.055 243.639 728.233 244.641Z" fill="#262433"/>
<path d="M745.28 250.573C745.28 258.135 739.11 264.26 731.491 264.26C723.885 264.26 717.716 258.135 717.716 250.573C717.716 243.01 723.885 236.885 731.491 236.885C739.11 236.885 745.28 243.023 745.28 250.573Z" fill="#F4F4F4"/>
<path d="M724.924 252.383C724.911 252.088 724.911 251.793 724.937 251.497C724.95 251.356 724.95 251.228 724.963 251.086C724.976 251.009 724.975 250.932 724.988 250.855C725.027 250.547 724.963 250.984 725.001 250.753C725.065 250.367 725.129 249.995 725.232 249.623C725.283 249.43 725.335 249.237 725.399 249.045C725.437 248.942 725.476 248.827 725.514 248.724C725.54 248.66 725.668 248.339 725.578 248.557C725.771 248.108 726.002 247.684 726.284 247.286C726.322 247.234 726.528 246.965 726.386 247.132C726.463 247.042 726.528 246.952 726.617 246.862C726.797 246.669 726.976 246.477 727.182 246.31C727.22 246.271 727.502 246.053 727.348 246.169C727.451 246.092 727.554 246.015 727.656 245.95C727.9 245.796 728.157 245.655 728.413 245.527C728.4 245.527 728.644 245.424 728.528 245.475C728.464 245.501 728.708 245.411 728.734 245.398C728.9 245.334 729.067 245.283 729.234 245.231C729.542 245.141 730.016 245.039 730.209 245.013C731.107 244.885 732.03 244.923 732.941 245.013C733.415 245.064 733.826 244.577 733.826 244.127C733.826 243.614 733.415 243.293 732.941 243.241C730.119 242.946 727.053 243.524 725.168 245.822C723.924 247.337 723.334 249.237 723.167 251.176C723.128 251.574 723.103 251.985 723.128 252.396C723.231 253.513 725.001 253.526 724.924 252.383Z" fill="#262433"/>
<path d="M740.444 306.992L706.774 342.7L677.658 306.183C681.583 303.653 685.598 301.586 689.702 300.032L706.89 325.391L729.465 300.97C733.197 302.562 736.853 304.578 740.444 306.992Z" fill="#8CA7F4" stroke="#262433" stroke-miterlimit="10"/>
<path d="M668.359 250.008C680.056 243.28 685.187 250.637 697.693 254.386C705.569 256.749 709.494 254.155 711.315 251.908C711.918 251.176 713.098 251.472 713.226 252.409C713.714 255.94 714.355 262.309 714.188 270.115C714.06 275.791 703.799 279.732 695.243 283.032V282.66H685.238C673.733 282.66 664.318 271.926 664.318 258.816V252.46C665.447 251.741 666.768 250.919 668.359 250.008Z" fill="white" stroke="#262433" stroke-miterlimit="10"/>
<path d="M718.408 242.304C716.574 244.756 714.74 247.209 712.906 249.661C712.649 250.008 712.38 250.354 712.123 250.714C711.867 251.061 712.072 251.613 712.405 251.818C712.816 252.062 713.239 251.882 713.509 251.536C715.343 249.083 717.177 246.631 719.011 244.178C719.268 243.832 719.537 243.485 719.794 243.125C720.05 242.779 719.845 242.227 719.511 242.021C719.101 241.777 718.678 241.957 718.408 242.304Z" fill="#262433"/>
<path d="M723.988 266.674C721.217 263.669 718.46 260.665 715.689 257.66C715.304 257.237 714.907 256.813 714.522 256.389C713.816 255.632 712.688 256.762 713.393 257.519C716.164 260.524 718.921 263.528 721.692 266.533C722.077 266.956 722.474 267.38 722.859 267.804C723.552 268.561 724.68 267.432 723.988 266.674Z" fill="#262433"/>
<path d="M710.866 240.121C710.789 246.22 707.839 252.666 702.003 255.195C696.423 257.622 690.292 255.144 686.957 250.29C683.276 244.949 682.891 237.514 685.867 231.762C688.535 226.626 694.05 222.992 699.964 224.366C706.993 226.01 710.776 233.329 710.866 240.121C710.879 241.148 712.482 241.161 712.47 240.121C712.393 233.316 708.993 226.228 702.439 223.506C696.282 220.951 689.587 223.544 685.803 228.796C681.583 234.651 681.173 242.92 684.469 249.289C687.47 255.092 693.781 258.957 700.374 257.429C708.121 255.632 712.38 247.607 712.47 240.134C712.482 239.081 710.879 239.081 710.866 240.121Z" fill="#262433"/>
<path d="M676.029 239.505C675.965 245.065 673.694 251.395 668.384 253.989C663.33 256.454 658.007 253.655 655.275 249.174C652.133 244.012 651.838 237.066 654.352 231.596C656.507 226.922 661.201 222.967 666.614 224.38C673.092 226.049 675.965 233.432 676.029 239.505C676.042 240.532 677.645 240.545 677.632 239.505C677.555 233.265 674.874 226.229 668.846 223.481C663.305 220.951 657.443 223.673 654.236 228.488C650.44 234.202 650.132 242.073 652.966 248.236C655.403 253.526 660.816 257.687 666.858 256.236C674.143 254.489 677.555 246.336 677.632 239.505C677.645 238.465 676.042 238.465 676.029 239.505Z" fill="#262433"/>
<path d="M677.042 241.572C677.221 241.495 677.414 241.443 677.606 241.392C677.811 241.328 678.029 241.289 678.248 241.238C678.376 241.212 678.504 241.187 678.632 241.174C678.696 241.161 678.838 241.148 678.696 241.161C678.786 241.148 678.863 241.135 678.953 241.135C679.261 241.11 679.581 241.097 679.889 241.097C680.236 241.11 680.518 241.135 680.762 241.187C681.454 241.315 682.057 241.546 682.596 241.957C682.942 242.227 683.391 242.291 683.724 241.957C684.007 241.675 684.071 241.084 683.724 240.827C682.39 239.8 680.762 239.389 679.094 239.517C678.26 239.582 677.388 239.723 676.606 240.031C676.208 240.185 675.926 240.57 676.041 241.02C676.17 241.405 676.644 241.739 677.042 241.572Z" fill="#262433"/>
<path d="M751.091 539.409L675.195 521.407C665.126 519.019 658.905 508.914 661.291 498.847L687.624 387.55C690.01 377.47 700.105 371.243 710.161 373.631L786.056 391.633C796.125 394.021 802.346 404.126 799.96 414.193L773.627 525.49C771.254 535.557 761.16 541.797 751.091 539.409Z" fill="#262433"/>
<path d="M724.155 503.713C724.155 503.713 656.891 467.979 649.157 454.883C641.422 441.786 675.567 466.426 675.567 466.426C675.567 466.426 650.029 451.044 652.518 444.521C654.993 437.998 681.609 458.619 681.609 458.619C681.609 458.619 653.467 438.987 656.994 434.197C660.521 429.421 687.701 451.21 687.701 451.21C687.701 451.21 658.841 431.578 662.856 425.89C666.871 420.215 694.461 442.608 694.461 442.608C694.461 442.608 679.171 426.429 683.751 423.45C688.33 420.471 712.572 448.45 745.331 465.386C778.104 482.347 724.155 503.713 724.155 503.713Z" fill="#F4F4F4" stroke="#262433" stroke-miterlimit="10"/>
<path d="M849.202 484.582C783.004 470.342 745.088 459.017 745.088 459.017L716.254 509.774C775.346 579.88 936.205 589.176 883.257 463.909L849.202 484.582Z" fill="white"/>
<path d="M883.257 463.909C936.205 589.176 775.346 579.88 716.254 509.774L745.088 459.017C745.088 459.017 784.094 471.433 849.202 484.582" stroke="#262433" stroke-miterlimit="10"/>
<path d="M760.146 463.447C751.001 460.636 745.088 459.031 745.088 459.031L716.254 509.787C720.486 514.808 725.258 519.533 730.427 523.924L760.146 463.447Z" fill="white" stroke="#262433" stroke-miterlimit="10"/>
<path d="M672.964 478.855C667.794 496.189 657.033 511.16 643.885 523.384C638.383 528.507 632.572 533.284 626.582 537.791H536.385C538.271 536.994 540.156 536.186 542.042 535.377C544.979 534.093 547.904 532.77 550.815 531.435C566.772 523.808 582.356 515.244 596.837 505.049C600.595 502.404 604.264 499.643 607.817 496.754C613.884 491.477 619.566 485.737 624.44 479.33C626.48 476.21 628.301 472.949 629.802 469.533C630.482 467.363 631.007 465.155 631.379 462.908C631.418 461.072 631.354 459.235 631.161 457.412C630.443 454.485 629.481 451.621 628.314 448.835C625.056 442.505 620.99 436.611 616.552 431.052C603.687 416.029 588.487 403.035 572.839 391.042C568.875 388.012 564.86 385.046 560.82 382.131C545.543 371.358 529.792 361.253 513.733 351.7C513.656 351.662 513.592 351.611 513.515 351.572L544.671 318.946C560.679 328.794 576.263 339.246 591.489 350.262C606.175 360.894 620.451 372.219 633.47 384.866C640.602 391.8 647.208 399.208 653.441 406.977C658.02 412.69 662.228 418.751 665.575 425.274C667.871 429.755 670.09 434.364 671.745 439.128C673.4 443.93 674.272 448.938 675.003 453.958C675.478 457.194 675.554 460.468 675.298 463.729C674.888 468.865 674.451 473.899 672.964 478.855Z" fill="#F4F4F4" stroke="#262433" stroke-miterlimit="10"/>
<path d="M504.152 297.297C504.152 297.297 586.191 311.177 656.225 389.668L605.341 439.128L545.71 405.372L504.152 297.297Z" fill="#032FF2" stroke="#262433" stroke-miterlimit="10"/>
<path d="M645.553 378.292C649.131 381.926 652.697 385.714 656.225 389.668L605.341 439.128L590.206 430.564L645.553 378.292Z" fill="#8CA7F4" stroke="#262433" stroke-miterlimit="10"/>
<path d="M300.08 478.855C305.249 496.189 316.01 511.16 329.158 523.384C334.66 528.507 340.471 533.284 346.461 537.791H436.658C434.772 536.994 432.887 536.186 431.001 535.377C428.064 534.093 425.14 532.77 422.228 531.435C406.272 523.808 390.687 515.244 376.206 505.049C372.448 502.404 368.779 499.643 365.226 496.754C359.159 491.477 353.477 485.737 348.603 479.33C346.563 476.21 344.742 472.949 343.241 469.533C342.562 467.363 342.036 465.155 341.664 462.908C341.625 461.072 341.689 459.235 341.882 457.412C342.6 454.485 343.562 451.621 344.729 448.835C347.987 442.505 352.053 436.611 356.491 431.052C369.356 416.029 384.556 403.035 400.205 391.042C404.168 388.012 408.183 385.046 412.223 382.131C427.5 371.358 443.251 361.253 459.31 351.7C459.387 351.662 459.451 351.611 459.528 351.572L428.372 318.946C412.364 328.794 396.78 339.246 381.555 350.262C366.868 360.894 352.592 372.219 339.573 384.866C332.441 391.8 325.836 399.208 319.602 406.977C315.023 412.69 310.816 418.751 307.468 425.274C305.172 429.755 302.953 434.364 301.298 439.128C299.644 443.93 298.771 448.938 298.04 453.958C297.566 457.194 297.489 460.468 297.745 463.729C298.156 468.865 298.605 473.899 300.08 478.855Z" fill="#F4F4F4" stroke="#262433" stroke-miterlimit="10"/>
<path d="M468.891 297.297C468.891 297.297 386.852 311.177 316.818 389.668L367.702 439.128L427.333 405.372L468.891 297.297Z" fill="#032FF2" stroke="#262433" stroke-miterlimit="10"/>
<path d="M327.49 378.292C323.911 381.926 320.346 385.714 316.818 389.668L367.702 439.128L382.837 430.564L327.49 378.292Z" fill="#8CA7F4" stroke="#262433" stroke-miterlimit="10"/>
<path d="M585.229 537.791C585.358 533.001 585.435 528.186 585.435 523.32C585.435 397.128 539.951 294.819 483.847 294.819C427.743 294.819 382.26 397.116 382.26 523.32C382.26 528.186 382.337 533.001 382.465 537.791H585.229Z" fill="#032FF2" stroke="#262433" stroke-miterlimit="10"/>
<path d="M403.411 399.966V429.113C403.411 437.523 410.222 444.328 418.611 444.328H429.642C438.043 444.328 444.841 437.51 444.841 429.113V399.966H403.411Z" fill="#032FF2" stroke="#262433" stroke-miterlimit="10"/>
<path d="M444.841 399.966H403.411V410.777H444.841V399.966Z" fill="#8CA7F4" stroke="#262433" stroke-miterlimit="10"/>
<path d="M432.707 356.901C434.349 342.507 438.633 328.152 446.406 315.838C452.614 306.003 461.478 297.105 472.739 293.42C482.937 290.094 493.801 291.75 502.895 297.31C513.246 303.64 520.685 313.938 525.778 324.762C532.935 339.965 535.718 357.029 535.295 373.747C535.244 375.814 538.45 375.814 538.502 373.747C538.912 357.941 536.449 341.891 530.357 327.24C525.419 315.389 518.056 304.18 507.551 296.565C498.303 289.863 486.772 286.871 475.51 289.324C463.504 291.943 453.653 300.225 446.522 309.932C436.543 323.529 431.373 340.26 429.475 356.875C429.27 358.942 432.476 358.929 432.707 356.901Z" fill="#262433"/>
<path d="M538.695 394.052C544.42 391.806 547.241 385.339 544.997 379.608C542.752 373.878 536.292 371.054 530.568 373.3C524.843 375.547 522.022 382.014 524.266 387.744C526.51 393.475 532.971 396.299 538.695 394.052Z" fill="#C0C0C0" stroke="#262433" stroke-miterlimit="10"/>
<path d="M540.631 383.659C540.631 386.972 537.95 389.668 534.628 389.668C531.306 389.668 528.625 386.985 528.625 383.659C528.625 380.346 531.306 377.65 534.628 377.65C537.95 377.65 540.631 380.346 540.631 383.659Z" fill="#F4F4F4" stroke="#262433" stroke-miterlimit="10"/>
<path d="M418.521 396.268C417.072 389.168 417.072 381.656 418.893 374.607C420.24 369.407 422.69 363.821 427.128 360.509C430.758 357.799 435.273 357.517 439.185 359.815C443.879 362.576 446.932 367.738 448.805 372.707C451.755 380.513 452.486 389.232 451.114 397.462C450.78 399.478 453.871 400.351 454.205 398.31C455.564 390.143 455.103 381.566 452.537 373.67C450.562 367.609 447.266 361.562 441.981 357.812C437.607 354.705 432.015 354.101 427.23 356.657C422.01 359.443 418.752 365.015 416.828 370.408C413.788 378.883 413.634 388.359 415.43 397.116C415.84 399.144 418.931 398.284 418.521 396.268Z" fill="#262433"/>
<path d="M414.16 426.326C414.16 426.326 422.574 436.188 435.696 427.97C448.831 419.752 452.371 403.946 453.371 394.804" stroke="#262433" stroke-miterlimit="10"/>
<path d="M415.892 424.824C415.892 426.326 414.673 427.533 413.185 427.533C411.684 427.533 410.479 426.313 410.479 424.824C410.479 423.322 411.697 422.115 413.185 422.115C414.673 422.115 415.892 423.335 415.892 424.824Z" fill="white" stroke="#262433" stroke-miterlimit="10"/>
<path d="M456.424 426.172C456.424 426.172 448.138 436.136 434.901 428.098C421.664 420.048 417.918 404.293 416.802 395.164" stroke="#262433" stroke-miterlimit="10"/>
<path d="M454.667 424.708C454.692 426.211 455.911 427.405 457.411 427.392C458.912 427.366 460.105 426.147 460.092 424.644C460.079 423.142 458.848 421.948 457.347 421.961C455.847 421.974 454.654 423.206 454.667 424.708Z" fill="white" stroke="#262433" stroke-miterlimit="10"/>
<path d="M484.206 334.931L508.859 301.817C504.742 299.467 500.535 297.683 496.238 296.514L496.405 278.589C496.456 272.388 491.441 267.265 485.245 267.213L480.448 267.175C474.253 267.123 469.135 272.144 469.084 278.346L468.917 297.31C463.825 299.005 458.848 301.56 454.025 304.886L484.206 334.931Z" fill="#F4F4F4" stroke="#262433" stroke-miterlimit="10"/>
<path d="M453.191 305.425L485.438 341.57L513.323 304.603C509.565 302.048 505.717 299.955 501.792 298.376L485.335 324.043L463.722 299.313C460.131 300.944 456.629 302.986 453.191 305.425Z" fill="#8CA7F4" stroke="#262433" stroke-miterlimit="10"/>
<path d="M520.865 244.024C520.865 244.024 531.344 230.144 526.675 211.321C522.007 192.497 487.003 182.713 482.808 183.882C478.614 185.05 462.619 185.846 462.619 185.846C462.619 185.846 443.456 185.769 440.968 204.618C438.492 223.467 446.894 245.526 447.522 248.544C448.151 251.561 509 264.953 520.865 244.024Z" fill="#262433"/>
<path d="M533.32 249.276C533.486 254.836 529.087 259.497 523.482 259.663C517.876 259.83 513.195 255.465 513.028 249.892C512.861 244.332 517.261 239.672 522.866 239.505C528.471 239.338 533.153 243.703 533.32 249.276Z" fill="#F4F4F4" stroke="#262433" stroke-miterlimit="10"/>
<path d="M518.505 251.086C518.479 250.868 518.492 250.65 518.492 250.444C518.492 250.213 518.518 249.982 518.543 249.751C518.556 249.661 518.531 249.494 518.543 249.738C518.543 249.674 518.569 249.597 518.582 249.533C518.608 249.378 518.633 249.224 518.672 249.07C518.749 248.749 518.838 248.441 518.954 248.146C519.031 247.94 518.89 248.274 518.98 248.082C519.018 248.005 519.044 247.94 519.082 247.863C519.172 247.696 519.262 247.53 519.364 247.363C519.403 247.298 519.454 247.221 519.505 247.157C519.634 246.977 519.428 247.247 519.57 247.08C519.711 246.926 519.839 246.772 519.993 246.631C520.057 246.567 520.121 246.515 520.198 246.464C520.326 246.348 520.095 246.541 520.185 246.477C520.224 246.451 520.262 246.425 520.301 246.4C520.48 246.271 520.66 246.169 520.865 246.066C520.904 246.04 520.955 246.027 520.993 246.002C521.032 245.989 521.07 245.963 521.109 245.95C521.019 245.989 521.006 245.989 521.096 245.963C521.211 245.925 521.327 245.873 521.455 245.835C521.712 245.758 521.981 245.693 522.25 245.642C522.263 245.642 522.507 245.604 522.327 245.629C522.404 245.616 522.481 245.616 522.545 245.604C522.699 245.591 522.853 245.578 523.02 245.578C523.392 245.565 523.764 245.578 524.136 245.604C524.559 245.629 524.918 245.218 524.918 244.82C524.918 244.371 524.559 244.063 524.136 244.037C521.917 243.87 519.659 244.435 518.261 246.271C517.402 247.401 517.03 248.839 516.953 250.239C516.94 250.534 516.927 250.829 516.953 251.112C516.991 251.536 517.286 251.895 517.735 251.895C518.107 251.869 518.543 251.51 518.505 251.086Z" fill="#0C0C0C"/>
<path d="M433.721 250.701C433.887 256.261 438.569 260.639 444.174 260.472C449.78 260.305 454.192 255.644 454.012 250.085C453.846 244.525 449.164 240.147 443.559 240.313C437.966 240.493 433.554 245.141 433.721 250.701Z" fill="#F4F4F4" stroke="#262433" stroke-miterlimit="10"/>
<path d="M450.19 251.561C450.28 248.968 448.946 246.246 446.47 245.244C445.188 244.718 443.777 244.73 442.43 244.923C442.007 244.974 441.776 245.514 441.878 245.886C442.007 246.335 442.417 246.49 442.84 246.438C443.867 246.297 444.829 246.335 445.778 246.669C445.829 246.682 446.111 246.811 445.945 246.733C446.034 246.772 446.124 246.823 446.214 246.862C446.406 246.965 446.586 247.08 446.765 247.196C446.945 247.324 446.701 247.132 446.868 247.273C446.932 247.337 447.009 247.388 447.073 247.453C447.214 247.581 447.33 247.722 447.458 247.863C447.484 247.902 447.509 247.928 447.535 247.966C447.42 247.812 447.484 247.889 447.509 247.928C447.561 248.005 447.612 248.069 447.65 248.133C447.753 248.287 447.843 248.441 447.933 248.608C447.971 248.685 448.01 248.749 448.035 248.826C448.061 248.878 448.163 249.135 448.074 248.903C448.138 249.058 448.189 249.212 448.24 249.366C448.33 249.648 448.407 249.931 448.471 250.213C448.497 250.342 448.523 250.47 448.535 250.585C448.548 250.675 448.625 250.842 448.535 250.585C448.548 250.637 448.548 250.714 448.561 250.765C448.587 251.022 448.612 251.292 448.6 251.561C448.587 252.576 450.152 252.563 450.19 251.561Z" fill="#0C0C0C"/>
<path d="M451.46 257.314C451.588 270.141 462.183 280.528 474.997 280.4L492.556 280.22C505.37 280.092 515.747 269.486 515.619 256.659L515.234 218.242C515.106 205.414 504.511 195.027 491.697 195.155L474.137 195.335C461.323 195.463 450.947 206.069 451.075 218.896L451.46 257.314Z" fill="#F4F4F4" stroke="#262433" stroke-miterlimit="10"/>
<path d="M485.681 236.076C485.643 240.005 485.604 243.947 485.566 247.876C485.566 248.441 485.553 249.006 485.553 249.571C485.54 250.598 487.143 250.611 487.156 249.571C487.195 245.642 487.233 241.7 487.272 237.771C487.272 237.206 487.284 236.641 487.284 236.076C487.297 235.049 485.694 235.049 485.681 236.076Z" fill="#262433"/>
<path d="M459.746 231.184C461.195 230.619 462.632 230.041 464.081 229.476C464.287 229.399 464.505 229.31 464.71 229.233C465.095 229.078 465.415 228.693 465.274 228.244C465.146 227.871 464.71 227.525 464.287 227.679C462.837 228.244 461.401 228.822 459.951 229.387C459.746 229.464 459.528 229.553 459.323 229.631C458.938 229.785 458.617 230.17 458.758 230.619C458.887 231.004 459.335 231.351 459.746 231.184Z" fill="#262433"/>
<path d="M501.471 231.287C503.023 231.248 504.575 231.21 506.127 231.171C506.345 231.171 506.576 231.159 506.794 231.159C507.217 231.146 507.615 230.799 507.602 230.35C507.589 229.926 507.256 229.541 506.794 229.541C505.242 229.579 503.69 229.618 502.138 229.656C501.92 229.656 501.689 229.669 501.471 229.669C501.048 229.682 500.65 230.029 500.663 230.478C500.689 230.902 501.022 231.287 501.471 231.287Z" fill="#262433"/>
<path d="M500.432 236.962C500.522 239.017 502.254 240.609 504.306 240.519C506.358 240.429 507.949 238.696 507.859 236.641C507.769 234.587 506.037 232.995 503.985 233.084C501.933 233.174 500.342 234.908 500.432 236.962Z" fill="#0C0C0C"/>
<path d="M461.093 236.962C461.182 239.017 462.914 240.609 464.966 240.519C467.019 240.429 468.609 238.696 468.519 236.641C468.43 234.587 466.698 232.995 464.646 233.084C462.593 233.174 461.003 234.908 461.093 236.962Z" fill="#0C0C0C"/>
<path d="M515.555 248.634C510.309 253.141 501.458 256.312 495.404 247.928C490.286 240.827 481.128 240.159 471.239 248.57C462.683 255.837 453.153 249.468 451.37 248.159L451.46 257.327C451.588 270.154 462.183 280.541 474.997 280.413L492.557 280.233C505.37 280.105 515.747 269.499 515.619 256.672L515.555 248.634Z" fill="white" stroke="#262433" stroke-miterlimit="10"/>
<path d="M445.675 201.716C447.92 198.571 455.885 193.358 462.106 190.61C460.811 161.681 538.13 145.297 521.878 186.989C521.878 186.989 547.416 176.113 551.7 188.915C562.116 220.065 487.785 229.836 466.749 202.204C462.337 203.848 456.898 207.032 455.821 212.887C453.948 223.044 451.332 245.501 451.332 245.501C451.332 245.501 450.087 240.082 447.971 235.55C445.88 231.004 442.43 206.262 445.675 201.716Z" fill="#262433"/>
</g>
<defs>
<clipPath id="clip0_1_4">
<rect width="962" height="642" fill="white"/>
</clipPath>
</defs>
</svg>
