<svg width="674" height="477" viewBox="0 0 674 477" fill="none" xmlns="http://www.w3.org/2000/svg">
<g clip-path="url(#clip0_1_281)">
<path opacity="0.1" d="M224.077 476.732C256.9 476.732 283.509 472.462 283.509 467.195C283.509 461.928 256.9 457.658 224.077 457.658C191.254 457.658 164.645 461.928 164.645 467.195C164.645 472.462 191.254 476.732 224.077 476.732Z" fill="#6C63FF"/>
<path opacity="0.1" d="M547.14 477C588.098 477 621.302 472.73 621.302 467.463C621.302 462.196 588.098 457.926 547.14 457.926C506.182 457.926 472.978 462.196 472.978 467.463C472.978 472.73 506.182 477 547.14 477Z" fill="#6C63FF"/>
<path opacity="0.1" d="M8.4416 206.098H70.3437V290.396H12.9734C12.8209 291.262 12.6745 292.133 12.5159 293.005H70.3437V360.989C70.24 360.958 70.1485 360.922 70.0509 360.885C68.4163 360.239 66.7939 359.557 65.1714 358.826L64.1346 358.356C62.5081 357.588 60.8816 356.776 59.2551 355.919C58.6879 355.62 58.1206 355.309 57.5595 354.992C48.5299 349.939 40.3271 343.535 33.2354 336.004C33.028 335.803 32.8328 335.589 32.6254 335.394C31.6373 334.322 30.6675 333.237 29.7283 332.128L28.6914 330.909C27.5813 329.55 26.5078 328.155 25.4648 326.741C25.3123 326.534 25.166 326.326 25.0074 326.131C20.7656 320.255 17.2435 313.892 14.5165 307.179C14.4311 306.978 14.3579 306.759 14.2787 306.57C13.441 304.417 12.6989 302.243 12.0524 300.049C11.7718 299.129 11.5035 298.221 11.2717 297.264C11.1863 296.984 11.1131 296.71 11.046 296.435C7.58159 282.925 7.17294 268.891 7.17294 254.954C7.17294 253.327 7.17294 251.693 7.17294 250.079C7.17294 244.442 7.24003 238.768 7.33762 233.101C7.33762 231.632 7.39861 230.17 7.42911 228.695C7.5145 224.953 7.63649 221.211 7.79507 217.47C7.83167 216.428 7.88046 215.392 7.93535 214.356C7.93535 213.758 7.96585 213.161 8.02684 212.564C8.17323 210.395 8.29521 208.243 8.4416 206.098Z" fill="#6C63FF"/>
<path opacity="0.1" d="M70.3433 112.239H36.3884C41.9079 103.607 47.9387 95.3127 54.4485 87.3997C59.4926 81.2083 64.8173 75.1752 70.3433 69.3616V112.239Z" fill="#6C63FF"/>
<path opacity="0.1" d="M70.3435 114.847V203.49H8.63663C8.63663 203.234 8.67933 202.972 8.69763 202.716C8.75252 202.015 8.80741 201.315 8.86841 200.62C8.9355 199.803 9.00869 198.981 9.08798 198.182C9.16727 197.384 9.25267 196.409 9.34416 195.525C9.43565 194.642 9.52104 193.746 9.62472 192.862C9.72841 191.979 9.8199 191.095 9.92969 190.217C10.0395 189.34 10.1371 188.45 10.253 187.573C10.3444 186.841 10.442 186.116 10.5396 185.385C10.6799 184.355 10.8263 183.319 10.9849 182.295C10.9849 182.143 11.0276 181.984 11.052 181.838C12.1652 174.344 13.6821 166.914 15.596 159.583C17.5993 151.892 20.1576 144.357 23.2506 137.035C26.5379 129.376 30.3869 121.97 34.7661 114.878L70.3435 114.847Z" fill="#6C63FF"/>
<path opacity="0.1" d="M85.1225 206.092V290.396H217.338V206.092H85.1225ZM85.1225 292.998V365.395C85.8788 365.553 86.629 365.706 87.3731 365.834C88.3856 366.029 89.392 366.205 90.4228 366.358C90.618 366.388 90.8192 366.419 91.0327 366.437C91.4353 366.504 91.85 366.559 92.2526 366.614C93.2712 366.754 94.2837 366.87 95.3023 366.961C95.7841 367.01 96.272 367.052 96.76 367.089L97.9372 367.18C98.5776 367.229 99.2119 367.266 99.8401 367.284C100.23 367.284 100.621 367.321 101.023 367.333C101.328 367.333 101.633 367.333 101.951 367.333C102.268 367.333 102.719 367.333 103.103 367.333C103.628 367.333 104.152 367.333 104.671 367.333H105.372C105.897 367.333 106.421 367.333 106.94 367.284H106.976C107.336 367.284 107.702 367.284 108.068 367.235C108.17 367.241 108.272 367.241 108.373 367.235C108.678 367.235 108.983 367.235 109.276 367.193H109.489L111.533 367.034C112.203 366.973 112.881 366.894 113.564 366.821L114.954 366.656C120.612 365.864 126.207 364.675 131.697 363.097C144.03 359.66 156.094 354.852 168.421 351.33C184.359 346.79 201.967 344.56 217.368 350.111V292.998H85.1225ZM217.338 112.239V0.00609026C202.862 -0.1506 188.426 1.54097 174.38 5.03972C140.901 13.4433 110.862 31.6704 85.1225 54.9494V112.233H91.7585V114.835H85.1225V203.49H217.338V114.841H119.004V112.239H217.338ZM387.161 74.3282C378.878 74.0357 370.644 71.4153 363.197 67.3689C348.955 59.6296 337.58 47.6793 324.869 37.5937C298.459 16.5878 265.705 3.91233 232.104 0.767837V112.239H420.848L421.317 111.745L387.161 74.3282ZM404.355 71.2812L422.586 91.2695V66.0404C416.481 66.7961 411.131 68.5938 404.379 71.2569L404.355 71.2812ZM422.586 383.372V292.998H383.739C383.636 292.614 383.532 292.224 383.41 291.834C383.526 292.224 383.624 292.614 383.733 292.998H232.128V358.356C233.568 359.423 234.989 360.544 236.398 361.684C237.917 362.902 239.417 364.188 240.924 365.45L242.442 366.705C243.168 367.314 243.9 367.924 244.638 368.497C246.102 369.683 247.58 370.853 249.072 372.007C249.81 372.616 250.567 373.165 251.317 373.737C263.227 382.836 275.791 391.046 288.907 398.302C291.847 399.927 294.813 401.514 297.806 403.062C299.8 404.079 301.807 405.091 303.82 406.072C306.845 407.547 309.895 408.969 312.969 410.338C341.31 423.049 371.279 431.771 402.019 436.256C408.846 437.263 415.7 438.055 422.58 438.632V383.366H423.19L422.586 383.372ZM232.128 114.841V203.49H422.61V114.841H232.128ZM232.128 206.092V290.396H422.61V206.092H232.128ZM437.395 65.9307V94.0727L460.664 68.5633C452.955 67.3202 445.198 66.4325 437.395 65.9003V65.9307ZM437.395 206.123V290.396H622.662V206.092L437.395 206.123ZM621.985 390.063L622.638 292.998H437.395V439.601C449.328 440.102 461.28 439.96 473.198 439.175H473.406C479.098 438.817 484.765 438.297 490.404 437.615H490.532C520.621 434.116 550.042 426.272 577.875 414.329L621.985 390.063ZM658.386 219.974C657.691 218.335 656.965 216.708 656.227 215.099C654.848 212.052 653.391 209.09 651.89 206.129H637.435V290.396H673.982C673.964 266.532 667.919 242.156 658.404 219.944L658.386 219.974ZM637.435 293.029V376.516C647.73 366.656 656.428 355.376 662.692 342.482C670.225 326.954 673.671 310.141 673.951 293.017L637.435 293.029ZM637.435 181.558V203.496H650.536C646.573 195.944 642.205 188.611 637.453 181.527L637.435 181.558ZM511.789 82.4698C510.825 82.1042 509.861 81.7324 508.891 81.3729C498.663 77.5991 488.212 74.4608 477.596 71.976L441.988 111.02L441.305 111.745L441.762 112.245H568.494C550.844 100.106 531.815 90.101 511.807 82.4393L511.789 82.4698ZM572.209 114.871H439.993L437.395 117.248V203.49H460.17H460.207H622.687V161.716C607.989 143.955 591.024 128.196 572.227 114.841L572.209 114.871Z" fill="#6C63FF"/>
<path opacity="0.1" d="M70.3435 159.559V203.49H8.63663C8.63663 203.234 8.67933 202.972 8.69763 202.716C8.75252 202.015 8.80741 201.315 8.86841 200.62C8.9355 199.803 9.00869 198.981 9.08798 198.182C9.16727 197.384 9.25267 196.409 9.34416 195.525C9.43565 194.642 9.52104 193.746 9.62472 192.862C9.72841 191.979 9.8199 191.095 9.92969 190.217C10.0395 189.34 10.1371 188.45 10.253 187.573C10.3444 186.841 10.442 186.116 10.5396 185.385C10.6799 184.355 10.8263 183.319 10.9849 182.295C10.9849 182.143 11.0276 181.984 11.052 181.838C12.1652 174.344 13.6821 166.914 15.596 159.583L70.3435 159.559Z" fill="#6C63FF"/>
<path opacity="0.1" d="M8.4416 206.098H70.3437V290.396H12.9734C12.8209 291.262 12.6745 292.133 12.5159 293.005H70.3437V360.989C70.24 360.958 70.1485 360.922 70.0509 360.885C68.4163 360.239 66.7939 359.557 65.1714 358.826L64.1346 358.356C62.5081 357.588 60.8816 356.776 59.2551 355.919C58.6879 355.62 58.1206 355.309 57.5595 354.992C48.5299 349.939 40.3271 343.535 33.2354 336.004C33.028 335.803 32.8328 335.589 32.6254 335.394C31.6373 334.322 30.6675 333.237 29.7283 332.128L28.6914 330.909C27.5813 329.55 26.5078 328.155 25.4648 326.741C25.3123 326.534 25.166 326.326 25.0074 326.131C20.7656 320.255 17.2435 313.892 14.5165 307.179C14.4311 306.978 14.3579 306.759 14.2787 306.57C13.441 304.417 12.6989 302.243 12.0524 300.049C11.7718 299.129 11.5035 298.221 11.2717 297.264C11.1863 296.984 11.1131 296.71 11.046 296.435C7.58159 282.925 7.17294 268.891 7.17294 254.954C7.17294 253.327 7.17294 251.693 7.17294 250.079C7.17294 244.442 7.24003 238.768 7.33762 233.101C7.33762 231.632 7.39861 230.17 7.42911 228.695C7.5145 224.953 7.63649 221.211 7.79507 217.47C7.83167 216.428 7.88046 215.392 7.93535 214.356C7.93535 213.758 7.96585 213.161 8.02684 212.564C8.17323 210.395 8.29521 208.243 8.4416 206.098Z" fill="#6C63FF"/>
<path opacity="0.1" d="M131.666 127.535V203.49H85.1225V127.535H91.7585V101.818H118.998V127.535H131.666Z" fill="#6C63FF"/>
<path opacity="0.1" d="M131.666 206.092H85.128V290.39H131.666V206.092Z" fill="#6C63FF"/>
<path opacity="0.1" d="M85.1225 293.004H131.666V363.085C126.176 364.661 120.581 365.849 114.924 366.638L113.533 366.809C112.85 366.888 112.173 366.955 111.502 367.022C110.831 367.089 110.136 367.138 109.459 367.18H109.245C108.953 367.18 108.635 367.217 108.349 367.223H108.038C107.672 367.223 107.306 367.26 106.94 367.272C106.421 367.302 105.903 367.308 105.372 367.314C105.147 367.314 104.933 367.314 104.707 367.314C104.183 367.314 103.664 367.314 103.14 367.314H101.987C101.676 367.314 101.377 367.314 101.054 367.314L99.8767 367.272C99.2668 367.272 98.6081 367.205 97.9737 367.162L96.8027 367.077L95.3449 366.943C94.3203 366.851 93.3017 366.736 92.2953 366.595L91.0754 366.425L90.4655 366.339C89.4469 366.181 88.4405 366.01 87.4158 365.815C86.6656 365.687 85.9215 365.529 85.1652 365.377L85.1225 293.004Z" fill="#6C63FF"/>
<path opacity="0.1" d="M422.61 118.564H384.233V203.484H422.61V118.564Z" fill="#6C63FF"/>
<path opacity="0.1" d="M422.616 206.092V290.396H232.128V254.034H333.59V275.484H384.233V206.092H422.616Z" fill="#6C63FF"/>
<path opacity="0.1" d="M423.22 383.39H422.61V438.693C415.738 438.112 408.887 437.322 402.055 436.323C371.3 431.824 341.319 423.083 312.969 410.35C304.783 406.669 296.765 402.651 288.913 398.296C275.797 391.036 263.231 382.826 251.317 373.731C248.324 371.44 245.37 369.096 242.454 366.699C240.435 365.035 238.429 363.329 236.398 361.672C234.989 360.532 233.568 359.411 232.128 358.338V293.005H383.727C383.623 292.615 383.519 292.225 383.41 291.841C383.526 292.225 383.635 292.615 383.739 293.005H422.61V383.354C422.817 383.36 423.019 383.378 423.22 383.39Z" fill="#6C63FF"/>
<path opacity="0.1" d="M522.7 112.239H497.693V104.475H508.903V81.3485C509.875 81.702 510.843 82.0656 511.806 82.4393V104.475H522.7V112.239Z" fill="#6C63FF"/>
<path opacity="0.1" d="M582.949 203.49H460.182C460.182 203.49 460.182 203.49 460.225 203.521L460.17 203.49H437.395V118.571H443.848V181.339H473.338V144.165H497.699V114.847H522.706V144.19H547.067V181.363H582.949V203.49Z" fill="#6C63FF"/>
<path opacity="0.1" d="M437.395 206.092V290.396H582.949V206.092H437.395ZM622.461 389.631L622.662 322.902H582.949V293.041H437.395V439.601C449.328 440.102 461.28 439.96 473.198 439.175H473.405C479.098 438.817 484.764 438.297 490.404 437.615H490.532C520.62 434.116 550.041 426.273 577.874 414.33" fill="#6C63FF"/>
<path opacity="0.1" d="M640.021 293.004H673.976C673.677 310.122 670.237 326.936 662.71 342.463C656.446 355.364 647.742 366.644 637.459 376.498V322.871H640.021V293.004Z" fill="#6C63FF"/>
<path opacity="0.1" d="M673.994 290.396H640.02V219.944H658.404C667.919 242.156 673.963 266.532 673.994 290.396Z" fill="#6C63FF"/>
<path opacity="0.1" d="M422.616 142.172H402.056V168.797H422.616V142.172Z" fill="#6C63FF"/>
<path opacity="0.1" d="M422.616 197.36H402.056V203.49H422.616V197.36Z" fill="#6C63FF"/>
<path opacity="0.1" d="M422.616 206.092H402.056V223.978H422.616V206.092Z" fill="#6C63FF"/>
<path opacity="0.1" d="M422.616 252.547H402.056V279.171H422.616V252.547Z" fill="#6C63FF"/>
<path opacity="0.1" d="M422.616 307.734H402.056V334.358H422.616V307.734Z" fill="#6C63FF"/>
<path opacity="0.1" d="M422.61 383.354C422.818 383.354 423.019 383.354 423.22 383.39H422.61V389.576H402.056V362.921H422.61V383.354Z" fill="#6C63FF"/>
<path opacity="0.1" d="M422.61 418.096V438.663C415.739 438.082 408.887 437.292 402.056 436.292V418.096H422.61Z" fill="#6C63FF"/>
<path opacity="0.1" d="M320.245 288.44H232.128V290.396H320.245V288.44Z" fill="#6C63FF"/>
<path opacity="0.1" d="M320.245 292.998H232.128V300.494H320.245V292.998Z" fill="#6C63FF"/>
<path opacity="0.1" d="M320.245 325.065H232.128V337.119H320.245V325.065Z" fill="#6C63FF"/>
<path opacity="0.1" d="M320.239 361.69V373.744H251.316C248.324 371.46 245.367 369.116 242.448 366.711C240.429 365.047 238.428 363.341 236.391 361.69H320.239Z" fill="#6C63FF"/>
<path opacity="0.1" d="M320.239 398.308V410.35H312.963C304.786 406.665 296.769 402.645 288.913 398.29L320.239 398.308Z" fill="#6C63FF"/>
<path opacity="0.1" d="M490.551 214.264H473.204V231.595H490.551V214.264Z" fill="#6C63FF"/>
<path opacity="0.1" d="M114.966 133.513H97.62V150.844H114.966V133.513Z" fill="#6C63FF"/>
<path opacity="0.1" d="M114.966 173.77H97.62V191.101H114.966V173.77Z" fill="#6C63FF"/>
<path opacity="0.1" d="M114.966 214.027H97.62V231.358H114.966V214.027Z" fill="#6C63FF"/>
<path opacity="0.1" d="M114.966 254.277H97.62V271.609H114.966V254.277Z" fill="#6C63FF"/>
<path opacity="0.1" d="M114.966 294.534H97.62V311.865H114.966V294.534Z" fill="#6C63FF"/>
<path opacity="0.1" d="M114.966 334.791H97.62V352.122H114.966V334.791Z" fill="#6C63FF"/>
<path opacity="0.1" d="M556.771 214.264H539.424V231.595H556.771V214.264Z" fill="#6C63FF"/>
<path opacity="0.1" d="M490.551 257.013H473.204V274.345H490.551V257.013Z" fill="#6C63FF"/>
<path opacity="0.1" d="M556.771 257.013H539.424V274.345H556.771V257.013Z" fill="#6C63FF"/>
<path opacity="0.1" d="M490.551 299.757H473.204V317.088H490.551V299.757Z" fill="#6C63FF"/>
<path opacity="0.1" d="M556.771 299.757H539.424V317.088H556.771V299.757Z" fill="#6C63FF"/>
<path opacity="0.1" d="M490.551 342.506H473.204V359.837H490.551V342.506Z" fill="#6C63FF"/>
<path opacity="0.1" d="M556.771 342.506H539.424V359.837H556.771V342.506Z" fill="#6C63FF"/>
<path opacity="0.1" d="M490.551 385.255H473.204V402.586H490.551V385.255Z" fill="#6C63FF"/>
<path opacity="0.1" d="M556.771 385.255H539.424V402.586H556.771V385.255Z" fill="#6C63FF"/>
<path opacity="0.1" d="M473.204 439.175V427.998H490.544V437.584L473.204 439.175Z" fill="#6C63FF"/>
<path opacity="0.1" d="M10.9788 181.826V191.741H70.3436V181.826H10.9788ZM16.8952 191.119H12.0523V182.435H16.9318L16.8952 191.119ZM22.8054 191.119H17.926V182.435H22.8054V191.119ZM28.7035 191.119H23.824V182.435H28.7035V191.119ZM34.6137 191.119H29.7404V182.435H34.6198L34.6137 191.119ZM40.5179 191.119H35.6384V182.435H40.5179V191.119ZM46.4281 191.119H41.5486V182.435H46.4281V191.119ZM52.3384 191.119H47.4589V182.435H52.3384V191.119ZM58.2425 191.119H53.363V182.435H58.2425V191.119ZM64.1467 191.119H59.2672V182.435H64.1467V191.119ZM70.0508 191.119H65.1713V182.435H70.0508V191.119Z" fill="#6C63FF"/>
<path opacity="0.1" d="M10.9788 210.675V220.59H70.3436V210.675H10.9788ZM16.8952 219.962H12.0523V211.303H16.9318L16.8952 219.962ZM22.8054 219.962H17.926V211.303H22.8054V219.962ZM28.7035 219.962H23.824V211.303H28.7035V219.962ZM34.6137 219.962H29.7404V211.303H34.6198L34.6137 219.962ZM40.5179 219.962H35.6384V211.303H40.5179V219.962ZM46.4281 219.962H41.5486V211.303H46.4281V219.962ZM52.3384 219.962H47.4589V211.303H52.3384V219.962ZM58.2425 219.962H53.363V211.303H58.2425V219.962ZM64.1467 219.962H59.2672V211.303H64.1467V219.962ZM70.0508 219.962H65.1713V211.303H70.0508V219.962Z" fill="#6C63FF"/>
<path opacity="0.1" d="M10.9788 239.536V249.469H70.3436V239.536H10.9788ZM16.8952 248.823H12.0523V240.158H16.9318L16.8952 248.823ZM22.8054 248.823H17.926V240.158H22.8054V248.823ZM28.7035 248.823H23.824V240.158H28.7035V248.823ZM34.6137 248.823H29.7404V240.158H34.6198L34.6137 248.823ZM40.5179 248.823H35.6384V240.158H40.5179V248.823ZM46.4281 248.823H41.5486V240.158H46.4281V248.823ZM52.3384 248.823H47.4589V240.158H52.3384V248.823ZM58.2425 248.823H53.363V240.158H58.2425V248.823ZM64.1467 248.823H59.2672V240.158H64.1467V248.823ZM70.0508 248.823H65.1713V240.158H70.0508V248.823Z" fill="#6C63FF"/>
<path opacity="0.1" d="M10.9788 268.397V278.3H70.3436V268.397H10.9788ZM16.8952 277.684H12.0523V269.013H16.9318L16.8952 277.684ZM22.8054 277.684H17.926V269.013H22.8054V277.684ZM28.7035 277.684H23.824V269.013H28.7035V277.684ZM34.6137 277.684H29.7404V269.013H34.6198L34.6137 277.684ZM40.5179 277.684H35.6384V269.013H40.5179V277.684ZM46.4281 277.684H41.5486V269.013H46.4281V277.684ZM52.3384 277.684H47.4589V269.013H52.3384V277.684ZM58.2425 277.684H53.363V269.013H58.2425V277.684ZM64.1467 277.684H59.2672V269.013H64.1467V277.684ZM70.0508 277.684H65.1713V269.013H70.0508V277.684Z" fill="#6C63FF"/>
<path opacity="0.1" d="M11.235 297.252C11.4728 298.184 11.7412 299.117 12.0218 300.037V297.874H16.9012V306.539H14.2907C14.37 306.74 14.4493 306.96 14.5286 307.149H70.3435V297.252H11.235ZM22.8237 306.539H17.9442V297.874H22.8237V306.539ZM28.7217 306.539H23.8423V297.874H28.7217V306.539ZM34.632 306.539H29.7403V297.874H34.6198L34.632 306.539ZM40.5361 306.539H35.6567V297.874H40.5361V306.539ZM46.4464 306.539H41.5669V297.874H46.4464V306.539ZM52.3566 306.539H47.4772V297.874H52.3566V306.539ZM58.2608 306.539H53.3813V297.874H58.2608V306.539ZM64.1649 306.539H59.2855V297.874H64.1649V306.539ZM70.0691 306.539H65.1896V297.874H70.0691V306.539Z" fill="#6C63FF"/>
<path opacity="0.1" d="M25.0198 326.113C25.1722 326.308 25.3186 326.527 25.4772 326.722H28.7037V330.885C29.0514 331.299 29.393 331.713 29.7467 332.103V326.698H34.6262V335.394H32.65C32.8452 335.595 33.0343 335.809 33.2599 336.004H70.3622V326.113H25.0198ZM40.5181 335.394H35.6387V326.735H40.5181V335.394ZM46.4284 335.394H41.5489V326.735H46.4284V335.394ZM52.3386 335.394H47.4592V326.735H52.3386V335.394ZM58.2428 335.394H53.3633V326.735H58.2428V335.394ZM64.1469 335.394H59.2675V326.735H64.1469V335.394ZM70.0511 335.394H65.1716V326.735H70.0511V335.394Z" fill="#6C63FF"/>
<path opacity="0.1" d="M57.5835 354.968C58.1386 355.285 58.7058 355.577 59.2791 355.894V355.59H64.1586V358.332L65.1955 358.813V355.59H70.075V360.861C70.1685 360.907 70.2666 360.944 70.3677 360.971V354.968H57.5835Z" fill="#6C63FF"/>
<path opacity="0.1" d="M460.182 203.49H460.218H460.182ZM422.61 383.348H423.22H422.61ZM383.409 291.835C383.525 292.225 383.623 292.615 383.733 292.998C383.635 292.615 383.531 292.225 383.409 291.835ZM460.182 203.472H460.218H460.182ZM91.7823 112.221V114.823H119.028V112.221H91.7823ZM422.61 383.348H423.22H422.61ZM383.409 291.835C383.525 292.225 383.623 292.615 383.733 292.998C383.635 292.615 383.531 292.225 383.409 291.835ZM460.182 203.472H460.218H460.182ZM422.61 383.329H423.22H422.61ZM383.409 291.835C383.525 292.225 383.623 292.615 383.733 292.998C383.635 292.615 383.531 292.225 383.409 291.835Z" fill="#6C63FF"/>
<path d="M281.545 231.37C281.545 231.37 279.142 231.035 279.142 227.537C279.142 224.039 277.422 217.506 277.422 217.506C277.422 217.476 275.934 206.129 273.878 204.325C271.823 202.521 269.182 191.93 269.182 191.93C269.182 191.93 268.73 186.183 267.809 184.946C266.888 183.709 265.644 180.68 263.808 176.36C261.972 172.039 254.318 169.047 254.318 169.047C254.318 169.047 240.478 161.027 236.556 158.413C236.2 158.198 235.867 157.947 235.562 157.663C234.879 156.768 231.903 156.749 231.903 156.749C231.592 154.787 231.293 152.532 231.195 150.491C231.195 150.271 231.195 150.052 231.165 149.833C235.538 147.25 238.832 143.178 240.442 138.364C240.515 138.132 240.576 137.888 240.643 137.657C240.905 137.571 241.146 137.431 241.351 137.246C241.556 137.061 241.72 136.836 241.832 136.584C242.186 135.798 242.192 134.878 242.631 134.147C243.144 133.281 244.12 132.818 244.888 132.166C246.828 130.521 247.328 127.748 247.236 125.225C247.175 123.184 246.846 121.124 246.974 119.095L247.011 118.583C247.047 118.278 247.09 117.973 247.145 117.681C247.444 116.17 248.096 114.744 248.462 113.244C248.828 111.745 248.865 110.057 248.011 108.765C246.761 106.87 244.156 106.492 241.869 106.297C239.277 106.078 236.959 106.364 235.3 104.213C234.524 103.089 233.65 102.035 232.689 101.063C232.348 100.746 229.03 98.7225 229.03 98.5884C225.791 97.0899 222.121 96.8086 218.692 97.7962C216.972 98.2959 215.349 99.1125 213.605 99.5208C209.841 100.411 205.511 99.4477 202.315 101.599C200.534 102.818 199.466 104.756 198.466 106.645C197.653 108.201 196.827 109.755 195.99 111.307C194.642 113.86 193.27 116.456 192.702 119.284C192.583 119.899 192.51 120.522 192.483 121.148V121.179C192.483 121.404 192.483 121.63 192.483 121.855V122.142C192.483 122.355 192.483 122.562 192.519 122.751C192.556 122.94 192.55 123.001 192.568 123.129C192.586 123.257 192.617 123.543 192.653 123.738C192.69 123.933 192.763 124.275 192.836 124.543C192.867 124.658 192.91 124.768 192.946 124.878C193.007 125.085 193.08 125.286 193.16 125.487C193.202 125.591 193.245 125.701 193.294 125.804C193.385 126.017 193.495 126.225 193.605 126.414C193.654 126.499 193.69 126.578 193.739 126.657C193.909 126.941 194.097 127.213 194.3 127.474C195.606 129.101 197.527 130.137 198.948 131.66C198.948 131.721 198.948 131.782 198.948 131.837C198.948 132.008 198.948 132.172 198.948 132.343C199.023 135.741 199.929 139.069 201.585 142.037C203.241 145.006 205.598 147.525 208.451 149.376C208.451 149.607 208.481 149.845 208.493 150.076C208.612 151.885 208.59 153.701 208.426 155.506C208.178 155.214 207.867 154.981 207.517 154.825C207.166 154.669 206.785 154.593 206.401 154.604C206.139 154.591 205.877 154.614 205.621 154.671L205.566 154.629V154.683C204.224 155.013 202.571 156.408 200.991 160.375C200.991 160.375 196.185 165.787 192.525 165.561C188.866 165.336 179.601 171.192 179.601 171.192C179.601 171.192 170.562 177.054 168.622 183.027C167.538 186.413 166.238 189.727 164.731 192.948L153.557 215.952L151.495 234.204C151.495 234.204 152.636 242.321 152.41 243.558C152.184 244.795 157.101 255.953 157.101 255.953C157.101 255.953 173.343 284.467 179.979 285.93L180.455 285.594C180.739 285.743 181.04 285.855 181.351 285.93L182.718 284.967C182.8 286.04 182.765 287.119 182.614 288.184C181.699 291 182.956 309.373 184.554 312.975C186.152 316.576 185.584 363.798 185.584 363.798L185.359 367.967C185.359 367.967 185.359 368.101 185.414 368.332L185.359 369.319L185.523 369.405C185.694 370.727 185.639 372.069 185.359 373.372C184.785 375.2 184.554 380.368 184.554 380.368C184.554 380.368 179.985 409.546 182.15 415.408C184.316 421.271 186.158 427.694 186.158 427.694C186.158 427.694 188.445 435.007 186.267 436.256C184.09 437.505 177.899 439.601 179.174 442.648C180.333 445.464 184.73 453.008 185.383 454.111L185.328 454.69L184.432 464.398C184.577 465.68 184.925 466.93 185.462 468.103C186.444 470.217 188.353 472.411 191.983 472.174C192.592 472.131 193.3 472.058 193.983 471.966C200.625 471.077 208.805 468.115 208.805 468.115C208.38 467.846 207.991 467.524 207.646 467.158C207.319 466.842 207.06 466.463 206.885 466.044C206.71 465.625 206.622 465.175 206.627 464.721C206.725 462.953 203.413 454.532 202.589 452.46C202.461 452.161 202.394 451.99 202.394 451.99C202.394 451.99 209.945 444.105 208.689 437.115C208.689 437.115 200.333 432.24 203.083 429.565C205.834 426.889 210.75 419.205 210.75 419.205C210.75 419.205 210.976 390.472 210.75 386.182C210.515 383.204 210.656 380.208 211.171 377.266C211.263 376.821 211.372 376.388 211.488 375.962C215.293 376.529 219.133 376.821 222.979 376.833C224.382 376.833 225.809 376.833 227.249 376.748C227.249 377.154 227.267 377.593 227.304 378.064C227.621 385.182 228.213 397.663 228.694 402.3C229.378 408.949 233.153 426.865 233.153 426.865C233.153 426.865 225.95 431.484 234.409 442.868C234.409 442.868 234.41 446.993 233.848 447.591C233.249 449.543 232.767 451.529 232.403 453.538C232.049 455.683 231.903 457.853 232.476 458.98C233.848 461.674 242.082 461.454 242.082 461.454L242.284 461.418C243.838 461.257 245.409 461.407 246.905 461.858C248.402 462.308 249.793 463.052 251 464.044C254.129 466.555 266.004 465.452 272.433 464.654C274.952 464.337 276.635 464.044 276.635 464.044C276.717 463.759 276.746 463.462 276.721 463.167C276.653 461.588 275.415 458.127 267.023 455.037C267.023 455.037 259.13 449.736 259.24 445.116H259.075H258.16C258.825 445.08 259.252 445.116 259.252 445.116C259.252 445.116 256.16 433.843 257.422 432.928C258.685 432.014 254.903 419.522 254.903 419.522C254.903 419.522 252.738 398.558 252.622 397.09C252.627 395.829 252.818 394.577 253.189 393.372L252.622 381.879C252.622 381.879 252.512 378.058 252.622 376.815C252.604 375.736 252.516 374.659 252.36 373.591C252.305 373.165 252.25 372.72 252.189 372.281C255.147 371.532 257.068 370.837 257.068 370.837L256.727 330.83C259.24 325.955 259.703 315.26 259.691 307.673C259.691 302.798 259.472 299.19 259.472 299.19L262.906 293.59C262.906 293.59 263.698 286.886 262.442 285.418C261.887 284.753 262.137 284.065 262.594 283.498C262.832 283.31 263.083 283.139 263.345 282.986C263.345 282.986 263.308 282.931 263.265 282.852C263.505 282.652 263.76 282.471 264.028 282.31C264.028 282.31 262.808 280.421 263.9 279.622C264.924 280.317 265.839 280.841 266.535 281.268C266.486 281.712 266.437 281.968 266.437 281.968L266.73 281.359C267.401 281.737 267.809 281.968 267.809 281.968C267.809 281.968 273.189 271.261 273.073 269.683C272.957 268.105 276.733 261.456 276.733 261.456C276.733 261.456 277.19 257.964 279.252 256.502C281.313 255.039 280.85 244.442 280.85 244.442C280.85 244.442 281.423 238.921 282.795 236.666C284.168 234.411 281.545 231.37 281.545 231.37ZM178.613 226.672L178.717 229.225C178.107 228.244 177.667 227.537 177.667 227.537L178.613 226.672Z" fill="url(#paint0_linear_1_281)"/>
<path d="M268.102 277.343L266.785 282.949C266.785 282.949 256.233 277.568 254.33 270.731C252.427 263.894 257.514 261.298 257.514 261.298L267.346 265.46L268.102 277.343Z" fill="white"/>
<path opacity="0.1" d="M268.102 277.343L266.785 282.949C266.785 282.949 256.233 277.568 254.33 270.731C252.427 263.894 257.514 261.298 257.514 261.298L267.346 265.46L268.102 277.343Z" fill="black"/>
<path d="M208.884 468.152C208.884 468.152 199.125 471.735 192.415 472.186C188.853 472.423 186.981 470.242 186.017 468.139C185.491 466.971 185.151 465.727 185.011 464.453L185.883 454.794L186.347 449.65L200.601 445.951L202.62 452.118L202.809 452.588C203.62 454.647 206.871 463.027 206.773 464.775C206.769 465.223 206.856 465.667 207.028 466.081C207.2 466.495 207.453 466.869 207.774 467.183C208.101 467.551 208.474 467.877 208.884 468.152Z" fill="white"/>
<path d="M275.543 463.24C275.567 463.533 275.538 463.828 275.457 464.111C275.457 464.111 254.586 467.591 250.316 464.111C249.112 463.095 247.709 462.341 246.197 461.898C244.684 461.455 243.096 461.333 241.533 461.54C241.533 461.54 233.458 461.759 232.11 459.102C231.548 457.987 231.695 455.823 232.043 453.691C232.397 451.692 232.87 449.716 233.458 447.773L233.781 447.517L235.702 445.976L258.196 445.311H258.367C258.257 449.906 266.004 455.177 266.004 455.177C274.231 458.224 275.445 461.668 275.543 463.24Z" fill="white"/>
<path opacity="0.1" d="M275.543 463.24C275.565 463.533 275.534 463.829 275.452 464.111C275.452 464.111 254.586 467.591 250.316 464.111C249.113 463.096 247.711 462.342 246.2 461.899C244.688 461.456 243.101 461.334 241.539 461.54C241.539 461.54 233.458 461.759 232.116 459.102C231.555 457.981 231.695 455.823 232.043 453.691C235.153 454.001 240.063 454.775 241.991 456.622C244.906 459.431 249.847 462.234 252.878 462.454C255.251 462.606 269.444 463.057 275.543 463.24Z" fill="black"/>
<path opacity="0.1" d="M208.884 468.152C208.884 468.152 199.125 471.735 192.415 472.186C188.853 472.423 186.981 470.242 186.023 468.133C188.506 468.968 191.952 469.846 193.763 469.041C195.91 468.091 203.522 467.475 207.792 467.213C208.117 467.569 208.483 467.884 208.884 468.152Z" fill="black"/>
<path d="M223.363 179.388C215.312 176.262 204.956 165.933 207.542 161.106C208.116 159.888 208.457 158.574 208.548 157.231C208.715 155.407 208.739 153.573 208.621 151.746C208.44 148.753 208.08 145.774 207.542 142.824C207.542 142.824 232.677 143.391 231.213 147.09C230.786 148.175 230.719 150.058 230.835 152.167C230.951 154.275 231.256 156.658 231.573 158.675C232.012 161.442 232.451 163.55 232.451 163.55C232.451 163.55 230.914 165.701 230.012 165.817C229.109 165.933 234.916 183.843 223.363 179.388Z" fill="#CF6F80"/>
<path opacity="0.1" d="M202.79 452.587L202.601 452.795C195.087 443.715 185.999 455.031 185.999 455.031L185.864 454.793L186.328 449.65L200.582 445.951L202.601 452.118L202.79 452.587Z" fill="black"/>
<path opacity="0.1" d="M258.374 445.951C258.374 445.951 252.885 445.835 249.957 448.419C247.029 451.003 232.879 448.98 233.489 448.419C233.669 448.141 233.778 447.823 233.806 447.493L235.727 445.951L258.221 445.287C258.307 445.695 258.374 445.951 258.374 445.951Z" fill="black"/>
<path d="M212.141 374.645C211.732 375.655 211.421 376.702 211.214 377.772C210.705 380.7 210.564 383.681 210.793 386.645C211.018 390.91 210.793 419.497 210.793 419.497C210.793 419.497 205.968 427.121 203.278 429.808C200.589 432.496 208.768 437.322 208.768 437.322C209.988 444.269 202.595 452.118 202.595 452.118C195.081 443.038 185.993 454.361 185.993 454.361C185.993 454.361 181.052 445.829 179.82 442.782C178.588 439.735 184.645 437.627 186.774 436.39C188.902 435.153 186.67 427.858 186.67 427.858C186.67 427.858 184.871 421.466 182.736 415.634C180.601 409.802 185.09 380.77 185.09 380.77C185.09 380.77 185.322 375.614 185.877 373.817C186.157 372.519 186.213 371.184 186.042 369.868C186.005 369.423 185.962 369.051 185.932 368.801C185.901 368.552 185.877 368.436 185.877 368.436L185.962 368.289L189.012 362.61C189.012 362.61 213.605 371.068 212.141 374.645Z" fill="#032FF2"/>
<path d="M258.374 445.281C258.374 445.281 252.884 445.165 249.957 447.718C247.029 450.272 232.878 448.279 233.488 447.718C234.098 447.158 234.05 443.008 234.05 443.008C225.748 431.685 232.83 427.09 232.83 427.09C232.83 427.09 229.121 409.265 228.45 402.653C227.981 398.034 227.401 385.621 227.09 378.533C226.956 375.486 226.877 373.39 226.877 373.39L233.659 372.025L234.531 371.848L250.89 368.57C250.89 368.57 251.341 371.617 251.646 374.109C251.798 375.173 251.884 376.246 251.902 377.321C251.792 378.54 251.902 382.354 251.902 382.354L252.457 393.793C252.095 394.993 251.908 396.239 251.902 397.492C252.012 398.948 254.141 419.802 254.141 419.802C254.141 419.802 257.843 432.246 256.58 433.142C255.318 434.037 258.374 445.281 258.374 445.281Z" fill="#032FF2"/>
<path opacity="0.1" d="M231.214 147.09C230.787 148.175 230.719 150.058 230.835 152.167C227.469 154.192 223.598 155.228 219.669 155.155C215.739 155.081 211.91 153.902 208.622 151.752C208.441 148.757 208.08 145.776 207.542 142.824C207.542 142.824 232.677 143.379 231.214 147.09Z" fill="black"/>
<path d="M240.93 133.623C240.934 135.819 240.589 138.001 239.905 140.088C238.377 144.765 235.243 148.751 231.058 151.342C226.873 153.933 221.906 154.963 217.035 154.249C212.163 153.535 207.701 151.123 204.437 147.44C201.173 143.757 199.318 139.04 199.198 134.122C199.198 133.952 199.198 133.793 199.198 133.623C199.151 130.854 199.655 128.105 200.683 125.533C201.71 122.962 203.24 120.621 205.183 118.647C207.125 116.673 209.442 115.105 211.997 114.034C214.553 112.964 217.296 112.413 220.067 112.413C222.838 112.413 225.581 112.964 228.137 114.034C230.692 115.105 233.009 116.673 234.951 118.647C236.894 120.621 238.423 122.962 239.451 125.533C240.478 128.105 240.983 130.854 240.936 133.623H240.93Z" fill="#CF6F80"/>
<path opacity="0.1" d="M223.363 179.388C215.312 176.262 204.956 165.933 207.542 161.106C208.116 159.889 208.457 158.574 208.548 157.231L219.57 166.28L226.389 171.868L231.573 158.681C232.012 161.448 232.451 163.556 232.451 163.556C232.451 163.556 230.914 165.707 230.012 165.823C229.109 165.939 234.916 183.843 223.363 179.388Z" fill="black"/>
<path d="M251.866 219.383L242.662 373.866L230.658 374.652L199.576 285.076L204.675 178.73L205.749 156.262L219.57 167.603L226.395 173.191L231.732 159.62L241.655 168.261L251.866 219.383Z" fill="#032FF2"/>
<path opacity="0.1" d="M212.141 374.646C211.732 375.655 211.422 376.702 211.214 377.772C202.479 376.424 193.997 373.777 186.048 369.917L185.883 369.831L185.938 368.85L185.969 368.338L189.018 362.659C189.018 362.659 213.605 371.068 212.141 374.646Z" fill="black"/>
<path opacity="0.1" d="M233.799 377.796C231.566 378.175 229.314 378.432 227.053 378.564C226.919 375.517 226.84 373.421 226.84 373.421L233.622 372.056L233.799 377.796Z" fill="black"/>
<path opacity="0.1" d="M251.609 374.14C247.273 375.267 240.576 376.535 234.58 375.743L234.495 371.879L250.853 368.6C250.853 368.6 251.304 371.617 251.609 374.14Z" fill="black"/>
<path opacity="0.1" d="M234.47 376.449C209.463 380.715 186.56 368.484 186.56 368.484L186.78 364.341C186.78 364.341 187.347 317.362 185.773 313.761C184.2 310.159 182.974 291.895 183.864 289.092C184.755 286.289 180.613 244.253 180.613 244.253L179.942 227.19L155.387 217.25L166.365 194.386C167.848 191.18 169.124 187.882 170.184 184.513C172.093 178.578 180.955 172.746 180.955 172.746C180.955 172.746 190.043 166.92 193.635 167.139C197.228 167.359 201.937 161.984 201.937 161.984C205.413 153.129 208.56 157.139 208.56 157.139C208.56 157.56 208.56 157.139 208.39 158.449C207.17 168.169 228.115 198.883 228.414 199.425L230.408 247.97L232.427 309.403L234.47 376.449Z" fill="black"/>
<path d="M233.799 376.449C208.792 380.715 185.883 368.485 185.883 368.485L186.109 364.341C186.109 364.341 186.676 317.362 185.096 313.761C183.517 310.159 182.297 291.895 183.193 289.092C184.09 286.289 179.942 244.253 179.942 244.253L179.265 227.19L154.697 217.214L165.676 194.349C167.156 191.142 168.431 187.845 169.494 184.477C171.397 178.541 180.266 172.709 180.266 172.709C180.266 172.709 189.354 166.884 192.94 167.103C196.526 167.322 201.241 161.947 201.241 161.947C204.724 153.093 208.56 157.103 208.56 157.103C208.56 157.523 208.195 157.712 208.39 158.413C211.073 167.84 227.444 198.847 227.743 199.389L229.762 247.933L231.781 309.367L233.799 376.449Z" fill="white"/>
<path opacity="0.1" d="M227.06 200.772C224.37 199.651 210.122 183.398 210.122 183.398V179.699C209.603 178.48 206.523 179.224 204.022 180.077L205.096 157.609L206.316 158.62C208.987 168.041 226.749 200.23 227.06 200.772Z" fill="black"/>
<path d="M227.737 199.426C225.041 198.304 210.793 182.052 210.793 182.052V178.353C210.275 177.134 207.194 177.877 204.694 178.73L205.773 156.262L206.993 157.273C209.671 166.695 227.438 198.889 227.737 199.426Z" fill="white"/>
<path opacity="0.1" d="M186.56 280.481C186.895 280.481 203.949 278.69 203.949 278.69C203.949 278.69 214.275 298.977 213.598 303.913C212.921 308.849 211.695 313.218 207.542 312.444C203.388 311.67 185.188 313.054 185.188 313.054L186.56 280.481Z" fill="black"/>
<path d="M185.883 279.135C186.219 279.135 203.272 277.343 203.272 277.343C203.272 277.343 213.593 297.636 212.922 302.566C212.251 307.496 211.012 311.872 206.865 311.098C202.717 310.324 184.511 311.707 184.511 311.707L185.883 279.135Z" fill="white"/>
<path d="M198.734 269.61C198.734 269.61 214.385 278.013 214.721 280.579C215.056 283.144 206.755 279.458 204.962 279.013C203.781 278.729 202.58 278.541 201.369 278.452L189.408 278.775L198.734 269.61Z" fill="#CF6F80"/>
<path opacity="0.1" d="M222.692 201.82C223.602 201.82 224.339 201.084 224.339 200.175C224.339 199.266 223.602 198.53 222.692 198.53C221.783 198.53 221.046 199.266 221.046 200.175C221.046 201.084 221.783 201.82 222.692 201.82Z" fill="black"/>
<path d="M222.692 201.15C223.602 201.15 224.339 200.413 224.339 199.505C224.339 198.596 223.602 197.859 222.692 197.859C221.783 197.859 221.046 198.596 221.046 199.505C221.046 200.413 221.783 201.15 222.692 201.15Z" fill="#3F3D56"/>
<path opacity="0.1" d="M225.724 273.047C226.633 273.047 227.371 272.31 227.371 271.401C227.371 270.493 226.633 269.756 225.724 269.756C224.814 269.756 224.077 270.493 224.077 271.401C224.077 272.31 224.814 273.047 225.724 273.047Z" fill="black"/>
<path d="M225.724 272.37C226.633 272.37 227.371 271.634 227.371 270.725C227.371 269.816 226.633 269.08 225.724 269.08C224.814 269.08 224.077 269.816 224.077 270.725C224.077 271.634 224.814 272.37 225.724 272.37Z" fill="#3F3D56"/>
<path opacity="0.1" d="M224.334 237.434C225.243 237.434 225.98 236.697 225.98 235.788C225.98 234.879 225.243 234.143 224.334 234.143C223.424 234.143 222.687 234.879 222.687 235.788C222.687 236.697 223.424 237.434 224.334 237.434Z" fill="black"/>
<path d="M224.334 236.763C225.243 236.763 225.98 236.027 225.98 235.118C225.98 234.209 225.243 233.472 224.334 233.472C223.424 233.472 222.687 234.209 222.687 235.118C222.687 236.027 223.424 236.763 224.334 236.763Z" fill="#3F3D56"/>
<path d="M262.295 278.111C262.295 278.111 263.418 279.793 262.295 280.579C261.173 281.365 262.405 283.266 262.405 283.266C262.405 283.266 259.605 284.906 260.838 286.38C262.07 287.855 261.289 294.516 261.289 294.516L257.922 300.086C257.922 300.086 258.123 303.675 258.136 308.526C258.136 316.095 257.69 326.735 255.226 331.585L255.568 371.385C255.568 371.385 243.778 375.688 233.909 374.377L232.445 310.512C232.445 310.512 234.58 274.296 235.367 267.349C235.827 263.742 236.015 260.106 235.928 256.471C235.928 256.471 235.592 245.599 234.464 240.554C234.464 240.554 233.244 218.695 233.122 212.643C233.067 209.749 233.22 201.302 233.391 193.27C233.58 184.489 233.793 176.207 233.793 176.207L231.567 158.608C231.567 158.608 233.793 158.382 234.464 159.278C234.765 159.559 235.091 159.81 235.44 160.028C239.283 162.624 252.86 170.607 252.86 170.607C252.86 170.607 260.374 173.593 262.173 177.871C263.973 182.149 265.223 185.184 266.095 186.403C266.967 187.621 267.443 193.35 267.443 193.35C267.443 193.35 270.029 203.892 272.048 205.678C274.067 207.463 275.543 218.823 275.543 218.823L257.702 232.839C257.702 232.839 256.135 256.154 255.8 257.056C255.464 257.958 262.295 278.111 262.295 278.111Z" fill="white"/>
<path d="M262.973 278.111C262.973 278.111 264.089 279.793 262.973 280.579C261.856 281.365 263.076 283.267 263.076 283.267C263.076 283.267 260.295 284.924 261.515 286.399C262.735 287.874 261.966 294.534 261.966 294.534L258.599 300.104C258.599 300.104 258.801 303.694 258.819 308.544C258.819 316.113 258.374 326.753 255.909 331.604L256.245 371.404C256.245 371.404 244.437 375.706 234.58 374.396L233.122 310.531C233.122 310.531 235.257 274.314 236.044 267.367C236.505 263.761 236.69 260.124 236.599 256.49C236.599 256.49 236.264 245.618 235.141 240.572C235.141 240.572 233.921 218.713 233.793 212.662C233.738 209.767 233.897 201.321 234.062 193.289C234.251 184.507 234.464 176.226 234.464 176.226L231.524 158.389C231.524 158.389 234.464 158.389 235.141 159.297C235.439 159.58 235.766 159.832 236.117 160.046C239.96 162.642 253.543 170.625 253.543 170.625C253.543 170.625 261.051 173.611 262.851 177.889C264.65 182.167 265.9 185.202 266.778 186.421C267.657 187.64 268.12 193.368 268.12 193.368C268.12 193.368 270.706 203.911 272.725 205.696C274.744 207.482 276.202 218.817 276.202 218.817L258.361 232.833C258.361 232.833 256.794 256.148 256.452 257.05C256.111 257.952 262.973 278.111 262.973 278.111Z" fill="white"/>
<path opacity="0.1" d="M241.606 181.399L243.217 186.092L234.739 194.623C234.928 185.848 235.141 177.56 235.141 177.56L232.201 159.723C232.201 159.723 235.141 159.723 235.818 160.631C236.115 160.914 236.442 161.164 236.794 161.375L244.003 182.155L241.606 181.399Z" fill="black"/>
<path d="M240.93 180.053L242.546 184.745L234.068 193.277C234.257 184.495 234.47 176.213 234.47 176.213L231.524 158.376C231.524 158.376 234.47 158.376 235.141 159.284C235.44 159.567 235.767 159.818 236.117 160.034L243.333 180.808L240.93 180.053Z" fill="white"/>
<path opacity="0.1" d="M240.93 133.623C240.934 135.819 240.589 138.001 239.905 140.088C239.79 140.106 239.672 140.101 239.559 140.073C239.446 140.044 239.339 139.994 239.246 139.924C239.088 134.439 236.386 129.29 233.061 124.908C232.128 123.585 230.997 122.414 229.707 121.435C228.403 120.456 226.781 119.998 225.157 120.149C223.327 120.399 221.711 121.642 219.863 121.8C217.423 122.001 215.239 120.313 212.818 120.228C211.833 120.237 210.862 120.456 209.969 120.87C209.076 121.284 208.282 121.884 207.639 122.629C206.367 124.133 205.422 125.884 204.864 127.772C203.905 130.636 203.383 133.627 203.315 136.645C203.285 138.352 203.12 140.491 201.534 141.112C201.653 139.857 201.511 138.591 201.115 137.394C200.719 136.197 200.079 135.096 199.235 134.159L199.198 134.122C199.198 133.952 199.198 133.793 199.198 133.623C199.151 130.854 199.655 128.105 200.683 125.533C201.71 122.962 203.24 120.621 205.183 118.647C207.125 116.673 209.442 115.105 211.997 114.034C214.553 112.964 217.296 112.413 220.067 112.413C222.838 112.413 225.581 112.964 228.137 114.034C230.692 115.105 233.009 116.673 234.951 118.647C236.894 120.621 238.423 122.962 239.451 125.533C240.478 128.105 240.983 130.854 240.936 133.623H240.93Z" fill="black"/>
<path d="M228.706 100.514C225.537 99.0244 221.932 98.7427 218.569 99.7218C216.88 100.221 215.288 101.032 213.574 101.44C209.914 102.324 205.645 101.367 202.504 103.506C200.759 104.725 199.71 106.651 198.734 108.521L196.295 113.165C194.965 115.706 193.623 118.29 193.068 121.087C192.513 123.884 192.849 127.017 194.623 129.265C195.916 130.905 197.826 131.935 199.228 133.476C200.069 134.414 200.706 135.515 201.101 136.711C201.496 137.906 201.639 139.17 201.522 140.423C203.114 139.814 203.266 137.669 203.303 135.963C203.371 132.944 203.893 129.953 204.852 127.09C205.409 125.201 206.354 123.449 207.627 121.946C208.27 121.202 209.065 120.603 209.958 120.189C210.85 119.775 211.821 119.556 212.806 119.545C215.245 119.631 217.435 121.313 219.85 121.112C221.68 120.959 223.302 119.71 225.144 119.466C226.769 119.313 228.392 119.771 229.695 120.752C230.984 121.73 232.114 122.901 233.043 124.226C236.373 128.607 239.075 133.744 239.234 139.241C239.923 139.747 240.917 139.089 241.259 138.309C241.6 137.529 241.613 136.615 242.046 135.871C242.546 135.012 243.503 134.555 244.254 133.909C246.157 132.27 246.632 129.509 246.559 127.004C246.486 124.5 245.998 121.959 246.474 119.497C246.76 117.985 247.407 116.572 247.761 115.079C248.115 113.586 248.157 111.91 247.322 110.624C246.102 108.735 243.534 108.363 241.295 108.186C238.752 107.967 236.477 108.247 234.855 106.108C234.093 104.992 233.236 103.944 232.293 102.976C231.97 102.659 228.706 100.648 228.706 100.514Z" fill="#512E4E"/>
<path opacity="0.1" d="M162.413 229.024L156.039 217.25L154.021 235.416C154.021 235.416 155.143 243.485 154.917 244.722C154.692 245.959 159.516 257.05 159.516 257.05C159.516 257.05 175.454 285.411 181.962 286.874L203.95 271.176L198.119 263.778C198.119 263.778 196.1 262.992 195.594 263.778C195.594 263.778 184.767 245.167 183.645 243.82C182.523 242.473 182.742 239.786 182.742 239.786C182.742 239.786 181.059 237.994 181.62 236.312C182.181 234.63 178.369 228.798 178.369 228.798L181.846 225.55L162.413 229.024Z" fill="black"/>
<path d="M156.375 215.91L154.691 217.25L152.672 235.416C152.672 235.416 153.795 243.485 153.569 244.722C153.343 245.959 158.174 257.05 158.174 257.05C158.174 257.05 174.105 285.411 180.613 286.874L202.608 271.176L196.771 263.778C196.771 263.778 194.752 262.992 194.245 263.778C194.245 263.778 183.419 245.167 182.297 243.82C181.175 242.473 181.4 239.786 181.4 239.786C181.4 239.786 179.717 237.994 180.278 236.312C180.839 234.63 177.021 228.798 177.021 228.798L180.498 225.55L156.375 215.91Z" fill="white"/>
<path opacity="0.1" d="M260.838 287.075C262.058 288.556 261.289 295.204 261.289 295.204L257.922 300.774C257.922 300.774 258.124 304.37 258.136 309.214L252.476 310.982C251.964 311.141 251.422 311.176 250.894 311.084C250.366 310.992 249.868 310.775 249.441 310.451C249.014 310.127 248.671 309.706 248.441 309.223C248.21 308.739 248.098 308.208 248.115 307.673L249.09 276.222L262.296 281.267C261.173 282.048 262.405 283.961 262.405 283.961C262.405 283.961 259.606 285.594 260.838 287.075Z" fill="black"/>
<path d="M261.515 286.399C262.735 287.88 261.966 294.534 261.966 294.534L258.599 300.104C258.599 300.104 258.8 303.693 258.819 308.544L253.055 310.342C252.554 310.498 252.023 310.531 251.506 310.44C250.99 310.349 250.502 310.137 250.085 309.819C249.667 309.502 249.331 309.09 249.105 308.617C248.879 308.144 248.769 307.624 248.785 307.1L249.767 275.552L262.978 280.597C261.85 281.377 263.082 283.285 263.082 283.285C263.082 283.285 260.295 284.924 261.515 286.399Z" fill="white"/>
<path d="M265.888 271.407C265.888 271.407 264.991 277.13 262.746 277.465C260.502 277.8 259.496 286.722 257.257 286.405C255.019 286.088 256.501 278.111 256.58 276.563C256.659 275.015 254.14 268.604 256.025 267.148C257.91 265.691 263.875 267.148 263.875 267.148L265.888 271.407Z" fill="#CF6F80"/>
<path opacity="0.1" d="M270.664 227.342L274.897 218.81C274.897 218.81 276.58 225.313 276.58 228.786C276.58 232.26 278.935 232.601 278.935 232.601C278.935 232.601 281.515 235.648 280.155 237.866C278.794 240.084 278.246 245.606 278.246 245.606C278.246 245.606 278.691 256.142 276.672 257.598C274.653 259.055 274.232 262.535 274.232 262.535C274.232 262.535 270.524 269.147 270.64 270.719C270.756 272.291 265.48 282.937 265.48 282.937C265.48 282.937 268.06 269.707 253.025 263.991C253.025 263.991 252.909 259.5 254.031 258.269C255.153 257.038 256.904 256.477 255.806 250.255C254.708 244.033 255.489 236.599 255.489 235.106C255.489 233.613 258.856 224.301 258.856 224.301L270.664 227.342Z" fill="black"/>
<path d="M272.494 217.592L276.19 218.81C276.19 218.81 277.879 225.313 277.879 228.786C277.879 232.26 280.234 232.601 280.234 232.601C280.234 232.601 282.814 235.648 281.454 237.866C280.093 240.084 279.551 245.606 279.551 245.606C279.551 245.606 279.996 256.142 277.977 257.599C275.958 259.055 275.507 262.535 275.507 262.535C275.507 262.535 271.805 269.147 271.92 270.719C272.036 272.291 266.754 282.937 266.754 282.937C266.754 282.937 269.34 269.707 254.299 263.991C254.299 263.991 254.19 259.5 255.312 258.269C256.434 257.038 258.185 256.477 257.087 250.255C255.989 244.033 256.77 236.599 256.77 235.106C256.77 233.613 260.136 224.301 260.136 224.301L272.494 217.592Z" fill="white"/>
<path opacity="0.1" d="M190.854 438.724C190.854 438.724 196.746 435.025 200.613 437.712C204.48 440.399 190.854 438.724 190.854 438.724Z" fill="black"/>
<path opacity="0.1" d="M236.636 427.285C236.636 427.285 241.851 426.615 246.23 431.326C250.609 436.036 236.636 427.285 236.636 427.285Z" fill="black"/>
<g opacity="0.1">
<path opacity="0.1" d="M244.266 132.575C243.516 133.221 242.553 133.684 242.052 134.543C241.625 135.28 241.613 136.188 241.272 136.98C240.93 137.773 239.936 138.419 239.247 137.919C239.088 132.434 236.38 127.285 233.056 122.897C232.127 121.573 230.997 120.401 229.707 119.424C228.402 118.443 226.777 117.985 225.151 118.138C223.321 118.388 221.711 119.631 219.863 119.783C217.423 119.991 215.234 118.302 212.812 118.217C211.828 118.227 210.858 118.447 209.966 118.862C209.074 119.277 208.281 119.878 207.64 120.624C206.367 122.125 205.421 123.875 204.865 125.761C203.906 128.625 203.384 131.616 203.316 134.634C203.279 136.335 203.12 138.455 201.547 139.089C201.583 139.539 201.583 139.992 201.547 140.442C203.133 139.832 203.291 137.687 203.328 135.981C203.396 132.963 203.918 129.971 204.877 127.108C205.434 125.22 206.379 123.468 207.652 121.965C208.294 121.221 209.088 120.622 209.979 120.208C210.871 119.794 211.841 119.574 212.824 119.564C215.264 119.649 217.46 121.331 219.875 121.13C221.705 120.978 223.327 119.728 225.163 119.485C226.789 119.331 228.414 119.79 229.72 120.771C231.009 121.748 232.139 122.92 233.068 124.244C236.392 128.626 239.1 133.763 239.259 139.26C239.948 139.765 240.942 139.107 241.284 138.327C241.625 137.547 241.638 136.633 242.065 135.89C242.565 135.03 243.528 134.573 244.279 133.927C246.182 132.288 246.657 129.528 246.584 127.023C246.584 126.944 246.584 126.865 246.584 126.791C246.468 128.961 245.889 131.173 244.266 132.575Z" fill="black"/>
<path opacity="0.1" d="M199.241 132.142C197.838 130.6 195.923 129.57 194.636 127.937C193.552 126.491 192.933 124.751 192.861 122.946C192.669 125.201 193.299 127.45 194.636 129.278C195.923 130.917 197.838 131.947 199.241 133.489C200.588 134.997 201.396 136.908 201.54 138.924C201.634 137.697 201.478 136.464 201.083 135.299C200.688 134.133 200.061 133.06 199.241 132.142Z" fill="black"/>
<path opacity="0.1" d="M247.773 113.744C247.413 115.237 246.773 116.657 246.48 118.162C246.307 119.168 246.243 120.19 246.291 121.209C246.312 120.628 246.375 120.05 246.48 119.479C246.773 117.967 247.413 116.553 247.773 115.06C247.983 114.237 248.051 113.384 247.975 112.538C247.937 112.944 247.869 113.347 247.773 113.744Z" fill="black"/>
</g>
<path opacity="0.1" d="M80.9564 463.502C113.78 463.502 140.388 459.232 140.388 453.965C140.388 448.698 113.78 444.428 80.9564 444.428C48.1331 444.428 21.5245 448.698 21.5245 453.965C21.5245 459.232 48.1331 463.502 80.9564 463.502Z" fill="#6C63FF"/>
<path d="M82.8719 271.267H79.0476V357.296H82.8719V271.267Z" fill="#535461"/>
<path d="M106.903 357.034L106.665 360.91L106.324 366.394L106.183 368.673L105.848 374.158L105.702 376.437L105.36 381.922L101.505 444.123C101.338 446.799 100.156 449.311 98.2 451.147C96.2442 452.984 93.6616 454.006 90.9778 454.007H70.9354C68.2522 454.006 65.6703 452.983 63.7155 451.147C61.7607 449.311 60.5801 446.799 60.414 444.123L56.5775 381.879L56.236 376.394L56.0957 374.115L55.7541 368.631L55.6139 366.352L55.2723 360.867L55.0283 356.991C54.9859 356.245 55.0966 355.499 55.3534 354.797C55.6102 354.095 56.0078 353.453 56.5219 352.911C57.0359 352.368 57.6555 351.936 58.3426 351.641C59.0297 351.346 59.7699 351.195 60.5177 351.196H101.511C102.256 351.202 102.992 351.361 103.673 351.663C104.354 351.964 104.966 352.402 105.472 352.949C105.977 353.496 106.365 354.141 106.611 354.843C106.857 355.546 106.956 356.291 106.903 357.034Z" fill="#3F3D56"/>
<path d="M106.665 360.91L106.323 366.376H55.5892L55.2477 360.91H106.665Z" fill="#9D9CB5"/>
<path d="M106.183 368.655L105.848 374.128H56.0709L55.7294 368.655H106.183Z" fill="#9D9CB5"/>
<path d="M105.701 376.413L105.366 381.879H56.5527L56.2112 376.413H105.701Z" fill="#9D9CB5"/>
<path d="M49.4109 303.511C71.6795 319.611 80.9749 344.791 80.9749 344.791C80.9749 344.791 54.1379 343.871 31.8631 327.771C9.58841 311.67 0.311333 286.496 0.311333 286.496C0.311333 286.496 27.1362 287.41 49.4109 303.511Z" fill="#032FF2"/>
<path d="M0.292404 286.496C0.292404 286.496 28.1541 301.944 37.0896 314.736C46.0252 327.527 80.9743 344.791 80.9743 344.791" stroke="#535461" stroke-width="2" stroke-miterlimit="10"/>
<path d="M63.7869 271.078C75.9062 279.836 80.9748 293.541 80.9748 293.541C80.9748 293.541 66.3669 293.041 54.2414 284.284C42.116 275.527 37.0596 261.816 37.0596 261.816C37.0596 261.816 51.6614 262.315 63.7869 271.078Z" fill="#032FF2"/>
<path d="M37.0596 261.816C37.0596 261.816 52.2226 270.225 57.0837 277.185C61.9449 284.144 80.9748 293.541 80.9748 293.541" stroke="#535461" stroke-width="2" stroke-miterlimit="10"/>
<path d="M98.571 292.846C84.6463 308.136 81.7003 328.118 81.7003 328.118C81.7003 328.118 101.334 323.304 115.247 308.008C129.159 292.712 132.117 272.736 132.117 272.736C132.117 272.736 112.496 277.556 98.571 292.846Z" fill="#032FF2"/>
<path d="M132.13 272.742C132.13 272.742 113.99 288.416 109.379 299.214C104.768 310.013 81.7003 328.118 81.7003 328.118" stroke="#535461" stroke-width="2" stroke-miterlimit="10"/>
<path d="M609.731 287.465C609.731 287.465 599.661 237.409 603.516 231.181C603.516 231.181 603.656 225.392 603.424 218.012C603.424 217.732 603.424 217.451 603.424 217.165C604.103 217.617 604.81 218.024 605.541 218.384C609.092 220.207 613.17 220.733 617.068 219.871L614.019 216.476C613.287 215.666 612.525 214.788 612.366 213.716C612.207 212.643 612.647 211.687 613.025 210.73C615.922 203.417 616.074 194.221 610.493 188.639C605.779 183.947 604.632 177.889 599.515 173.605C595.776 170.467 593.72 165.866 591.781 161.417C590.14 157.657 588.487 153.867 587.548 149.881C586.816 146.767 586.523 143.544 585.517 140.503C584.51 137.462 582.626 134.506 579.68 133.147C578.631 132.666 577.466 132.392 576.508 131.752C575.252 130.905 574.495 129.528 573.586 128.321C568.969 122.227 553.507 125.816 546.188 128.29C544.198 128.914 542.356 129.934 540.772 131.289L540.839 131.179C540.894 131.088 540.961 130.996 541.022 130.905C540.221 131.552 539.529 132.324 538.973 133.19C537.905 134.878 537.46 136.846 536.57 138.675C535.496 140.838 529.525 146.877 532.093 149.309C532.273 149.472 532.479 149.604 532.703 149.699C533.667 150.099 534.728 150.205 535.752 150.003L535.642 150.265C534.766 152.411 534.316 154.706 534.319 157.024C534.319 167.036 542.584 175.153 552.788 175.153C554.706 175.155 556.613 174.861 558.442 174.282C558.484 174.513 558.521 174.745 558.564 174.976C558.564 175.068 558.594 175.159 558.606 175.251L558.283 175.702C558.267 175.674 558.249 175.647 558.228 175.622L548.652 188.993C547.189 190.022 538.759 196.116 538.284 200.687C537.783 205.69 537.283 211.546 537.283 211.546L537.216 212.802C536.798 213.151 536.308 213.406 535.782 213.548C535.255 213.69 534.704 213.716 534.166 213.624C531.178 213.137 531.178 224.594 531.178 224.594C531.178 224.594 529.189 226.422 527.823 224.837C526.457 223.253 522.846 228.622 522.846 228.622L500.218 229.597L499.699 229.627L498.479 225.855C498.348 225.457 498.065 225.127 497.691 224.937C497.318 224.746 496.884 224.71 496.485 224.837C496.39 224.868 496.299 224.907 496.21 224.953L496.125 225.002L495.966 225.112L495.887 225.185C495.843 225.224 495.803 225.267 495.765 225.313L495.692 225.398L495.655 225.435C495.514 225.629 495.421 225.854 495.383 226.091C495.345 226.328 495.363 226.571 495.436 226.8L496.485 230.036C492.118 230.913 487.653 233.387 491.294 240.2L472.838 236.794L478.809 241.803L509.635 248.159C509.226 248.89 509.495 249.951 510.769 251.444C516.259 257.885 526.262 259.634 530.287 260.085C531.35 262.461 532.678 264.71 534.246 266.788L533.898 273.205C533.898 273.205 523.706 322.116 521.84 324.596C522.782 323.529 523.644 322.395 524.42 321.201C521.462 331.25 517.326 345.005 516.241 347.064C514.496 350.355 512.88 363.67 514.868 364.524C515.478 364.786 517.223 364.658 519.711 364.469V365.572L519.601 407.37C519.601 407.37 520.101 433.008 518.729 435.451C517.357 437.895 516.991 443.02 516.991 443.02C516.991 443.02 511.501 453.13 507.153 457.195C507.123 457.226 507.09 457.255 507.055 457.28L506.921 456.329C506.921 456.329 501.694 462.923 490.129 462.551C490.129 462.551 483.17 467.073 493.49 467.317C503.81 467.56 516.991 466.951 516.991 466.951C516.991 466.951 526.195 452.935 533.904 454.763V465.385H536.265V454.592C537.359 453.872 538.296 452.938 539.019 451.845C539.741 450.753 540.234 449.525 540.467 448.237C540.669 446.908 540.521 445.551 540.038 444.297C539.554 443.043 538.752 441.938 537.71 441.088C537.242 440.666 536.867 440.151 536.607 439.576C536.348 439.001 536.211 438.379 536.204 437.749L536.118 437.822C536.118 437.609 536.063 437.389 536.039 437.164C535.362 431.679 534.514 420.363 537.509 411.99C541.614 400.508 542.858 384.518 539.869 374.999C538.905 371.956 538.113 368.862 537.497 365.73C537.423 365.334 537.356 364.956 537.295 364.603C539.338 364.879 541.361 365.286 543.352 365.822C550.275 367.729 565.419 368.082 578.35 367.979C578.38 368.332 578.417 368.704 578.46 369.076C578.69 371.66 579.172 374.215 579.899 376.705C581.522 381.581 582.266 403.074 582.266 403.074C582.266 403.074 584.358 420.747 583.217 427.937C582.607 431.935 581.997 435.951 581.65 439.985V440.064C581.65 440.064 578.222 449.815 575.715 455.111C575.654 455.245 575.587 455.379 575.526 455.507C574.858 455.567 574.2 455.713 573.568 455.939C573.568 455.939 570.207 462.643 566.859 463.752C563.51 464.861 564.62 468.511 572.202 467.171C579.783 465.83 591.232 464.733 591.232 464.733L591.726 457.895L594.056 454.983L593.446 461.802L595.928 461.314L595.599 453.02L599.411 448.255C599.411 448.255 604.016 444.16 597.172 436.103V436.28C597.099 436.164 597.032 436.042 596.953 435.927V435.89C595.818 434.135 594.916 430.863 596.569 425.055C599.557 414.561 601.296 405.036 601.296 405.036C601.296 405.036 607.968 379.521 599.948 367.449H600.301C599.479 365.75 598.899 363.945 598.575 362.086C598.535 361.867 598.498 361.641 598.466 361.41C604.4 361.068 610.225 359.996 614.976 357.68C614.958 357.656 612.098 297.106 609.731 287.465ZM534.386 245.234V245.356L533.166 245.417L534.386 245.234ZM530.202 245.813C530.001 245.857 529.814 245.947 529.653 246.075C529.129 246.816 528.799 247.678 528.695 248.579L526.792 248.153C526.792 248.153 525.457 247.867 523.535 247.544L522.627 246.629C525.127 246.422 527.726 246.118 530.202 245.813Z" fill="url(#paint1_linear_1_281)"/>
<path d="M593.165 453.106L592.44 461.741L594.873 461.253L594.507 451.887L593.165 453.106Z" fill="#1D2366"/>
<path d="M537.643 412.105C534.71 420.454 535.539 431.722 536.198 437.194C536.442 439.217 536.668 440.448 536.668 440.448C536.668 440.448 532.282 450.43 531.916 450.808C531.55 451.186 519.01 458.834 519.01 458.834L510.245 463.947C510.245 463.947 501.352 460.053 505.616 458.712C506.487 458.363 507.272 457.828 507.915 457.146C512.185 453.093 517.546 443.02 517.546 443.02C517.546 443.02 517.912 437.907 519.254 435.476C520.596 433.044 520.108 407.492 520.108 407.492L520.212 365.84V360.41L536.893 360.532C536.998 362.375 537.239 364.208 537.613 366.017C538.212 369.138 538.988 372.222 539.937 375.255C542.877 384.755 541.657 400.667 537.643 412.105Z" fill="#FFB0B1"/>
<path opacity="0.1" d="M536.668 440.448C536.668 440.448 532.282 450.43 531.916 450.808C531.55 451.186 519.01 458.834 519.01 458.834L510.245 463.947C510.245 463.947 501.352 460.053 505.616 458.712C506.487 458.363 507.272 457.828 507.915 457.146L508.293 459.809L511.215 459.687L536.222 437.206C536.442 439.217 536.668 440.448 536.668 440.448Z" fill="black"/>
<path d="M536.362 437.773L511.215 460.406L508.293 460.528L507.683 456.262C507.683 456.262 502.572 462.831 491.215 462.466C491.215 462.466 484.396 466.969 494.503 467.213C504.609 467.457 517.516 466.847 517.516 466.847C517.516 466.847 526.53 452.831 534.075 454.659V465.245H536.393V454.562C537.471 453.837 538.39 452.902 539.097 451.813C539.803 450.724 540.282 449.503 540.504 448.224C540.705 446.907 540.563 445.56 540.092 444.314C539.62 443.067 538.836 441.962 537.814 441.106C537.358 440.679 536.993 440.163 536.744 439.589C536.494 439.016 536.364 438.398 536.362 437.773Z" fill="#1D2366"/>
<path d="M595.484 425.122C593.861 430.911 594.746 434.171 595.856 435.92V435.957C597.28 438.116 598.27 440.532 598.771 443.069L598.869 443.617L587.427 460.284L581.217 462.722C581.217 462.722 571.233 459.315 573.057 458.34C573.514 458.103 574.228 456.835 575.045 455.086C577.485 449.815 580.851 440.089 580.851 440.089V440.009C581.205 435.994 581.766 431.99 582.388 428.004C583.505 420.832 581.455 403.226 581.455 403.226C581.455 403.226 580.723 381.818 579.138 376.949C578.422 374.473 577.946 371.935 577.716 369.368C577.387 366.321 577.314 363.81 577.314 363.81C577.314 363.81 583.889 354.669 595.941 364.542C596.905 365.329 597.753 366.248 598.46 367.272C606.786 379.106 600.083 405.176 600.083 405.176C600.083 405.176 598.405 414.659 595.484 425.122Z" fill="#FFB0B1"/>
<path opacity="0.1" d="M598.887 443.617L587.445 460.284L581.235 462.722C581.235 462.722 571.251 459.315 573.074 458.34C573.532 458.103 574.246 456.835 575.063 455.086C579.29 455.05 581.479 459.072 581.479 459.072L586.835 458.218C586.835 458.218 593.898 444.349 595.483 443.501C597.069 442.654 595.727 437.17 595.727 437.17V435.774C595.77 435.823 595.807 435.878 595.856 435.927V435.963C597.279 438.123 598.269 440.538 598.771 443.075L598.887 443.617Z" fill="black"/>
<path d="M581.845 459.431C581.845 459.431 578.795 453.837 572.952 455.903C572.952 455.903 569.665 462.606 566.377 463.691C563.09 464.776 564.187 468.432 571.616 467.097C579.045 465.763 590.244 464.66 590.244 464.66L590.732 457.841L598.283 448.23C598.283 448.23 602.784 444.154 596.087 436.128V437.523C596.087 437.523 597.429 443.008 595.843 443.855C594.257 444.702 587.219 458.578 587.219 458.578L581.845 459.431Z" fill="#1D2366"/>
<path opacity="0.1" d="M536.911 360.52C537.017 362.363 537.257 364.196 537.631 366.004C530.763 364.999 524.389 365.499 520.211 365.828V360.398L536.911 360.52Z" fill="black"/>
<path opacity="0.1" d="M599.137 368.789C599.137 368.789 589.378 369.265 577.741 369.362C577.411 366.315 577.338 363.804 577.338 363.804C577.338 363.804 583.913 354.663 595.965 364.536C596.929 365.323 597.777 366.242 598.484 367.266C598.673 367.785 598.891 368.294 599.137 368.789Z" fill="black"/>
<path d="M599.137 367.692C599.137 367.692 556.393 369.758 543.365 366.108C530.336 362.458 517.424 365.62 515.479 364.773C513.533 363.926 515.113 350.66 516.82 347.375C518.528 344.09 527.897 310.872 527.897 310.872L536.912 263.912L546.408 261.298L547.079 261.109L563.627 256.55L575.752 253.205C575.752 253.205 599.863 347.253 597.795 354.188C597.044 356.844 596.923 359.637 597.441 362.348C597.757 364.199 598.328 365.997 599.137 367.692Z" fill="#1D2366"/>
<path d="M505.488 231.797C505.488 231.797 496.949 240.937 503.414 246.032C509.879 251.127 514.131 246.52 514.131 246.52L505.488 231.797Z" fill="#C7DAF5"/>
<path opacity="0.1" d="M505.488 231.797C505.488 231.797 496.949 240.937 503.414 246.032C509.879 251.127 514.131 246.52 514.131 246.52L505.488 231.797Z" fill="black"/>
<path d="M574.477 171.698C574.477 171.698 573.477 172.648 571.971 174.05C569.824 176.055 566.646 178.986 563.828 181.442C559.924 184.836 556.704 187.329 557.857 185.202C559.01 183.075 558.79 179.37 558.217 175.903C558.174 175.671 558.137 175.44 558.095 175.214C557.62 172.667 556.99 170.152 556.21 167.682C556.21 167.682 562.517 159.54 566.005 156.329C567.305 155.11 568.213 154.61 568.268 155.457C568.329 156.597 569.183 159.114 570.244 161.783C570.275 161.868 570.305 161.947 570.342 162.033C571.05 163.861 571.849 165.738 572.55 167.359C573.624 169.845 574.477 171.698 574.477 171.698Z" fill="#FFB0B1"/>
<path opacity="0.1" d="M570.342 162.033C569.749 165.218 568.311 168.185 566.178 170.625C564.045 173.065 561.296 174.888 558.217 175.903C557.732 173.121 557.061 170.374 556.21 167.682C556.21 167.682 568.085 152.356 568.268 155.457C568.311 156.634 569.238 159.242 570.342 162.033Z" fill="black"/>
<path opacity="0.1" d="M557.033 179.998L558.57 177.834C558.57 177.834 559.589 184.038 563.334 181.302C567.079 178.566 567.262 201.893 567.262 201.893L563.242 261.937L534.197 260.201L535.021 231.187L538.308 216.562L546.439 195.3L551.275 188.273L557.033 179.998Z" fill="black"/>
<path d="M567.262 202.265L563.602 256.557L563.218 262.309L547.024 261.34L546.414 261.304L534.215 260.572L535.039 231.553L538.326 216.927L546.457 195.666L551.293 188.639L557.051 180.333L558.588 178.176C558.588 178.176 559.607 184.38 563.352 181.643L563.431 181.588C567.091 179.273 567.262 202.265 567.262 202.265Z" fill="#1D2366"/>
<path d="M538.735 211.845C538.735 211.845 537.278 214.892 534.35 214.398C531.422 213.905 531.428 225.368 531.428 225.368C531.428 225.368 529.483 227.196 528.141 225.611C526.799 224.027 523.261 229.384 523.261 229.384L501.097 230.359C501.097 230.359 510.959 234.862 509.026 248.488C509.026 248.488 542.511 246.416 543.609 243.253C544.707 240.091 538.735 211.845 538.735 211.845Z" fill="white"/>
<path opacity="0.03" d="M538.735 211.845C538.735 211.845 537.278 214.892 534.35 214.398C531.422 213.905 531.428 225.368 531.428 225.368C531.428 225.368 529.483 227.196 528.141 225.611C526.799 224.027 523.261 229.384 523.261 229.384L501.097 230.359C501.097 230.359 510.959 234.862 509.026 248.488C509.026 248.488 542.511 246.416 543.609 243.253C544.707 240.091 538.735 211.845 538.735 211.845Z" fill="black"/>
<path d="M474.32 237.519L480.163 242.504L528.263 252.601L522.297 246.52L474.32 237.519Z" fill="white"/>
<path d="M557.124 181.917C556.325 183.136 554.038 189.377 552.129 194.825C550.537 199.365 549.208 203.356 549.208 203.356C549.208 203.356 546.103 223.552 544.517 227.202C542.931 230.852 543.791 245.088 543.791 245.088L537.881 280.244C537.881 280.244 535.204 298.373 531.068 309.202C526.988 319.861 522.444 324.858 522.303 325.016C524.133 322.542 534.106 273.827 534.106 273.827L537.399 212.387C537.399 212.387 537.881 206.549 538.369 201.558C538.857 196.567 548.738 189.754 548.738 189.754L558.265 176.22C559.223 177.499 558.582 179.73 557.124 181.917Z" fill="white"/>
<path d="M532.282 260.877C532.282 260.877 518.253 260.268 511.459 252.114C504.664 243.96 527.164 248.86 527.164 248.86L533.014 250.201L532.282 260.877Z" fill="#FFB0B1"/>
<path opacity="0.1" d="M597.795 354.194C597.044 356.85 596.923 359.643 597.442 362.354C582.138 363.439 565.768 359.307 565.768 359.307C562.718 362.11 554.685 366.242 554.685 366.242L550.306 312.005C547.506 304.693 546.409 266.38 546.409 266.38C546.409 266.38 546.659 264.375 547.019 261.371C547.019 261.298 547.018 261.218 547.049 261.145C548.141 252.754 550.306 237.001 551.367 234.874C552.831 231.949 546.866 224.167 546.866 224.167L549.58 201.04L549.91 198.249C555.631 195.696 560.016 187.542 560.016 187.542L563.383 181.649C567.043 179.303 567.232 202.296 567.232 202.296L563.572 256.587L575.697 253.241C575.697 253.241 599.863 347.259 597.795 354.194Z" fill="black"/>
<path d="M613.501 357.942C596.819 366.218 566.5 358.551 566.5 358.551C563.45 361.355 555.417 365.486 555.417 365.486L551.032 311.25C548.238 303.937 547.14 265.624 547.14 265.624C547.14 265.624 550.666 237.037 552.13 234.118C552.556 233.265 552.349 231.998 551.843 230.633C549.354 224.135 548.439 217.142 549.171 210.224L550.342 200.285L550.666 197.5C556.393 194.94 560.778 186.787 560.778 186.787L563.828 181.448L569.439 171.613L572.099 166.957L572.55 167.365L575.996 170.485C575.996 170.485 577.46 171.704 579.656 173.532C584.432 177.554 592.684 184.635 596.941 188.968C600.686 192.783 601.87 207.622 602.211 218.792C602.437 226.148 602.303 231.912 602.303 231.912C598.527 238.122 608.402 287.977 608.402 287.977C610.702 297.612 613.501 357.942 613.501 357.942Z" fill="white"/>
<path opacity="0.03" d="M581.48 186.665C581.48 186.665 570.031 208.439 571.361 216.714C572.69 224.99 576.472 234.356 574.648 236.544C574.022 237.373 573.212 238.046 572.282 238.51C571.352 238.974 570.327 239.217 569.287 239.219C567.457 239.341 562.578 242.748 562.578 243.113C562.578 243.479 558.07 243.479 554.039 245.185C550.007 246.892 544.054 247.86 544.054 247.86C544.054 247.86 532.465 247.495 531.386 248.592C530.306 249.689 529.196 256.252 531.508 261.487C533.819 266.721 536.387 270.628 538.327 271.341C540.266 272.054 552.575 267.934 562.559 266.959C572.544 265.984 583.383 258.08 583.383 258.08C583.383 258.08 595.319 253.814 597.411 246.642C599.503 239.469 594.855 200.047 594.855 200.047C594.855 200.047 591.342 181.674 581.48 186.665Z" fill="black"/>
<path opacity="0.03" d="M580.016 184.836C580.016 184.836 568.567 206.616 569.909 214.886C571.251 223.155 575.02 232.528 573.191 234.722C572.566 235.551 571.758 236.225 570.828 236.689C569.899 237.154 568.874 237.396 567.835 237.397C566.006 237.519 561.126 240.925 561.126 241.291C561.126 241.657 556.619 241.657 552.587 243.357C548.555 245.057 542.603 246.032 542.603 246.032C542.603 246.032 531.014 245.667 529.94 246.763C528.867 247.86 527.745 254.43 530.062 259.658C532.38 264.887 534.942 268.799 536.881 269.512C538.821 270.225 551.129 266.106 561.114 265.137C571.099 264.168 581.937 256.252 581.937 256.252C581.937 256.252 593.867 251.986 595.935 244.819C598.003 237.653 593.379 198.219 593.379 198.219C593.379 198.219 589.878 179.852 580.016 184.836Z" fill="black"/>
<path d="M581.119 185.568C581.119 185.568 569.671 207.348 571.013 215.617C572.355 223.887 576.124 233.259 574.3 235.447C573.676 236.279 572.867 236.954 571.936 237.419C571.006 237.885 569.98 238.127 568.939 238.128C567.109 238.25 562.23 241.657 562.23 242.016C562.23 242.376 557.728 242.382 553.691 244.088C549.653 245.795 543.706 246.763 543.706 246.763C543.706 246.763 532.117 246.398 531.038 247.495C529.958 248.592 528.848 255.161 531.16 260.39C533.471 265.618 536.039 269.531 537.979 270.244C539.918 270.957 552.227 266.837 562.211 265.862C572.196 264.887 583.034 256.983 583.034 256.983C583.034 256.983 594.971 252.717 597.063 245.545C599.155 238.372 594.538 198.95 594.538 198.95C594.538 198.95 590.976 180.607 581.119 185.568Z" fill="white"/>
<path opacity="0.1" d="M580.869 243.985C580.869 243.985 571.72 242.156 574.904 245.203C578.088 248.25 578.07 250.92 581.967 250.798C585.865 250.676 580.869 243.985 580.869 243.985Z" fill="black"/>
<path opacity="0.1" d="M596.331 309.544C596.331 309.544 592.196 312.341 600.107 318.788C608.017 325.236 596.331 309.544 596.331 309.544Z" fill="black"/>
<path opacity="0.1" d="M588.439 332.536C588.439 332.902 586.975 345.943 592.452 349.203C597.929 352.464 588.439 332.536 588.439 332.536Z" fill="black"/>
<path d="M501.474 230.328C497.058 230.48 487.519 231.827 492.466 241.047C496.839 249.207 504.188 243.753 508.324 239.615C507.315 235.757 504.863 232.433 501.474 230.328Z" fill="#FFB0B1"/>
<path d="M508.379 239.541L508.561 239.353L508.379 239.541Z" fill="#FFB0B1"/>
<path opacity="0.1" d="M579.656 173.904C574.971 177.103 571.044 179.803 570.275 180.363C568.177 181.917 564.176 191.04 561.596 195.696C559.54 199.444 552.861 200.406 550.342 200.644L550.666 197.859C556.393 195.3 560.778 187.146 560.778 187.146L572.099 167.316L575.996 170.857C575.996 170.857 577.46 172.076 579.656 173.904Z" fill="black"/>
<path d="M579.656 173.538C574.971 176.738 571.044 179.437 570.275 180.004C568.177 181.552 564.176 190.674 561.596 195.33C559.54 199.078 552.861 200.041 550.342 200.279L550.666 197.494C556.393 194.934 560.778 186.78 560.778 186.78L572.099 166.951L575.996 170.479C575.996 170.479 577.46 171.686 579.656 173.538Z" fill="#DCE7FF"/>
<path d="M570.641 158.011C570.644 161.669 569.533 165.242 567.457 168.255C565.005 171.818 561.356 174.384 557.172 175.489C552.989 176.593 548.547 176.163 544.654 174.276C540.76 172.388 537.673 169.169 535.952 165.202C534.231 161.235 533.99 156.783 535.274 152.654C536.557 148.525 539.279 144.992 542.947 142.696C546.614 140.401 550.983 139.495 555.262 140.143C559.541 140.791 563.445 142.951 566.267 146.229C569.088 149.507 570.64 153.687 570.641 158.011Z" fill="#FFB0B1"/>
<path opacity="0.1" d="M602.211 218.798C599.734 217.276 597.717 215.111 596.374 212.534C595.355 210.523 594.678 208.201 592.94 206.775C591.372 205.495 589.28 205.184 587.328 204.611C580.912 202.716 575.532 196.866 575.331 190.187C575.233 187.042 576.215 183.904 575.77 180.79C575.517 179.028 574.816 177.36 573.733 175.945C573.195 175.269 572.606 174.635 571.97 174.05C571.116 173.246 570.22 172.466 569.439 171.612C568.947 171.084 568.518 170.502 568.158 169.876C567.868 169.364 567.633 168.822 567.457 168.261C566.237 164.531 567.347 160.107 566.005 156.335L565.932 156.128C565.426 154.787 564.395 153.446 562.962 153.343C561.528 153.239 560.302 154.427 558.936 154.958C556.076 156.067 552.989 154.178 550.604 152.252C548.22 150.326 545.53 148.126 542.498 148.553C540.492 148.839 538.906 150.204 537.058 150.911C536.641 151.073 536.21 151.197 535.771 151.283C537.335 147.386 540.208 144.155 543.898 142.145C547.587 140.134 551.862 139.471 555.988 140.267C560.114 141.064 563.834 143.272 566.507 146.511C569.181 149.75 570.643 153.818 570.641 158.017C570.643 159.285 570.51 160.549 570.244 161.789C570.275 161.874 570.305 161.954 570.342 162.039C571.049 163.867 571.848 165.744 572.55 167.365L575.996 170.485C575.996 170.485 577.46 171.704 579.655 173.532C584.431 177.554 592.684 184.635 596.941 188.968C600.686 192.795 601.857 207.628 602.211 218.798Z" fill="black"/>
<path d="M536.845 139.778C537.717 138.004 538.15 136.018 539.193 134.336C540.724 131.898 543.395 130.338 546.14 129.393C553.307 126.925 568.451 123.342 572.977 129.393C573.868 130.612 574.606 131.965 575.838 132.806C576.777 133.446 577.911 133.72 578.942 134.202C581.827 135.554 583.669 138.504 584.651 141.514C585.633 144.525 585.926 147.755 586.646 150.856C587.567 154.836 589.183 158.608 590.793 162.356C592.69 166.78 594.703 171.369 598.362 174.495C603.358 178.761 604.462 184.8 609.097 189.48C614.587 195.038 614.41 204.209 611.58 211.492C611.208 212.448 610.787 213.448 610.933 214.465C611.08 215.483 611.836 216.409 612.55 217.22L615.55 220.602C608.451 222.314 600.418 218.609 597.112 212.107C596.094 210.096 595.417 207.78 593.672 206.348C592.111 205.068 590.013 204.764 588.067 204.191C581.65 202.29 576.271 196.433 576.069 189.754C575.972 186.616 576.954 183.478 576.509 180.37C576.261 178.595 575.557 176.916 574.465 175.494C572.788 173.307 570.257 171.838 568.891 169.4C566.579 165.324 568.336 160.028 566.67 155.652C566.158 154.312 565.133 152.971 563.7 152.867C562.267 152.764 561.041 153.952 559.668 154.482C556.814 155.591 553.728 153.708 551.343 151.777C548.958 149.845 546.268 147.651 543.231 148.084C541.224 148.364 539.644 149.729 537.796 150.442C536.43 150.966 533.661 151.435 532.465 150.284C529.94 147.962 535.789 141.947 536.845 139.778Z" fill="#591D4B"/>
<path opacity="0.1" d="M598.807 210.096C597.782 208.085 597.112 205.769 595.367 204.343C593.806 203.063 591.707 202.753 589.756 202.18C583.345 200.285 577.966 194.428 577.758 187.749C577.661 184.611 578.643 181.466 578.204 178.358C577.948 176.596 577.245 174.928 576.16 173.514C574.477 171.326 571.946 169.857 570.586 167.42C568.274 163.349 570.031 158.053 568.359 153.672C567.853 152.337 566.822 150.997 565.395 150.887C563.968 150.777 562.73 151.978 561.363 152.508C558.509 153.617 555.417 151.728 553.038 149.802C550.659 147.876 547.957 145.676 544.926 146.103C542.919 146.389 541.333 147.755 539.491 148.461C538.125 148.985 535.35 149.461 534.154 148.309C531.641 145.871 537.491 139.869 538.54 137.712C539.412 135.932 539.845 133.952 540.894 132.27C540.949 132.178 541.01 132.087 541.071 131.995C540.286 132.645 539.609 133.414 539.064 134.275C538.021 135.957 537.588 137.931 536.716 139.717C535.661 141.874 529.812 147.895 532.331 150.314C533.55 151.472 536.295 150.996 537.661 150.472C539.491 149.759 541.089 148.394 543.096 148.114C546.146 147.681 548.829 149.881 551.208 151.807C553.587 153.733 556.697 155.622 559.54 154.513C560.906 153.983 562.101 152.788 563.565 152.898C565.029 153.008 566.005 154.342 566.536 155.683C568.201 160.058 566.444 165.354 568.756 169.431C570.122 171.826 572.653 173.325 574.331 175.525C575.422 176.946 576.126 178.626 576.374 180.4C576.819 183.508 575.837 186.646 575.935 189.785C576.136 196.488 581.516 202.32 587.932 204.221C589.866 204.794 591.976 205.099 593.537 206.379C595.288 207.811 595.977 210.126 596.977 212.137C600.283 218.64 608.316 222.345 615.416 220.632L614.001 219.036C607.846 219.127 601.619 215.629 598.807 210.096Z" fill="black"/>
<path opacity="0.1" d="M556.759 182.283C555.96 183.502 553.672 189.742 551.763 195.19C549.976 194.495 548.354 190.065 548.354 190.065L557.881 176.524C558.857 177.865 558.216 180.089 556.759 182.283Z" fill="black"/>
<path d="M557.125 181.917C556.326 183.136 554.039 189.376 552.13 194.824C550.343 194.136 548.72 189.699 548.72 189.699L558.247 176.165C559.223 177.499 558.583 179.73 557.125 181.917Z" fill="#DCE7FF"/>
<path d="M501.731 244.173L496.449 227.531C496.386 227.336 496.363 227.131 496.38 226.927C496.397 226.723 496.454 226.524 496.548 226.343C496.642 226.161 496.771 225.999 496.928 225.868C497.085 225.736 497.266 225.636 497.461 225.575C497.854 225.452 498.28 225.49 498.645 225.679C499.011 225.868 499.287 226.195 499.413 226.586L504.695 243.211L504.17 246.69L501.731 244.173Z" fill="#BE8B87"/>
<path opacity="0.1" d="M496.948 226.068C497.342 225.944 497.77 225.98 498.137 226.17C498.503 226.36 498.78 226.687 498.906 227.08L504.188 243.704L503.792 246.312L504.176 246.715L504.701 243.235L499.388 226.611C499.262 226.219 498.986 225.893 498.621 225.703C498.255 225.514 497.829 225.476 497.436 225.599C497.106 225.706 496.82 225.921 496.625 226.208C496.729 226.153 496.837 226.106 496.948 226.068Z" fill="white"/>
<path d="M501.731 244.173L504.695 243.235L504.262 246.087L504.171 246.715L503.305 245.813L501.731 244.173Z" fill="#EFC8C4"/>
<path d="M503.305 245.813C503.356 245.748 503.42 245.694 503.494 245.654C503.536 245.627 503.586 245.613 503.637 245.613C503.688 245.613 503.737 245.627 503.78 245.654C503.822 245.705 503.857 245.76 503.884 245.819C503.924 245.886 503.979 245.944 504.045 245.987C504.11 246.03 504.184 246.058 504.262 246.069L504.171 246.678L503.305 245.813Z" fill="#727A9C"/>
<path d="M496.418 233.442C496.418 233.442 507.013 233.381 504.518 237.885C502.024 242.388 498.126 242.93 498.126 242.93L496.418 233.442Z" fill="#FFB0B1"/>
<path d="M430.527 31.3352H430.07C411.869 31.3352 395.773 40.9576 386.515 55.1566C377.256 40.9576 361.16 31.3352 342.959 31.3352H342.502C328.843 31.4653 315.787 36.9758 306.172 46.6693C296.557 56.3628 291.159 69.456 291.152 83.1035C291.152 100.051 298.581 124.098 313.066 143.885C340.666 181.588 386.515 214.575 386.515 214.575C386.515 214.575 432.363 181.594 459.956 143.885C474.448 124.098 481.871 100.051 481.871 83.1035C481.864 69.4571 476.467 56.3648 466.853 46.6714C457.239 36.9781 444.185 31.4669 430.527 31.3352ZM423.983 146.786C421.91 146.778 419.888 146.144 418.182 144.967C416.477 143.79 415.167 142.126 414.425 140.192H403.544C402.827 140.187 402.13 139.96 401.549 139.54C400.969 139.121 400.534 138.53 400.305 137.852L396.963 127.791L386.386 164.714C386.18 165.425 385.749 166.05 385.158 166.495C384.566 166.94 383.846 167.181 383.105 167.182H382.892C382.119 167.145 381.382 166.844 380.805 166.329C380.228 165.814 379.845 165.117 379.72 164.355L368.82 98.8565L360.855 137.614C360.672 138.35 360.248 139.004 359.65 139.472C359.052 139.939 358.314 140.192 357.555 140.192H342.227C341.768 140.211 341.309 140.138 340.879 139.975C340.449 139.813 340.056 139.566 339.724 139.248C339.392 138.93 339.128 138.548 338.947 138.125C338.767 137.703 338.674 137.248 338.674 136.788C338.674 136.329 338.767 135.874 338.947 135.452C339.128 135.029 339.392 134.647 339.724 134.329C340.056 134.011 340.449 133.764 340.879 133.601C341.309 133.439 341.768 133.366 342.227 133.385H354.871L366.155 81.2753C366.34 80.5049 366.788 79.8227 367.42 79.3453C368.053 78.8679 368.833 78.625 369.625 78.6581C370.417 78.6912 371.174 78.9983 371.764 79.5268C372.355 80.0553 372.744 80.7725 372.864 81.5557L383.995 148.37L393.474 115.335C393.671 114.639 394.088 114.026 394.663 113.586C395.238 113.147 395.94 112.905 396.664 112.897H396.731C397.448 112.897 398.146 113.124 398.727 113.544C399.307 113.964 399.74 114.557 399.964 115.237L406.008 133.403H414.291C414.88 131.616 415.952 130.025 417.388 128.808C418.824 127.591 420.569 126.793 422.431 126.504C424.292 126.215 426.197 126.445 427.935 127.17C429.674 127.894 431.178 129.084 432.282 130.609C433.387 132.133 434.048 133.933 434.193 135.81C434.338 137.686 433.961 139.566 433.105 141.242C432.248 142.918 430.944 144.325 429.338 145.307C427.732 146.29 425.885 146.81 424.001 146.81L423.983 146.786Z" fill="#032FF2"/>
</g>
<defs>
<linearGradient id="paint0_linear_1_281" x1="217.337" y1="472.204" x2="217.337" y2="97.2173" gradientUnits="userSpaceOnUse">
<stop stop-color="#808080" stop-opacity="0.25"/>
<stop offset="0.54" stop-color="#808080" stop-opacity="0.12"/>
<stop offset="1" stop-color="#808080" stop-opacity="0.1"/>
</linearGradient>
<linearGradient id="paint1_linear_1_281" x1="136146" y1="282932" x2="136146" y2="90448.6" gradientUnits="userSpaceOnUse">
<stop stop-color="#808080" stop-opacity="0.25"/>
<stop offset="0.54" stop-color="#808080" stop-opacity="0.12"/>
<stop offset="1" stop-color="#808080" stop-opacity="0.1"/>
</linearGradient>
<clipPath id="clip0_1_281">
<rect width="674" height="477" fill="white"/>
</clipPath>
</defs>
</svg>
