<svg width="638" height="638" viewBox="0 0 638 638" fill="none" xmlns="http://www.w3.org/2000/svg">
<circle cx="319" cy="319" r="319" fill="#032FF2" fill-opacity="0.1"/>
<path d="M268.163 444.79C268.548 426.262 272.178 399.94 281.99 362.55C313.172 243.703 397.93 209.626 397.93 209.626C370.404 241.508 355.795 376.507 350.048 444.778H268.163V444.79Z" fill="white" stroke="#262433" stroke-miterlimit="10"/>
<path d="M604.927 433.71C610.147 418.494 608.634 397.796 597.269 370.909C541.191 238.233 435.025 204.297 435.025 204.297L438.039 374.607L604.927 433.71Z" fill="white" stroke="#262433" stroke-miterlimit="10"/>
<path d="M523.12 444.791C523.159 442.197 523.184 439.578 523.184 436.958C523.184 307.326 477.701 202.243 421.597 202.243C365.493 202.243 320.01 307.326 320.01 436.958C320.01 439.578 320.035 442.184 320.074 444.791H523.12Z" fill="#032FF2" stroke="#262433" stroke-miterlimit="10"/>
<path d="M459.332 219C496.747 253.616 523.183 338.155 523.183 436.971C523.183 439.591 523.157 442.197 523.118 444.804H460.473L459.332 219Z" fill="white" stroke="#262433" stroke-miterlimit="10"/>
<path d="M459.332 219C461.948 221.413 464.501 224.084 467.002 226.973L494.246 306.966L477.828 310.523L474.441 444.791H460.46L459.332 219Z" fill="#F4F4F4" stroke="#262433" stroke-miterlimit="10"/>
<path d="M375.843 444.791H320.06C320.021 442.197 319.996 439.578 319.996 436.958C319.996 341.172 344.828 258.804 380.435 222.312L375.843 444.791Z" fill="white" stroke="#262433" stroke-miterlimit="10"/>
<path d="M384.078 218.781V444.791H369.789L366.402 310.523L349.984 306.966L377.882 225.047C379.909 222.813 381.974 220.72 384.078 218.781Z" fill="#F4F4F4" stroke="#262433" stroke-miterlimit="10"/>
<path d="M371.841 263.58C373.483 249.366 377.78 235.203 385.501 223.082C391.709 213.337 400.572 204.567 411.77 200.92C422.044 197.569 433.011 199.226 442.182 204.824C452.443 211.077 459.87 221.22 464.962 231.929C472.068 246.9 474.864 263.734 474.441 280.22C474.39 282.287 477.596 282.287 477.648 280.22C478.058 264.632 475.595 248.826 469.554 234.407C464.59 222.569 457.138 211.398 446.569 203.874C437.346 197.312 425.918 194.423 414.772 196.799C402.766 199.341 392.851 207.546 385.668 217.214C375.714 230.606 370.532 247.144 368.634 263.58C368.403 265.621 371.61 265.608 371.841 263.58Z" fill="#262433"/>
<path d="M473.774 301.008C479.923 301.008 484.908 296.082 484.908 290.004C484.908 283.927 479.923 279 473.774 279C467.625 279 462.641 283.927 462.641 290.004C462.641 296.082 467.625 301.008 473.774 301.008Z" fill="#C0C0C0" stroke="#262433" stroke-miterlimit="10"/>
<path d="M473.774 295.936C477.089 295.936 479.777 293.281 479.777 290.004C479.777 286.728 477.089 284.072 473.774 284.072C470.459 284.072 467.771 286.728 467.771 290.004C467.771 293.281 470.459 295.936 473.774 295.936Z" fill="#F4F4F4" stroke="#262433" stroke-miterlimit="10"/>
<path d="M353.896 303.717C352.421 296.578 352.447 289.028 354.371 281.979C355.73 276.984 358.167 271.682 362.439 268.497C366.107 265.762 370.673 265.493 374.624 267.804C379.203 270.5 382.243 275.495 384.116 280.336C387.104 288.065 387.848 296.732 386.476 304.886C386.142 306.902 389.221 307.775 389.567 305.733C390.927 297.618 390.465 289.105 387.848 281.286C385.873 275.354 382.602 269.486 377.42 265.801C373.097 262.732 367.633 262.09 362.849 264.478C357.564 267.123 354.229 272.67 352.267 278.025C349.176 286.435 349.009 295.859 350.805 304.565C351.215 306.594 354.306 305.733 353.896 303.717Z" fill="#262433"/>
<path d="M349.535 333.391C349.535 333.391 357.937 343.123 371.058 335.008C384.18 326.906 387.707 311.293 388.708 302.279" stroke="#262433" stroke-miterlimit="10"/>
<path d="M348.547 334.598C350.042 334.598 351.254 333.396 351.254 331.914C351.254 330.432 350.042 329.23 348.547 329.23C347.053 329.23 345.841 330.432 345.841 331.914C345.841 333.396 347.053 334.598 348.547 334.598Z" fill="white" stroke="#262433" stroke-miterlimit="10"/>
<path d="M391.761 333.249C391.761 333.249 383.487 343.085 370.263 335.15C357.039 327.214 353.306 311.652 352.177 302.639" stroke="#262433" stroke-miterlimit="10"/>
<path d="M390.016 331.786C390.042 333.262 391.26 334.443 392.761 334.431C394.262 334.418 395.455 333.198 395.442 331.721C395.416 330.245 394.198 329.063 392.697 329.076C391.183 329.089 389.99 330.309 390.016 331.786Z" fill="white" stroke="#262433" stroke-miterlimit="10"/>
<path d="M424.135 188.722C424.135 188.722 438.629 188.453 441.092 182.418C443.555 176.396 442.464 161.604 442.464 161.604C442.464 161.604 450.391 160.641 456.138 155.505C461.884 150.369 462.974 133.395 456.138 128.195C449.301 122.995 437.257 130.66 436.436 132.034C435.628 133.408 424.135 188.722 424.135 188.722Z" fill="#262433"/>
<path d="M459.28 157.573C459.28 165.135 453.111 171.26 445.492 171.26C437.885 171.26 431.716 165.135 431.716 157.573C431.716 150.01 437.885 143.885 445.492 143.885C453.111 143.885 459.28 150.023 459.28 157.573Z" stroke="#262433" stroke-width="2" stroke-miterlimit="10"/>
<path d="M399.239 115.111H416.555C428.06 115.111 437.475 125.845 437.475 138.955V165.816C437.475 166.574 437.436 167.318 437.372 168.063C437.565 168.859 437.667 169.681 437.667 170.528V185.294C437.796 185.923 437.872 186.565 437.872 187.22L438.052 205.954C443.375 207.623 448.57 210.153 453.598 213.44L422.07 243.138L396.327 210.422C400.56 208.149 404.882 206.403 409.295 205.248C409.256 204.888 409.243 204.529 409.243 204.156V189.686H399.239C387.733 189.686 378.318 178.951 378.318 165.842V138.98C378.305 125.845 387.72 115.111 399.239 115.111Z" fill="#F4F4F4" stroke="#262433" stroke-miterlimit="10"/>
<path d="M412.95 147.737C412.95 149.894 411.206 151.64 409.051 151.64C406.896 151.64 405.152 149.894 405.152 147.737C405.152 145.58 406.896 143.834 409.051 143.834C411.206 143.834 412.95 145.58 412.95 147.737Z" fill="#262433"/>
<path d="M387.4 147.172C387.4 149.008 385.912 150.511 384.065 150.511C382.23 150.511 380.73 149.021 380.73 147.172C380.73 145.336 382.218 143.834 384.065 143.834C385.912 143.834 387.4 145.323 387.4 147.172Z" fill="#262433"/>
<path d="M392.633 145.503C392.671 149.432 392.71 153.374 392.748 157.303C392.748 157.868 392.761 158.433 392.761 158.998C392.774 160.025 394.377 160.038 394.364 158.998C394.326 155.069 394.287 151.127 394.249 147.198C394.249 146.633 394.236 146.068 394.236 145.503C394.223 144.476 392.62 144.476 392.633 145.503Z" fill="#262433"/>
<path d="M414.63 137.44C413.104 137.119 411.59 136.785 410.064 136.464C409.846 136.412 409.628 136.374 409.41 136.322C408.999 136.233 408.525 136.438 408.422 136.887C408.333 137.285 408.538 137.786 408.987 137.876C410.513 138.197 412.027 138.531 413.553 138.852C413.771 138.903 413.989 138.942 414.207 138.993C414.618 139.083 415.092 138.878 415.195 138.428C415.285 138.017 415.066 137.529 414.63 137.44Z" fill="#262433"/>
<path d="M386.732 139.956C385.18 139.918 383.628 139.879 382.076 139.841C381.858 139.841 381.628 139.828 381.409 139.828C380.986 139.815 380.589 140.2 380.601 140.637C380.627 141.086 380.948 141.433 381.409 141.446C382.961 141.484 384.514 141.523 386.066 141.561C386.284 141.561 386.514 141.574 386.732 141.574C387.156 141.587 387.553 141.202 387.541 140.765C387.515 140.316 387.181 139.969 386.732 139.956Z" fill="#262433"/>
<path d="M442.233 151.641C442.233 151.641 436.423 159.101 432.678 146.492C430.343 138.646 431.267 137.17 423.058 137.799C414.849 138.428 408.833 130.236 408.281 125.704C407.73 121.171 384.206 152.385 362.875 131.174C341.544 109.949 366.979 84.4874 381.474 81.47C395.968 78.4526 408.833 89.6876 410.744 96.5313C410.744 96.5313 420.043 82.5614 441.656 92.6921C463.269 102.823 453.418 125.55 452.867 131.161C452.341 136.798 444.055 150.639 442.233 151.641Z" fill="#262433"/>
<path d="M459.28 157.573C459.28 165.135 453.111 171.26 445.492 171.26C437.885 171.26 431.716 165.135 431.716 157.573C431.716 150.01 437.885 143.885 445.492 143.885C453.111 143.885 459.28 150.023 459.28 157.573Z" fill="#F4F4F4"/>
<path d="M438.924 159.383C438.911 159.088 438.911 158.793 438.937 158.497C438.95 158.356 438.95 158.228 438.963 158.086C438.976 158.009 438.975 157.932 438.988 157.855C439.027 157.547 438.963 157.984 439.001 157.753C439.065 157.367 439.129 156.995 439.232 156.623C439.283 156.43 439.335 156.237 439.399 156.045C439.437 155.942 439.476 155.827 439.514 155.724C439.54 155.66 439.668 155.339 439.578 155.557C439.771 155.108 440.002 154.684 440.284 154.286C440.322 154.234 440.528 153.965 440.386 154.132C440.463 154.042 440.528 153.952 440.617 153.862C440.797 153.669 440.976 153.477 441.182 153.31C441.22 153.271 441.502 153.053 441.348 153.169C441.451 153.092 441.554 153.015 441.656 152.95C441.9 152.796 442.157 152.655 442.413 152.527C442.4 152.527 442.644 152.424 442.528 152.475C442.464 152.501 442.708 152.411 442.734 152.398C442.9 152.334 443.067 152.283 443.234 152.231C443.542 152.141 444.016 152.039 444.209 152.013C445.107 151.885 446.03 151.923 446.941 152.013C447.415 152.064 447.826 151.577 447.826 151.127C447.826 150.614 447.415 150.293 446.941 150.241C444.119 149.946 441.053 150.524 439.168 152.822C437.924 154.337 437.334 156.237 437.167 158.176C437.128 158.574 437.103 158.985 437.128 159.396C437.231 160.513 439.001 160.526 438.924 159.383Z" fill="#262433"/>
<path d="M454.445 213.992L420.775 249.7L391.658 213.183C395.583 210.653 399.598 208.586 403.702 207.032L420.89 232.391L443.465 207.97C447.197 209.562 450.853 211.578 454.445 213.992Z" fill="#8CA7F4" stroke="#262433" stroke-miterlimit="10"/>
<path d="M382.359 157.008C394.057 150.28 399.187 157.637 411.693 161.386C419.569 163.749 423.494 161.155 425.315 158.908C425.918 158.176 427.098 158.472 427.226 159.409C427.714 162.94 428.355 169.309 428.188 177.115C428.06 182.791 417.799 186.732 409.243 190.032V189.66H399.238C387.733 189.66 378.318 178.926 378.318 165.816V159.46C379.447 158.741 380.768 157.919 382.359 157.008Z" fill="white" stroke="#262433" stroke-miterlimit="10"/>
<path d="M432.408 149.304C430.574 151.756 428.74 154.209 426.906 156.661C426.649 157.008 426.38 157.354 426.123 157.714C425.867 158.061 426.072 158.613 426.405 158.818C426.816 159.062 427.239 158.882 427.509 158.536C429.343 156.083 431.177 153.631 433.011 151.178C433.268 150.832 433.537 150.485 433.794 150.125C434.05 149.779 433.845 149.227 433.511 149.021C433.101 148.777 432.678 148.957 432.408 149.304Z" fill="#262433"/>
<path d="M437.988 173.674C435.217 170.669 432.46 167.665 429.689 164.66C429.304 164.237 428.907 163.813 428.522 163.389C427.816 162.632 426.688 163.762 427.393 164.519C430.164 167.524 432.921 170.528 435.692 173.533C436.077 173.956 436.474 174.38 436.859 174.804C437.552 175.561 438.68 174.432 437.988 173.674Z" fill="#262433"/>
<path d="M424.866 147.121C424.789 153.22 421.839 159.666 416.003 162.195C410.423 164.622 404.292 162.144 400.957 157.29C397.276 151.949 396.891 144.514 399.867 138.762C402.535 133.626 408.05 129.992 413.964 131.366C420.993 133.01 424.776 140.329 424.866 147.121C424.879 148.148 426.482 148.161 426.47 147.121C426.393 140.316 422.993 133.228 416.439 130.506C410.282 127.951 403.587 130.544 399.803 135.796C395.583 141.651 395.173 149.92 398.469 156.289C401.47 162.092 407.781 165.957 414.374 164.429C422.121 162.632 426.38 154.607 426.47 147.134C426.482 146.081 424.879 146.081 424.866 147.121Z" fill="#262433"/>
<path d="M390.029 146.505C389.965 152.065 387.694 158.395 382.384 160.989C377.33 163.454 372.007 160.655 369.275 156.174C366.133 151.012 365.838 144.066 368.352 138.596C370.507 133.922 375.201 129.967 380.614 131.38C387.092 133.049 389.965 140.432 390.029 146.505C390.042 147.532 391.645 147.545 391.632 146.505C391.555 140.265 388.874 133.229 382.846 130.481C377.305 127.951 371.443 130.673 368.236 135.488C364.44 141.202 364.132 149.073 366.966 155.236C369.404 160.526 374.816 164.687 380.858 163.236C388.143 161.489 391.555 153.336 391.632 146.505C391.645 145.465 390.042 145.465 390.029 146.505Z" fill="#262433"/>
<path d="M391.042 148.572C391.222 148.495 391.414 148.443 391.606 148.392C391.812 148.328 392.03 148.289 392.248 148.238C392.376 148.212 392.504 148.187 392.632 148.174C392.697 148.161 392.838 148.148 392.697 148.161C392.786 148.148 392.863 148.135 392.953 148.135C393.261 148.11 393.582 148.097 393.889 148.097C394.236 148.11 394.518 148.135 394.762 148.187C395.454 148.315 396.057 148.546 396.596 148.957C396.942 149.227 397.391 149.291 397.725 148.957C398.007 148.675 398.071 148.084 397.725 147.827C396.391 146.8 394.762 146.389 393.094 146.517C392.26 146.582 391.388 146.723 390.606 147.031C390.208 147.185 389.926 147.57 390.041 148.02C390.17 148.405 390.644 148.739 391.042 148.572Z" fill="#262433"/>
<path d="M465.091 446.409L389.195 428.407C379.126 426.019 372.905 415.914 375.291 405.847L401.624 294.55C404.01 284.47 414.105 278.243 424.161 280.631L500.056 298.633C510.125 301.021 516.346 311.126 513.96 321.193L487.627 432.49C485.254 442.557 475.16 448.797 465.091 446.409Z" fill="#262433"/>
<path d="M438.155 410.713C438.155 410.713 370.892 374.979 363.157 361.883C355.423 348.786 389.567 373.426 389.567 373.426C389.567 373.426 364.029 358.044 366.518 351.521C368.993 344.998 395.609 365.619 395.609 365.619C395.609 365.619 367.467 345.987 370.994 341.197C374.521 336.421 401.701 358.21 401.701 358.21C401.701 358.21 372.841 338.578 376.856 332.89C380.871 327.215 408.461 349.608 408.461 349.608C408.461 349.608 393.171 333.429 397.751 330.45C402.33 327.471 426.572 355.45 459.332 372.386C492.104 389.347 438.155 410.713 438.155 410.713Z" fill="#F4F4F4" stroke="#262433" stroke-miterlimit="10"/>
<path d="M563.202 391.582C497.004 377.342 459.088 366.017 459.088 366.017L430.254 416.774C489.346 486.88 650.205 496.176 597.257 370.909L563.202 391.582Z" fill="white"/>
<path d="M597.257 370.909C650.205 496.176 489.346 486.88 430.254 416.774L459.088 366.017C459.088 366.017 498.094 378.433 563.202 391.582" stroke="#262433" stroke-miterlimit="10"/>
<path d="M474.147 370.447C465.001 367.636 459.088 366.031 459.088 366.031L430.254 416.787C434.486 421.808 439.258 426.533 444.427 430.924L474.147 370.447Z" fill="white" stroke="#262433" stroke-miterlimit="10"/>
<path d="M386.963 385.855C381.794 403.189 371.033 418.16 357.885 430.384C352.383 435.507 346.572 440.284 340.582 444.791H250.385C252.271 443.994 254.156 443.186 256.042 442.377C258.979 441.093 261.903 439.77 264.815 438.435C280.771 430.808 296.356 422.244 310.837 412.049C314.595 409.404 318.264 406.643 321.817 403.754C327.884 398.477 333.566 392.737 338.44 386.33C340.48 383.21 342.301 379.949 343.802 376.533C344.482 374.363 345.007 372.155 345.379 369.908C345.418 368.072 345.354 366.235 345.161 364.412C344.443 361.485 343.481 358.621 342.314 355.835C339.056 349.505 334.99 343.611 330.552 338.052C317.687 323.029 302.487 310.035 286.838 298.042C282.875 295.012 278.86 292.046 274.82 289.131C259.543 278.358 243.792 268.253 227.733 258.7C227.656 258.662 227.592 258.611 227.515 258.572L258.671 225.946C274.679 235.794 290.263 246.246 305.488 257.262C320.175 267.894 334.451 279.219 347.47 291.866C354.602 298.8 361.207 306.208 367.441 313.977C372.02 319.69 376.228 325.751 379.575 332.274C381.871 336.755 384.09 341.364 385.745 346.128C387.4 350.93 388.272 355.938 389.003 360.958C389.477 364.194 389.554 367.468 389.298 370.729C388.887 375.865 388.451 380.899 386.963 385.855Z" fill="#F4F4F4" stroke="#262433" stroke-miterlimit="10"/>
<path d="M218.152 204.297C218.152 204.297 300.191 218.177 370.225 296.668L319.341 346.128L259.71 312.372L218.152 204.297Z" fill="#032FF2" stroke="#262433" stroke-miterlimit="10"/>
<path d="M359.553 285.292C363.131 288.926 366.697 292.714 370.224 296.668L319.341 346.128L304.206 337.564L359.553 285.292Z" fill="#8CA7F4" stroke="#262433" stroke-miterlimit="10"/>
<path d="M14.0796 385.855C19.2487 403.189 30.0103 418.16 43.1576 430.384C48.6603 435.507 54.4707 440.284 60.4608 444.791H150.658C148.772 443.994 146.887 443.186 145.001 442.377C142.064 441.093 139.14 439.77 136.228 438.435C120.272 430.808 104.687 422.244 90.2058 412.049C86.4476 409.404 82.7792 406.643 79.2262 403.754C73.1592 398.477 67.477 392.737 62.6029 386.33C60.5634 383.21 58.742 379.949 57.2413 376.533C56.5615 374.363 56.0356 372.155 55.6636 369.908C55.6251 368.072 55.6893 366.235 55.8817 364.412C56.6 361.485 57.562 358.621 58.7292 355.835C61.9872 349.505 66.0532 343.611 70.4912 338.052C83.3564 323.029 98.556 310.035 114.205 298.042C118.168 295.012 122.183 292.046 126.223 289.131C141.5 278.358 157.251 268.253 173.31 258.7C173.387 258.662 173.451 258.611 173.528 258.572L142.372 225.946C126.364 235.794 110.78 246.246 95.5546 257.262C80.868 267.894 66.5919 279.219 53.5729 291.866C46.4412 298.8 39.8355 306.208 33.6018 313.977C29.0226 319.69 24.8155 325.751 21.4677 332.274C19.1718 336.755 16.9527 341.364 15.2981 346.128C13.6435 350.93 12.7713 355.938 12.0401 360.958C11.5655 364.194 11.4886 367.468 11.7451 370.729C12.1556 375.865 12.6045 380.899 14.0796 385.855Z" fill="#F4F4F4" stroke="#262433" stroke-miterlimit="10"/>
<path d="M182.891 204.297C182.891 204.297 100.852 218.177 30.8182 296.668L81.7016 346.128L141.333 312.372L182.891 204.297Z" fill="#032FF2" stroke="#262433" stroke-miterlimit="10"/>
<path d="M41.49 285.292C37.9114 288.926 34.3456 292.714 30.8182 296.668L81.7016 346.128L96.8371 337.564L41.49 285.292Z" fill="#8CA7F4" stroke="#262433" stroke-miterlimit="10"/>
<path d="M299.229 444.791C299.358 440.001 299.435 435.186 299.435 430.32C299.435 304.128 253.951 201.819 197.847 201.819C141.743 201.819 96.26 304.116 96.26 430.32C96.26 435.186 96.337 440.001 96.4652 444.791H299.229Z" fill="#032FF2" stroke="#262433" stroke-miterlimit="10"/>
<path d="M117.411 306.966V336.113C117.411 344.523 124.222 351.328 132.611 351.328H143.642C152.043 351.328 158.841 344.51 158.841 336.113V306.966H117.411Z" fill="#032FF2" stroke="#262433" stroke-miterlimit="10"/>
<path d="M158.841 306.966H117.411V317.777H158.841V306.966Z" fill="#8CA7F4" stroke="#262433" stroke-miterlimit="10"/>
<path d="M146.707 263.901C148.349 249.507 152.633 235.152 160.406 222.838C166.614 213.003 175.478 204.105 186.739 200.42C196.937 197.094 207.801 198.75 216.895 204.31C227.246 210.64 234.685 220.938 239.778 231.762C246.935 246.965 249.718 264.029 249.295 280.747C249.244 282.814 252.45 282.814 252.502 280.747C252.912 264.941 250.449 248.891 244.357 234.24C239.419 222.389 232.056 211.18 221.551 203.565C212.303 196.863 200.772 193.871 189.51 196.324C177.504 198.943 167.653 207.225 160.522 216.932C150.543 230.529 145.373 247.26 143.475 263.875C143.27 265.942 146.476 265.929 146.707 263.901Z" fill="#262433"/>
<path d="M252.695 301.052C258.42 298.806 261.241 292.339 258.997 286.608C256.752 280.878 250.292 278.054 244.568 280.3C238.843 282.547 236.022 289.014 238.266 294.744C240.51 300.475 246.971 303.299 252.695 301.052Z" fill="#C0C0C0" stroke="#262433" stroke-miterlimit="10"/>
<path d="M254.631 290.659C254.631 293.972 251.95 296.668 248.628 296.668C245.306 296.668 242.625 293.985 242.625 290.659C242.625 287.346 245.306 284.65 248.628 284.65C251.95 284.65 254.631 287.346 254.631 290.659Z" fill="#F4F4F4" stroke="#262433" stroke-miterlimit="10"/>
<path d="M132.521 303.268C131.072 296.168 131.071 288.656 132.893 281.607C134.24 276.407 136.69 270.821 141.128 267.509C144.758 264.799 149.273 264.517 153.185 266.815C157.879 269.576 160.932 274.738 162.805 279.707C165.755 287.513 166.486 296.232 165.114 304.462C164.78 306.478 167.871 307.351 168.205 305.31C169.564 297.143 169.103 288.566 166.537 280.67C164.562 274.609 161.265 268.562 155.981 264.812C151.607 261.705 146.015 261.101 141.23 263.657C136.01 266.443 132.752 272.015 130.828 277.408C127.788 285.883 127.634 295.359 129.43 304.116C129.84 306.144 132.931 305.284 132.521 303.268Z" fill="#262433"/>
<path d="M128.16 333.326C128.16 333.326 136.574 343.188 149.696 334.97C162.831 326.752 166.371 310.946 167.371 301.804" stroke="#262433" stroke-miterlimit="10"/>
<path d="M129.892 331.824C129.892 333.326 128.673 334.533 127.185 334.533C125.684 334.533 124.479 333.313 124.479 331.824C124.479 330.322 125.697 329.115 127.185 329.115C128.673 329.115 129.892 330.335 129.892 331.824Z" fill="white" stroke="#262433" stroke-miterlimit="10"/>
<path d="M170.424 333.172C170.424 333.172 162.138 343.136 148.901 335.098C135.664 327.048 131.918 311.293 130.802 302.164" stroke="#262433" stroke-miterlimit="10"/>
<path d="M168.667 331.708C168.692 333.211 169.911 334.405 171.411 334.392C172.912 334.366 174.105 333.147 174.092 331.644C174.079 330.142 172.848 328.948 171.347 328.961C169.847 328.974 168.654 330.206 168.667 331.708Z" fill="white" stroke="#262433" stroke-miterlimit="10"/>
<path d="M198.206 241.931L222.859 208.817C218.742 206.467 214.535 204.683 210.238 203.514L210.405 185.589C210.456 179.388 205.441 174.265 199.245 174.213L194.448 174.175C188.253 174.123 183.135 179.144 183.084 185.346L182.917 204.31C177.825 206.005 172.848 208.56 168.025 211.886L198.206 241.931Z" fill="#F4F4F4" stroke="#262433" stroke-miterlimit="10"/>
<path d="M167.191 212.425L199.438 248.57L227.323 211.603C223.565 209.048 219.717 206.955 215.792 205.376L199.335 231.043L177.722 206.313C174.131 207.944 170.629 209.986 167.191 212.425Z" fill="#8CA7F4" stroke="#262433" stroke-miterlimit="10"/>
<path d="M234.865 151.024C234.865 151.024 245.344 137.144 240.675 118.321C236.007 99.4973 201.003 89.7132 196.808 90.8816C192.614 92.0501 176.619 92.8461 176.619 92.8461C176.619 92.8461 157.456 92.7691 154.968 111.618C152.492 130.467 160.894 152.526 161.522 155.544C162.151 158.561 223 171.953 234.865 151.024Z" fill="#262433"/>
<path d="M247.32 156.276C247.486 161.836 243.087 166.497 237.482 166.663C231.876 166.83 227.195 162.465 227.028 156.892C226.861 151.332 231.261 146.672 236.866 146.505C242.471 146.338 247.153 150.703 247.32 156.276Z" fill="#F4F4F4" stroke="#262433" stroke-miterlimit="10"/>
<path d="M232.505 158.086C232.479 157.868 232.492 157.65 232.492 157.444C232.492 157.213 232.518 156.982 232.543 156.751C232.556 156.661 232.531 156.494 232.543 156.738C232.543 156.674 232.569 156.597 232.582 156.533C232.608 156.378 232.633 156.224 232.672 156.07C232.749 155.749 232.838 155.441 232.954 155.146C233.031 154.94 232.89 155.274 232.98 155.082C233.018 155.005 233.044 154.94 233.082 154.863C233.172 154.696 233.262 154.53 233.364 154.363C233.403 154.298 233.454 154.221 233.505 154.157C233.634 153.977 233.428 154.247 233.57 154.08C233.711 153.926 233.839 153.772 233.993 153.631C234.057 153.567 234.121 153.515 234.198 153.464C234.326 153.348 234.095 153.541 234.185 153.477C234.224 153.451 234.262 153.425 234.301 153.4C234.48 153.271 234.66 153.169 234.865 153.066C234.904 153.04 234.955 153.027 234.993 153.002C235.032 152.989 235.07 152.963 235.109 152.95C235.019 152.989 235.006 152.989 235.096 152.963C235.211 152.925 235.327 152.873 235.455 152.835C235.712 152.758 235.981 152.693 236.25 152.642C236.263 152.642 236.507 152.604 236.327 152.629C236.404 152.616 236.481 152.616 236.545 152.604C236.699 152.591 236.853 152.578 237.02 152.578C237.392 152.565 237.764 152.578 238.136 152.604C238.559 152.629 238.918 152.218 238.918 151.82C238.918 151.371 238.559 151.063 238.136 151.037C235.917 150.87 233.659 151.435 232.261 153.271C231.402 154.401 231.03 155.839 230.953 157.239C230.94 157.534 230.927 157.829 230.953 158.112C230.991 158.536 231.286 158.895 231.735 158.895C232.107 158.869 232.543 158.51 232.505 158.086Z" fill="#0C0C0C"/>
<path d="M147.721 157.701C147.887 163.261 152.569 167.639 158.174 167.472C163.78 167.305 168.192 162.644 168.012 157.085C167.846 151.525 163.164 147.147 157.559 147.313C151.966 147.493 147.554 152.141 147.721 157.701Z" fill="#F4F4F4" stroke="#262433" stroke-miterlimit="10"/>
<path d="M164.19 158.561C164.28 155.968 162.946 153.246 160.47 152.244C159.188 151.718 157.777 151.73 156.43 151.923C156.007 151.974 155.776 152.514 155.878 152.886C156.007 153.335 156.417 153.49 156.84 153.438C157.867 153.297 158.829 153.335 159.778 153.669C159.829 153.682 160.111 153.811 159.945 153.733C160.034 153.772 160.124 153.823 160.214 153.862C160.406 153.965 160.586 154.08 160.765 154.196C160.945 154.324 160.701 154.132 160.868 154.273C160.932 154.337 161.009 154.388 161.073 154.453C161.214 154.581 161.33 154.722 161.458 154.863C161.484 154.902 161.509 154.928 161.535 154.966C161.42 154.812 161.484 154.889 161.509 154.928C161.561 155.005 161.612 155.069 161.65 155.133C161.753 155.287 161.843 155.441 161.933 155.608C161.971 155.685 162.01 155.749 162.035 155.826C162.061 155.878 162.164 156.135 162.074 155.903C162.138 156.058 162.189 156.212 162.24 156.366C162.33 156.648 162.407 156.931 162.471 157.213C162.497 157.342 162.523 157.47 162.536 157.585C162.548 157.675 162.625 157.842 162.536 157.585C162.548 157.637 162.548 157.714 162.561 157.765C162.587 158.022 162.612 158.292 162.6 158.561C162.587 159.576 164.152 159.563 164.19 158.561Z" fill="#0C0C0C"/>
<path d="M165.46 164.314C165.588 177.141 176.183 187.528 188.997 187.4L206.556 187.22C219.37 187.092 229.747 176.486 229.619 163.659L229.234 125.242C229.106 112.414 218.511 102.027 205.697 102.155L188.137 102.335C175.324 102.463 164.947 113.069 165.075 125.896L165.46 164.314Z" fill="#F4F4F4" stroke="#262433" stroke-miterlimit="10"/>
<path d="M199.681 143.076C199.643 147.005 199.604 150.947 199.566 154.876C199.566 155.441 199.553 156.006 199.553 156.571C199.54 157.598 201.143 157.611 201.156 156.571C201.195 152.642 201.233 148.7 201.272 144.771C201.272 144.206 201.285 143.641 201.285 143.076C201.297 142.049 199.694 142.049 199.681 143.076Z" fill="#262433"/>
<path d="M173.746 138.184C175.195 137.619 176.632 137.041 178.081 136.476C178.287 136.399 178.505 136.31 178.71 136.233C179.095 136.078 179.415 135.693 179.274 135.244C179.146 134.871 178.71 134.525 178.287 134.679C176.837 135.244 175.401 135.822 173.951 136.387C173.746 136.464 173.528 136.553 173.323 136.631C172.938 136.785 172.617 137.17 172.758 137.619C172.887 138.004 173.335 138.351 173.746 138.184Z" fill="#262433"/>
<path d="M215.471 138.287C217.023 138.248 218.575 138.21 220.127 138.171C220.345 138.171 220.576 138.159 220.794 138.159C221.217 138.146 221.615 137.799 221.602 137.35C221.589 136.926 221.256 136.541 220.794 136.541C219.242 136.579 217.69 136.618 216.138 136.656C215.92 136.656 215.689 136.669 215.471 136.669C215.048 136.682 214.65 137.029 214.663 137.478C214.689 137.902 215.022 138.287 215.471 138.287Z" fill="#262433"/>
<path d="M214.432 143.962C214.522 146.017 216.254 147.609 218.306 147.519C220.358 147.429 221.949 145.696 221.859 143.641C221.769 141.587 220.037 139.995 217.985 140.084C215.933 140.174 214.342 141.908 214.432 143.962Z" fill="#0C0C0C"/>
<path d="M175.093 143.962C175.183 146.017 176.914 147.609 178.966 147.519C181.019 147.429 182.609 145.696 182.519 143.641C182.43 141.587 180.698 139.995 178.646 140.084C176.593 140.174 175.003 141.908 175.093 143.962Z" fill="#0C0C0C"/>
<path d="M229.555 155.634C224.309 160.141 215.458 163.312 209.404 154.928C204.286 147.827 195.128 147.159 185.239 155.57C176.683 162.837 167.153 156.468 165.37 155.159L165.46 164.327C165.588 177.154 176.183 187.541 188.997 187.413L206.557 187.233C219.37 187.105 229.747 176.499 229.619 163.672L229.555 155.634Z" fill="white" stroke="#262433" stroke-miterlimit="10"/>
<path d="M159.675 108.716C161.92 105.571 169.885 100.358 176.106 97.6098C174.811 68.6813 252.13 52.2975 235.878 93.9889C235.878 93.9889 261.416 83.1135 265.7 95.9149C276.116 127.065 201.785 136.836 180.749 109.204C176.337 110.848 170.898 114.032 169.821 119.887C167.948 130.044 165.332 152.501 165.332 152.501C165.332 152.501 164.087 147.082 161.971 142.55C159.88 138.004 156.43 113.262 159.675 108.716Z" fill="#262433"/>
</svg>
