<svg id="Layer_1" data-name="Layer 1" xmlns="http://www.w3.org/2000/svg" xmlns:xlink="http://www.w3.org/1999/xlink" viewBox="0 0 117 108"><defs><style>.cls-1,.cls-2{fill:none;}.cls-13,.cls-2{clip-path:url(#clip-path);}.cls-3{fill:#ff83c7;}.cls-4{clip-path:url(#clip-path-2);}.cls-5{fill:#fd66b0;}.cls-6{clip-path:url(#clip-path-3);}.cls-7{fill:#ffb700;}.cls-8{clip-path:url(#clip-path-4);}.cls-9{fill:#ffce00;}.cls-10{fill:#ffe14f;}.cls-11{fill:#faf6f4;}.cls-12{clip-path:url(#clip-path-5);}.cls-14{fill:#ffcae7;}</style><clipPath id="clip-path"><path class="cls-1" d="M3.55,97.71a12.6,12.6,0,0,1-6.7-1.94l-18-11.26a5.17,5.17,0,0,1-1.64-7.14,5.17,5.17,0,0,1,7.13-1.63L2.34,87a2.33,2.33,0,0,0,3.26-.81l7.45-12.93a9.91,9.91,0,0,1,11.51-4.53l29.83,9.17a.68.68,0,0,0,.54-.08l15.5-10a14.47,14.47,0,0,1,15.4-.24L113,84a2.12,2.12,0,0,0,2.15,0l11.68-8.11a9.58,9.58,0,0,1,13.27,2.36l3.57,5.07a5.18,5.18,0,1,1-8.47,6l-3.12-4.43L121,92.61l-.17.11a12.45,12.45,0,0,1-6.55,2h-.14a12.46,12.46,0,0,1-6.46-1.8L80.46,76.38a4.16,4.16,0,0,0-4.4.06L60.57,86.5a11,11,0,0,1-9.22,1.28l-29.5-9.06L14.57,91.35a12.59,12.59,0,0,1-7.92,6A12.66,12.66,0,0,1,3.55,97.71Z"/></clipPath><clipPath id="clip-path-2"><rect class="cls-1" width="117" height="108"/></clipPath><clipPath id="clip-path-3"><rect class="cls-1" x="-13.72" width="162" height="108"/></clipPath><clipPath id="clip-path-4"><path class="cls-1" d="M108.3,48.91a7.76,7.76,0,0,1-5-1.87L72.81,20.81l-.09-.07a.2.2,0,0,0-.14-.06h0L30.33,42.21A7.72,7.72,0,0,1,19.2,34.06L21.88,18a5.18,5.18,0,0,1,10.21,1.7L30.27,30.62l38-19.34a4,4,0,0,1,.43-.19A10.48,10.48,0,0,1,79.6,13l27.49,23.68L122.81-8.39a5.17,5.17,0,0,1,6.59-3.18A5.16,5.16,0,0,1,132.58-5l-17,48.71a7.7,7.7,0,0,1-7.29,5.18Z"/></clipPath><clipPath id="clip-path-5"><path class="cls-1" d="M-23.1,76.12A5.19,5.19,0,0,1-26.35,75a5.19,5.19,0,0,1-.78-7.28L-9.5,45.83A12.88,12.88,0,0,1,3.92,41.49l.37.12L44.57,55.93a.53.53,0,0,0,.57-.14L60.85,39.66a9.2,9.2,0,0,1,11-1.64l39.69,21.71a1.24,1.24,0,0,0,1.32-.08l31-22.34a5.18,5.18,0,0,1,6.67.53L172,59.17a5.18,5.18,0,1,1-7.3,7.34L146.33,48.28,118.88,68.05a11.64,11.64,0,0,1-12.34.77L67.64,47.54,52.56,63A10.93,10.93,0,0,1,41.1,65.68L1.05,51.45a2.52,2.52,0,0,0-2.49.88L-19.07,74.19A5.16,5.16,0,0,1-23.1,76.12Z"/></clipPath></defs><title>visual-dotcom_navi_featured_desktop-how_to_reduce_anxiety-202000805-kh</title><rect class="cls-3" width="117" height="108"/><g class="cls-4"><rect class="cls-3" x="-13.72" width="162" height="108"/><path class="cls-5" d="M108.3,53.64a7.76,7.76,0,0,1-5-1.87L72.81,25.54l-.09-.08a.19.19,0,0,0-.14-.05L30.33,46.94A7.73,7.73,0,0,1,19.2,38.78a4.15,4.15,0,0,1,.14-.61l5.11-17.29a5.18,5.18,0,1,1,9.93,2.93L31.1,34.92,68.23,16l.43-.19A10.5,10.5,0,0,1,79.6,17.72l27.66,23.83,19-45.9a5.16,5.16,0,0,1,6.76-2.79,5.17,5.17,0,0,1,2.8,6.76l-20.32,49a7.77,7.77,0,0,1-7.23,5Z"/><g class="cls-6"><path class="cls-5" d="M3.55,103.24a12.6,12.6,0,0,1-6.7-1.94L-21.12,90a5.16,5.16,0,0,1-1.64-7.13,5.17,5.17,0,0,1,7.13-1.64l18,11.26a2.35,2.35,0,0,0,3.26-.81l7.45-12.94a9.92,9.92,0,0,1,11.51-4.52l29.83,9.16a.61.61,0,0,0,.54-.08l15.5-10a14.49,14.49,0,0,1,15.4-.23L113,89.55a2.08,2.08,0,0,0,2.15,0l11.68-8.1a9.59,9.59,0,0,1,13.27,2.35l3.57,5.08a5.18,5.18,0,0,1-8.47,6l-3.12-4.44L121,98.14l-.17.11a12.41,12.41,0,0,1-13.15.15L80.46,81.91a4.16,4.16,0,0,0-4.4.07L60.57,92a11,11,0,0,1-9.22,1.29l-29.5-9.06L14.57,96.89a12.59,12.59,0,0,1-7.92,6A12.65,12.65,0,0,1,3.55,103.24Z"/><path class="cls-5" d="M-23.1,80.17A5.19,5.19,0,0,1-26.35,79a5.19,5.19,0,0,1-.78-7.28L-9.5,49.88A12.88,12.88,0,0,1,3.92,45.54l.37.12L44.57,60a.53.53,0,0,0,.57-.14L60.85,43.71a9.2,9.2,0,0,1,11-1.64l39.69,21.71a1.24,1.24,0,0,0,1.32-.08l31-22.34a5.16,5.16,0,0,1,6.67.53L172,63.22a5.18,5.18,0,1,1-7.3,7.34L146.33,52.33,118.88,72.1a11.64,11.64,0,0,1-12.34.77L67.64,51.59,52.56,67.07A10.93,10.93,0,0,1,41.1,69.73L1.05,55.5a2.52,2.52,0,0,0-2.49.88L-19.07,78.24A5.16,5.16,0,0,1-23.1,80.17Z"/><path class="cls-7" d="M108.3,48.91a7.76,7.76,0,0,1-5-1.87L72.81,20.81l-.09-.07a.2.2,0,0,0-.14-.06h0L30.33,42.21A7.72,7.72,0,0,1,19.2,34.06L21.88,18a5.18,5.18,0,0,1,10.21,1.7L30.27,30.62l38-19.34a4,4,0,0,1,.43-.19A10.48,10.48,0,0,1,79.6,13l27.49,23.68L122.81-8.39a5.17,5.17,0,0,1,6.59-3.18A5.16,5.16,0,0,1,132.58-5l-17,48.71a7.7,7.7,0,0,1-7.29,5.18Z"/><g class="cls-8"><path class="cls-1" d="M108.3,48.91a7.76,7.76,0,0,1-5-1.87L72.81,20.81l-.09-.07a.2.2,0,0,0-.14-.06h0L30.33,42.21A7.72,7.72,0,0,1,19.2,34.06L21.88,18a5.18,5.18,0,0,1,10.21,1.7L30.27,30.62l38-19.34a4,4,0,0,1,.43-.19A10.48,10.48,0,0,1,79.6,13l27.49,23.68L122.81-8.39a5.17,5.17,0,0,1,6.59-3.18A5.16,5.16,0,0,1,132.58-5l-17,48.71a7.7,7.7,0,0,1-7.29,5.18Z"/><path class="cls-9" d="M108.16,44.29a7.73,7.73,0,0,1-5-1.87L72.67,16.19l-.08-.07a.19.19,0,0,0-.14-.05h0L30.19,37.59a7.73,7.73,0,0,1-11.13-8.15l2.68-16.08A5.18,5.18,0,0,1,32,15.06L30.13,26l38-19.34a3.3,3.3,0,0,1,.43-.19A10.48,10.48,0,0,1,79.47,8.38L107,32.06,122.67-13a5.18,5.18,0,0,1,6.6-3.18,5.17,5.17,0,0,1,3.18,6.59l-17,48.71a7.72,7.72,0,0,1-5.3,4.92A7.58,7.58,0,0,1,108.16,44.29Z"/><polygon class="cls-10" points="14.23 25.25 32.59 24.7 31.51 28.75 14.77 37.53 14.23 25.25"/><polygon class="cls-11" points="33.26 27 34.07 42.66 48.65 34.7 42.44 21.6 33.26 27"/><polygon class="cls-10" points="51.76 14.71 58.78 30.38 70.39 23.63 62.29 11.07 51.76 14.71"/><polygon class="cls-11" points="73.63 24.03 81.73 11.74 90.77 20.35 81.18 31.96 73.63 24.03"/><polygon class="cls-10" points="89.9 38.23 96.79 25.27 105.81 33.28 98.25 46.78 89.9 38.23"/><polygon class="cls-11" points="107.24 33.2 118.31 43.59 125.56 27.06 112.06 19.1 107.24 33.2"/><polygon class="cls-10" points="114.8 7.96 128.71 14.98 133.27 0.4 117.37 -2.83 114.8 7.96"/></g><path class="cls-9" d="M-23.1,76.12A5.19,5.19,0,0,1-26.35,75a5.19,5.19,0,0,1-.78-7.28L-9.5,45.83A12.88,12.88,0,0,1,3.92,41.49l.37.12L44.57,55.93a.53.53,0,0,0,.57-.14L60.85,39.66a9.2,9.2,0,0,1,11-1.64l39.69,21.71a1.24,1.24,0,0,0,1.32-.08l31-22.34a5.16,5.16,0,0,1,6.67.53L172,59.17a5.18,5.18,0,1,1-7.3,7.34L146.33,48.28,118.88,68.05a11.64,11.64,0,0,1-12.34.77L67.64,47.54,52.56,63A10.93,10.93,0,0,1,41.1,65.68L1.05,51.45a2.52,2.52,0,0,0-2.49.88L-19.07,74.19A5.16,5.16,0,0,1-23.1,76.12Z"/><g class="cls-12"><path class="cls-7" d="M-23.1,76.12A5.19,5.19,0,0,1-26.35,75a5.19,5.19,0,0,1-.78-7.28L-9.5,45.83A12.88,12.88,0,0,1,3.92,41.49l.37.12L44.57,55.93a.53.53,0,0,0,.57-.14L60.85,39.66a9.2,9.2,0,0,1,11-1.64l39.69,21.71a1.24,1.24,0,0,0,1.32-.08l31-22.34a5.18,5.18,0,0,1,6.67.53L172,59.17a5.18,5.18,0,1,1-7.3,7.34L146.33,48.28,118.88,68.05a11.64,11.64,0,0,1-12.34.77L67.64,47.54,52.56,63A10.93,10.93,0,0,1,41.1,65.68L1.05,51.45a2.52,2.52,0,0,0-2.49.88L-19.07,74.19A5.16,5.16,0,0,1-23.1,76.12Z"/><path class="cls-9" d="M-23.91,71.93a5.18,5.18,0,0,1-3.25-1.14,5.19,5.19,0,0,1-.78-7.28l17.63-21.86A12.87,12.87,0,0,1,3.11,37.31l.37.11L43.76,51.74a.55.55,0,0,0,.57-.13L60,35.48a9.21,9.21,0,0,1,11-1.65L110.7,55.55a1.26,1.26,0,0,0,1.32-.08l31-22.34a5.16,5.16,0,0,1,6.67.53L171.17,55a5.18,5.18,0,0,1-7.3,7.34L145.52,44.09,118.07,63.87a11.66,11.66,0,0,1-12.34.76L66.83,43.35,51.75,58.84A11,11,0,0,1,40.29,61.5L.24,47.26a2.51,2.51,0,0,0-2.49.89L-19.88,70A5.15,5.15,0,0,1-23.91,71.93Z"/><polygon class="cls-10" points="-11.42 44.01 -1.03 55.08 2.35 54 4.24 37.53 -2.51 36.45 -11.42 44.01"/><polygon class="cls-11" points="15.85 43.06 12.07 57.1 23 60.75 27.19 46.17 15.85 43.06"/><polygon class="cls-10" points="35.15 49.14 31.78 64.94 43.39 68.44 44.2 51.7 35.15 49.14"/><polygon class="cls-11" points="47.44 48.87 56.08 61.16 63.37 53.59 53.65 43.06 47.44 48.87"/><polygon class="cls-10" points="67.55 49.55 60.26 34.16 70.39 32.8 78.35 37.53 70.79 51.03 67.55 49.55"/><polygon class="cls-11" points="77.27 55.08 84.02 41.85 94.42 48.33 87.94 61.42 77.27 55.08"/><polygon class="cls-10" points="95.54 66.51 100.26 51.25 109.51 55.54 106.41 71.61 95.54 66.51"/><polygon class="cls-11" points="114.4 53.46 122.77 67.5 133.03 58.73 122.9 47.79 114.4 53.46"/></g><path class="cls-7" d="M3.55,97.71a12.6,12.6,0,0,1-6.7-1.94l-18-11.26a5.17,5.17,0,0,1-1.64-7.14,5.18,5.18,0,0,1,7.13-1.64L2.34,87a2.33,2.33,0,0,0,3.26-.81l7.45-12.93a9.91,9.91,0,0,1,11.51-4.53l29.83,9.17a.68.68,0,0,0,.54-.08l15.5-10a14.47,14.47,0,0,1,15.4-.24L113,84a2.1,2.1,0,0,0,2.15,0l11.68-8.11a9.59,9.59,0,0,1,13.27,2.36l3.57,5.07a5.18,5.18,0,1,1-8.47,6l-3.12-4.43L121,92.61l-.17.11a12.47,12.47,0,0,1-13.15.15L80.46,76.38a4.16,4.16,0,0,0-4.4.06L60.57,86.5a11,11,0,0,1-9.22,1.28l-29.5-9.06L14.57,91.35a12.59,12.59,0,0,1-7.92,6A12.66,12.66,0,0,1,3.55,97.71Z"/><g class="cls-13"><path class="cls-9" d="M2.88,93.93A12.63,12.63,0,0,1-3.83,92l-18-11.26a5.19,5.19,0,0,1-1.64-7.14A5.19,5.19,0,0,1-16.3,72l18,11.26a2.32,2.32,0,0,0,3.25-.81l7.46-12.93a9.91,9.91,0,0,1,11.5-4.53l29.84,9.17a.68.68,0,0,0,.54-.08L69.75,64a14.48,14.48,0,0,1,15.41-.24l27.18,16.49a2.12,2.12,0,0,0,2.15,0l11.67-8.11a9.58,9.58,0,0,1,13.27,2.36L143,79.57a5.18,5.18,0,1,1-8.47,6l-3.11-4.43-11.14,7.73-.16.11a12.48,12.48,0,0,1-6.55,2h-.15a12.43,12.43,0,0,1-6.45-1.8L79.79,72.6a4.16,4.16,0,0,0-4.4.06L59.89,82.72A11,11,0,0,1,50.68,84l-29.5-9.06L13.9,87.57a12.58,12.58,0,0,1-7.93,6A12.58,12.58,0,0,1,2.88,93.93Z"/><polygon class="cls-10" points="4.1 83.43 5.18 100.17 15.71 94.36 18.68 88.83 4.78 80.19 4.1 83.43"/><polygon class="cls-11" points="23.41 82.22 8.96 72.22 15.17 65.47 24.49 64.94 23.41 82.22"/><polygon class="cls-10" points="32.45 84.24 35.42 69.93 43.79 72.22 42.71 87.48 32.45 84.24"/><polygon class="cls-11" points="53.65 73.84 49.6 92.07 57.56 93.15 64.45 88.97 56.62 72.5 53.65 73.84"/><polygon class="cls-10" points="64.85 67.77 73.22 80.59 79.03 78.57 83.21 63.31 71.06 62.37 64.85 67.77"/><polygon class="cls-11" points="87.94 83.43 92.93 70.61 103.6 76.81 96.98 89.5 87.94 83.43"/><polygon class="cls-10" points="113.05 81.14 103.87 95.04 110.75 98.69 121.28 95.85 124.52 92.2 114.53 80.59 113.05 81.14"/></g></g><rect class="cls-9" x="20.64" y="6.95" width="6.17" height="4.96" rx="2.48" transform="translate(-1.46 5.24) rotate(-12.22)"/><rect class="cls-9" x="23.74" y="9.01" width="1.38" height="5.57" transform="translate(-2.65 10.17) rotate(-22.34)"/><rect class="cls-9" x="29.63" y="8.45" width="6.17" height="4.96" rx="2.48" transform="translate(13.95 -18.01) rotate(38.57)"/><rect class="cls-9" x="30.32" y="11.05" width="1.38" height="5.57" transform="translate(16 -16.63) rotate(39.72)"/><path class="cls-5" d="M94.55,95.63a1.23,1.23,0,0,1-.63-.18l-10.2-6.38A1.19,1.19,0,0,1,85,87l10.21,6.38a1.2,1.2,0,0,1-.64,2.21Z"/><path class="cls-5" d="M93.15,19.7a1.16,1.16,0,0,1-.64-.19L82.4,13a1.2,1.2,0,0,1,1.3-2L93.8,17.5a1.19,1.19,0,0,1-.65,2.2Z"/><path class="cls-5" d="M15.3,39.23a1.31,1.31,0,0,1-.8-.27A8.85,8.85,0,0,1,13,26.56a1.3,1.3,0,0,1,2,1.6,6.25,6.25,0,0,0,1.06,8.76,1.3,1.3,0,0,1-.8,2.31Z"/><path class="cls-5" d="M11.55,41.09a1.19,1.19,0,0,1-.75-.27,10.45,10.45,0,0,1-2.59-3.13,13.23,13.23,0,0,1,.1-12.09,1.2,1.2,0,0,1,2.15,1,10.86,10.86,0,0,0-.16,9.89,8.17,8.17,0,0,0,2,2.43,1.19,1.19,0,0,1-.76,2.12Z"/><path class="cls-14" d="M8.43,73.17a1.23,1.23,0,0,1-.49-.1,1.3,1.3,0,0,1-.72-1.68c1.91-4.77,5-7.18,10.16-7.81a1.29,1.29,0,1,1,.32,2.57c-4.18.52-6.52,2.31-8.07,6.2A1.3,1.3,0,0,1,8.43,73.17Z"/></g></svg>