<svg id="Layer_1" data-name="Layer 1" xmlns="http://www.w3.org/2000/svg" xmlns:xlink="http://www.w3.org/1999/xlink" viewBox="0 0 117 108"><defs><style>.cls-1{fill:none;}.cls-2{fill:#ffe14f;}.cls-3{clip-path:url(#clip-path);}.cls-4{fill:#ffce00;}.cls-5{fill:#ffb700;}.cls-6{fill:#0c6ff9;}.cls-7{fill:#033fff;}.cls-8{fill:#32aaff;}.cls-9{fill:#084fff;}.cls-10{fill:#fff;}.cls-11{fill:#ff7e1d;}.cls-12{fill:#e5e5e5;}</style><clipPath id="clip-path"><rect class="cls-1" width="117" height="108"/></clipPath></defs><title>visual-dotcom_navi_featured_desktop-meditation_for_anxiety-202000805-kh</title><rect class="cls-2" width="117" height="108"/><g class="cls-3"><rect class="cls-4" x="-19.61" y="74.35" width="162" height="33.65"/><polygon class="cls-5" points="-19.35 74.35 108.04 108 142.39 108 142.39 84.25 85.33 74.35 -19.35 74.35"/><path class="cls-6" d="M-19.35,74.35H86.36c-12.13,0-13.28-9.54-12.9-15.23.16-1.38.36-2.76.61-4.12h0a68.84,68.84,0,0,1,11.1-27.07c3.77-5.48-5.33-13-11.21-16.15C64.27,6.63,37.41,7.66,25.68,7.66,9.34,7.66-14.59,26.13-19.61,60V74.35Z"/><path class="cls-7" d="M137.32,68a87.26,87.26,0,0,0-12.2-3.86,39.62,39.62,0,0,0-22.71,1.64c-5.74,2.27-11.16,6.1-17.33,6.07-4.79,0-9.46-.89-11.12-6.17a21.22,21.22,0,0,1-.5-6.55c.16-1.38.36-2.76.61-4.12h0a68.84,68.84,0,0,1,4.34-14.72H67.92a10.74,10.74,0,0,1-10-6.87c-1.44-3.7-4.31-8.75-10-14.78A28.53,28.53,0,0,0,45,15.91C10.85,8.79-14.17,74.35,38.2,74.35H142.39V69.86L137.32,68"/><path class="cls-8" d="M25.68,7.66S38.86,9,47.92,18.63c5.7,6,8.57,11.08,10,14.78a10.74,10.74,0,0,0,10,6.87h28.6a5.24,5.24,0,0,0,4.16-8.41L95,24.47A42.76,42.76,0,0,0,61,7.66Z"/><path class="cls-9" d="M23.46,51.2a12.28,12.28,0,0,1,.38-4.83,1.06,1.06,0,0,1,1.42-.7l.85.33a1.08,1.08,0,0,1,.64,1.28,9.1,9.1,0,0,0-.28,3.43,1.08,1.08,0,0,1-.78,1.14l-.88.25a1.07,1.07,0,0,1-1.35-.9"/><path class="cls-10" d="M56,21a26.88,26.88,0,0,0-3.93-5,1.17,1.17,0,0,1,.6-2l.52-.11a4.22,4.22,0,0,1,3.21.6,17,17,0,0,1,5.35,5.92,1.17,1.17,0,0,1-.88,1.75l-2,.23A2.9,2.9,0,0,1,56,21"/><path class="cls-10" d="M60.34,40.26H99a6.22,6.22,0,0,0,5.82-8.49c-1.14-2.82-3.86-5.14-8.54-5.13h0q-.34,0-.69,0a8.84,8.84,0,0,0-5.59,2,8.85,8.85,0,0,0-11.16,0,8.85,8.85,0,0,0-11.16,0,8.85,8.85,0,0,0-12,.76,7.58,7.58,0,0,0-1.5,5.75l0,.08a6.22,6.22,0,0,0,6.12,5.07"/><path class="cls-9" d="M15.25,58.64a18,18,0,0,0,3.08,5.1c.16.18.31.37.48.54l.5.53c.34.34.68.68,1,1a24.47,24.47,0,0,0,2.21,1.77c.76.54,1.54,1,2.32,1.51a46.91,46.91,0,0,0,4.85,2.45q2.45,1.08,5,2,1.34.47,2.7.87h2.68q-2.46-1-4.82-2.2T30.72,69.6a43.59,43.59,0,0,1-4.21-2.91c-.66-.53-1.29-1.07-1.89-1.64a23.49,23.49,0,0,1-1.69-1.78c-.26-.31-.5-.63-.74-.94l-.35-.49-.32-.49a14.08,14.08,0,0,1-1.8-4.18A11.6,11.6,0,0,1,19.41,55a9,9,0,0,1,.15-2.28,2,2,0,0,0-1.34-2.3L16.8,50a2,2,0,0,0-2.65,1.75,14.16,14.16,0,0,0,.23,4,16.29,16.29,0,0,0,.87,3"/><path class="cls-11" d="M83.3,81.55c3.24,1.65,4.39,3.13,2.57,3.28S80,83.77,76.72,82.11,72.33,79,74.15,78.83s5.91,1.06,9.15,2.72"/><path class="cls-10" d="M76.58,78.59a1.81,1.81,0,1,1-1.81-1.8,1.8,1.8,0,0,1,1.81,1.8"/><path class="cls-12" d="M73.7,79.14a1.82,1.82,0,0,0,.38,1.12,1.82,1.82,0,0,0,2.5-1.67,1.47,1.47,0,1,0-2.88.55"/></g></svg>