<svg id="Layer_1" data-name="Layer 1" xmlns="http://www.w3.org/2000/svg" xmlns:xlink="http://www.w3.org/1999/xlink" viewBox="0 0 117 108"><defs><style>.cls-1{fill:none;}.cls-2{clip-path:url(#clip-path);}.cls-3{clip-path:url(#clip-path-2);}.cls-4{clip-path:url(#clip-path-3);}.cls-5{fill:#352587;}.cls-6{fill:#2b1a72;}.cls-7{fill:#1e1259;}.cls-8{fill:#8251a8;}.cls-9{fill:#613889;}.cls-10{fill:#b89fd1;}.cls-11{fill:#a273c6;}.cls-12{fill:#ffe14f;}.cls-13{fill:#3a2a96;}</style><clipPath id="clip-path"><rect class="cls-1" width="117" height="108"/></clipPath><clipPath id="clip-path-2"><rect class="cls-1" x="-7.36" y="-0.8" width="163.65" height="109.1"/></clipPath><clipPath id="clip-path-3"><rect class="cls-1" x="-179.18" y="-0.8" width="163.65" height="109.1"/></clipPath></defs><title>visual-dotcom_navi_featured_desktop-how_to_sleep_better-202000804-rc</title><g class="cls-2"><g class="cls-3"><g class="cls-4"><path class="cls-5" d="M-24-37.26-44.32,31.22A2.38,2.38,0,0,0-42,34.27H-1A2.37,2.37,0,0,0,1.3,31.21L-19.45-37.27a2.38,2.38,0,0,0-4.56,0"/><path class="cls-5" d="M-24.2-62.69-46,11a2.56,2.56,0,0,0,2.45,3.29H.58A2.56,2.56,0,0,0,3,11L-19.3-62.71a2.56,2.56,0,0,0-4.9,0"/></g></g><rect class="cls-6" x="-7.36" y="-0.8" width="163.65" height="109.1"/><rect class="cls-5" x="103.59" y="84.93" width="52.69" height="23.37"/><g class="cls-3"><path class="cls-5" d="M163,37.6a37.4,37.4,0,0,0-34,21.9,13.24,13.24,0,0,1-12.22,7.69h-.31A21.72,21.72,0,1,0,135.15,100a37.39,37.39,0,0,0,46.67,7.31V42.7A37.23,37.23,0,0,0,163,37.6"/><path class="cls-7" d="M73.52-5.71A4.56,4.56,0,0,0,69-1.44c0,.21,0,.43,0,.64a12.89,12.89,0,0,0,12.9,13.08,13,13,0,0,0,4.26-.72,5.64,5.64,0,0,1,5.75,1.26,19.48,19.48,0,0,0,13.47,5.37A19.57,19.57,0,0,0,124.88-1.1v0a4.54,4.54,0,0,0-4.56-4.56Z"/><path class="cls-8" d="M116.65,127.83A55.69,55.69,0,0,0,141.28,80.5a2.5,2.5,0,0,0-4.15-1.81c-10.46,9.21-21.34,14.5-35.87,14.66A49.27,49.27,0,0,1,77,86.71,78.46,78.46,0,0,1,45.44,43.17a78.61,78.61,0,0,1,8.89-63.33q-2.67.6-5.32,1.36a92.11,92.11,0,1,0,96.83,146.63Z"/></g><path class="cls-9" d="M60.09,75.42a7,7,0,0,0-2.34-.28,7.18,7.18,0,0,0,.31,14.35H78.25a7.23,7.23,0,0,0,2.87-.6A44.77,44.77,0,0,1,77,86.71a78.91,78.91,0,0,1-14.81-13,7.39,7.39,0,0,0-.56,1A1.25,1.25,0,0,1,60.09,75.42Z"/><g class="cls-3"><path class="cls-10" d="M33,102.81a25.9,25.9,0,0,0-4.1.84,7,7,0,0,1-8-3.09A25.91,25.91,0,0,0-5.42,88.43,25.81,25.81,0,0,0-26.82,118,25.89,25.89,0,0,0,2.51,139.62a25.91,25.91,0,0,0,9-3.09A25.9,25.9,0,1,0,33,102.81"/></g><path class="cls-9" d="M10.89,60.5h-.26a2.09,2.09,0,0,0-2.16,2.66,3.9,3.9,0,0,0,3.58,2.94H22.64c2.63,0,4.18-2.13,3.48-4.75H15.53a2.81,2.81,0,0,1-2.8-2.94,3.22,3.22,0,0,1,.11-.62A2,2,0,0,0,11.39,60,.48.48,0,0,1,10.89,60.5Z"/><path class="cls-10" d="M15.53,61.35h10.6a4.75,4.75,0,1,0-3.9-7.46.54.54,0,0,1-.84,0,2.77,2.77,0,0,0-2.12-1,2.81,2.81,0,0,0-2.75,2.25.66.66,0,0,1-.65.55h-.26a2.88,2.88,0,0,0-2.77,2,3.22,3.22,0,0,0-.11.62A2.81,2.81,0,0,0,15.53,61.35Z"/><path class="cls-11" d="M84.86,68.74a7.17,7.17,0,0,0-2.33.29A1.24,1.24,0,0,1,81,68.34a7.18,7.18,0,0,0-13.16,0A1.23,1.23,0,0,1,66.4,69a7.17,7.17,0,0,0-9.2,6.61,7.17,7.17,0,0,0,7.17,7.45H84.55a7.18,7.18,0,0,0,.31-14.35Z"/><path class="cls-12" d="M63.3,60.35l.55,2.06.55-2.06a7.21,7.21,0,0,1,5.09-5.08l2.06-.56-2.06-.55a7.21,7.21,0,0,1-5.09-5.09l-.55-2-.55,2a7.21,7.21,0,0,1-5.09,5.09l-2.06.55,2.06.56A7.21,7.21,0,0,1,63.3,60.35Z"/><path class="cls-13" d="M75.48,47.78l.3,1.13.31-1.13A4,4,0,0,1,78.88,45l1.13-.3-1.13-.31a3.93,3.93,0,0,1-2.79-2.79l-.31-1.14-.3,1.14a4,4,0,0,1-2.8,2.79l-1.13.31,1.13.3A4,4,0,0,1,75.48,47.78Z"/></g></svg>